<svg xmlns="http://www.w3.org/2000/svg" viewBox="0 0 605.93 125"><defs><style>.cls-1{isolation:isolate;}.cls-2{fill:#444;}.cls-3{opacity:0.7;mix-blend-mode:multiply;}.cls-4{fill:gray;}.cls-5{fill:#ff7e5c;}.cls-6{fill:#e85f3b;}.cls-7{fill:#ff8d6e;}.cls-8{fill:#87412e;}.cls-9{fill:#f59905;}.cls-10{fill:#ffbf00;}.cls-11{fill:#f59207;}.cls-12{opacity:0.3;mix-blend-mode:screen;}.cls-13{fill:#ededed;}</style></defs><title>anunciodeposito</title><g class="cls-1"><g id="Depósito"><g id="Anuncio"><g id="Deposito"><g id="Deposito-2" data-name="Deposito"><rect class="cls-2" width="605.93" height="125" rx="10"/></g></g><g class="cls-3"><path class="cls-4" d="M647.86,777.94c0-18.43-13.73-33.93-32.39-38.53a12.42,12.42,0,0,0,.06-14.25c-.16-.23-.33-.45-.5-.67s-.52-.61-.79-.89a11.33,11.33,0,0,0-.72-1,12.37,12.37,0,0,0-1-1.07l-.27-.25a10.27,10.27,0,0,0-.8-.68l-.12-.11h0a12.4,12.4,0,0,0-12.68-1.41h0l-.33.16-.2.11c-.32.16-.62.34-.93.53L597,720a11,11,0,0,0-.92.65h0l0,0a12.32,12.32,0,0,0-2.88,3.3h0c-.08.13-.14.26-.21.39l-.09.16c-.18.33-.34.66-.49,1h0a9.85,9.85,0,0,0-.36,1l-.09.27c-.08.29-.16.59-.23.88a.85.85,0,0,1,0,.17c-.07.35-.12.71-.16,1.06l0,.24c0,.28,0,.57,0,.85,0,.1,0,.19,0,.28v.18h0a12.38,12.38,0,0,0,2.7,7.65c.26.31.52.61.8.9a52.36,52.36,0,0,0-19.79,9.06c-5-6-15.66-7.84-22.21-2.48L565,759.53c-3.7,6.47-6.43,13.63-14.47,18.41h-7.19v16.34h9.45s3.57,8.22,14.9,15c2,5.57,4,13.54,4,17.16h10.65s.85-6.29,4-10.2a87.42,87.42,0,0,0,17.6,1.68,47.64,47.64,0,0,0,15.56-2.59,40.51,40.51,0,0,1,2.14,11.11h10.65a62.23,62.23,0,0,1,2.39-19.94A38.11,38.11,0,0,0,647.86,777.94Z" transform="translate(-528.61 -712.46)"/></g><path class="cls-5" d="M603.22,737.29c-14.31,0-28.35,8-35,15.85-6.4,7.51-7.84,17.84-18.35,24.09h-7.19v16.34h9.45s10.25,23.6,51.12,23.6c24.26,0,43.93-17.88,43.93-39.94S627.48,737.29,603.22,737.29Z" transform="translate(-528.61 -712.46)"/><path class="cls-6" d="M626.27,750a1.7,1.7,0,0,1-.33.38,1.64,1.64,0,0,1-1.87.16,37.25,37.25,0,0,0-19.25-5.24,39,39,0,0,0-19.15,5.59,1.5,1.5,0,0,1-.8.23,1.61,1.61,0,0,1-1-.4,1.23,1.23,0,0,1-.35-.4,1.63,1.63,0,0,1,.57-2.19,42.44,42.44,0,0,1,20.77-6,40.51,40.51,0,0,1,20.9,5.68A1.61,1.61,0,0,1,626.27,750Z" transform="translate(-528.61 -712.46)"/><path class="cls-5" d="M552.23,744.88c8.79-7.19,25-1.46,24.9,10l-6.79,10.91Z" transform="translate(-528.61 -712.46)"/><path class="cls-7" d="M564.68,803.43c2.45,3.6,6.32,17.2,6.32,22.26h10.65s1.42-10.54,7.36-12.81S564.68,803.43,564.68,803.43Z" transform="translate(-528.61 -712.46)"/><path class="cls-7" d="M615.82,807.85c2.44,3.59,5.1,12.78,5.1,17.84h10.65s-1.1-17.46,6.17-27.89C641.38,792.58,615.82,807.85,615.82,807.85Z" transform="translate(-528.61 -712.46)"/><path class="cls-8" d="M565.89,776.48a2.46,2.46,0,1,1-2.43-2.84A2.67,2.67,0,0,1,565.89,776.48Z" transform="translate(-528.61 -712.46)"/><path class="cls-8" d="M625.94,750.36a1.64,1.64,0,0,1-1.87.16,37.25,37.25,0,0,0-19.25-5.24,39,39,0,0,0-19.15,5.59,1.5,1.5,0,0,1-.8.23,1.61,1.61,0,0,1-1-.4.62.62,0,0,1,.22-.19,42.35,42.35,0,0,1,20.77-6,40.52,40.52,0,0,1,20.9,5.69A.66.66,0,0,1,625.94,750.36Z" transform="translate(-528.61 -712.46)"/><path class="cls-9" d="M596.88,721.84a12.41,12.41,0,0,0-1.94,17.44l19.38-15.5A12.41,12.41,0,0,0,596.88,721.84Z" transform="translate(-528.61 -712.46)"/><path class="cls-9" d="M612.38,741.22a12.16,12.16,0,0,1-3.26,1.88A12.42,12.42,0,0,1,596.58,741a11.94,11.94,0,0,1-1.64-1.69l19.38-15.5c.18.22.34.44.5.67A12.41,12.41,0,0,1,612.38,741.22Z" transform="translate(-528.61 -712.46)"/><path class="cls-10" d="M612.81,721.9a12.41,12.41,0,1,0-1.93,17.44A12.4,12.4,0,0,0,612.81,721.9Z" transform="translate(-528.61 -712.46)"/><path class="cls-9" d="M596.68,721.59a10.31,10.31,0,0,0-1.61,14.5l16.12-12.89A10.33,10.33,0,0,0,596.68,721.59Z" transform="translate(-528.61 -712.46)"/><path class="cls-11" d="M611.19,723.2l-16.12,12.89a10.32,10.32,0,1,0,16.12-12.89Z" transform="translate(-528.61 -712.46)"/><path class="cls-10" d="M596.29,735.12a8.76,8.76,0,1,1,12.31,1.37A8.77,8.77,0,0,1,596.29,735.12Zm13.37-10.7a8.37,8.37,0,1,0-1.31,11.77A8.38,8.38,0,0,0,609.66,724.42Z" transform="translate(-528.61 -712.46)"/><path class="cls-10" d="M602.91,725c1.73-1.36,3.13-.73,4.22.56l1-.82.91,1.15-1,.83a10.29,10.29,0,0,1,1.29,2.38l-1.54,1.22c-.51-.78-1.48-2.12-1.95-2.72s-.88-1-1.54-.47l-.3.23c-.53.42-.56.8-.06,1.44l.77,1c1.42,1.8.25,3.33-.72,4.1l-.5.4c-2,1.63-3.49.78-4.44-.42l-1,.78-.91-1.15,1-.8a7.93,7.93,0,0,1-1.32-2.41l1.53-1.21c.35.51,1.21,1.76,2.1,2.88.41.52.85.83,1.37.41l.35-.27c.43-.35.59-.69.12-1.28l-.75-.93a2.8,2.8,0,0,1,.6-4.26Z" transform="translate(-528.61 -712.46)"/><g class="cls-12"><path class="cls-10" d="M610.66,719.79l-12.72-1.41a12.56,12.56,0,0,0-2.55,1.56l17.41,1.94A12.42,12.42,0,0,0,610.66,719.79Z" transform="translate(-528.61 -712.46)"/><path class="cls-10" d="M614.91,725.76l-22.43-2.5a12.47,12.47,0,0,0-1.76,6.49l24.49,2.72A12.46,12.46,0,0,0,614.91,725.76Z" transform="translate(-528.61 -712.46)"/></g><path class="cls-13" d="M691,769.18l0-14.11-6.92,11.62h-2.45l-6.89-11.32v13.81h-5.1V745.67h4.5l8.8,14.61,8.66-14.61h4.47l.06,23.51Z" transform="translate(-528.61 -712.46)"/><path class="cls-13" d="M715.08,752.84q2.25,2,2.25,6v10.31h-4.9v-2.25c-1,1.68-2.82,2.51-5.51,2.51a8.55,8.55,0,0,1-3.61-.7,5.37,5.37,0,0,1-2.33-2,5.06,5.06,0,0,1-.81-2.82,4.71,4.71,0,0,1,1.9-4c1.26-1,3.22-1.45,5.86-1.45h4.16a3.3,3.3,0,0,0-1-2.63,4.54,4.54,0,0,0-3.12-.93,9.22,9.22,0,0,0-2.84.46,7.4,7.4,0,0,0-2.36,1.22L700.84,753a11.48,11.48,0,0,1,3.55-1.61,15.84,15.84,0,0,1,4.25-.57A9.41,9.41,0,0,1,715.08,752.84Zm-4.46,12.46a3.44,3.44,0,0,0,1.47-1.83v-1.85H708.5c-2.15,0-3.22.71-3.22,2.12a1.87,1.87,0,0,0,.79,1.59,3.53,3.53,0,0,0,2.16.59A4.63,4.63,0,0,0,710.62,765.3Z" transform="translate(-528.61 -712.46)"/><path class="cls-13" d="M738.47,752.86q2.07,2,2.07,6v10.35H735.3v-9.54a4.72,4.72,0,0,0-.94-3.21,3.47,3.47,0,0,0-2.72-1.06,4.18,4.18,0,0,0-3.16,1.23,5.09,5.09,0,0,0-1.17,3.64v8.94h-5.24V751.11h5v2.11a7.09,7.09,0,0,1,2.59-1.76,9.09,9.09,0,0,1,3.39-.62A7.39,7.39,0,0,1,738.47,752.86Z" transform="translate(-528.61 -712.46)"/><path class="cls-13" d="M756.93,768.3a5.45,5.45,0,0,1-1.9.86,9.62,9.62,0,0,1-2.37.28,7,7,0,0,1-5-1.64,6.32,6.32,0,0,1-1.76-4.84v-7.42h-2.79v-4h2.79v-4.4h5.24v4.4h4.5v4h-4.5v7.36a2.46,2.46,0,0,0,.59,1.76,2.18,2.18,0,0,0,1.66.62,3.38,3.38,0,0,0,2.12-.67Z" transform="translate(-528.61 -712.46)"/><path class="cls-13" d="M776.91,761.62H763.24a4.26,4.26,0,0,0,1.75,2.65,5.74,5.74,0,0,0,3.42,1,6.93,6.93,0,0,0,2.5-.42,5.9,5.9,0,0,0,2-1.33l2.79,3c-1.7,2-4.19,2.92-7.45,2.92a11.74,11.74,0,0,1-5.41-1.19,8.64,8.64,0,0,1-3.63-3.31,9.7,9.7,0,0,1,0-9.58,8.87,8.87,0,0,1,3.46-3.33,10.72,10.72,0,0,1,9.72,0,8.31,8.31,0,0,1,3.37,3.28,9.72,9.72,0,0,1,1.23,5C777,760.28,777,760.75,776.91,761.62Zm-12.26-5.81a4.27,4.27,0,0,0-1.48,2.75h8.9a4.3,4.3,0,0,0-1.48-2.73,4.37,4.37,0,0,0-3-1A4.53,4.53,0,0,0,764.65,755.81Z" transform="translate(-528.61 -712.46)"/><path class="cls-13" d="M796.9,752.86q2.07,2,2.07,6v10.35h-5.24v-9.54a4.72,4.72,0,0,0-.94-3.21,3.47,3.47,0,0,0-2.72-1.06,4.18,4.18,0,0,0-3.16,1.23,5.09,5.09,0,0,0-1.17,3.64v8.94H780.5V751.11h5v2.11a7.09,7.09,0,0,1,2.59-1.76,9.09,9.09,0,0,1,3.39-.62A7.39,7.39,0,0,1,796.9,752.86Z" transform="translate(-528.61 -712.46)"/><path class="cls-13" d="M820.11,752.86c1.38,1.34,2.06,3.33,2.06,6v10.35h-5.23v-9.54a4.77,4.77,0,0,0-.94-3.21,3.48,3.48,0,0,0-2.72-1.06,4.15,4.15,0,0,0-3.16,1.23,5,5,0,0,0-1.18,3.64v8.94H803.7V744.26h5.24V753a7.14,7.14,0,0,1,2.52-1.6,9.36,9.36,0,0,1,3.23-.55A7.42,7.42,0,0,1,820.11,752.86Z" transform="translate(-528.61 -712.46)"/><path class="cls-13" d="M840.64,752.84q2.25,2,2.25,6v10.31H838v-2.25c-1,1.68-2.82,2.51-5.51,2.51a8.58,8.58,0,0,1-3.61-.7,5.37,5.37,0,0,1-2.33-2,5.06,5.06,0,0,1-.81-2.82,4.71,4.71,0,0,1,1.9-4q1.9-1.46,5.86-1.45h4.17a3.31,3.31,0,0,0-1-2.63,4.54,4.54,0,0,0-3.12-.93,9.22,9.22,0,0,0-2.84.46,7.51,7.51,0,0,0-2.36,1.22L826.41,753a11.32,11.32,0,0,1,3.54-1.61,15.9,15.9,0,0,1,4.25-.57A9.41,9.41,0,0,1,840.64,752.84Zm-4.46,12.46a3.51,3.51,0,0,0,1.48-1.83v-1.85h-3.6c-2.15,0-3.22.71-3.22,2.12a1.87,1.87,0,0,0,.79,1.59,3.55,3.55,0,0,0,2.16.59A4.63,4.63,0,0,0,836.18,765.3Z" transform="translate(-528.61 -712.46)"/><path class="cls-13" d="M858.81,768.89a11.49,11.49,0,0,1-3.42-1.39l1.74-3.76a11.07,11.07,0,0,0,2.92,1.25,12.09,12.09,0,0,0,3.36.49c2.22,0,3.33-.55,3.33-1.64a1.17,1.17,0,0,0-.91-1.11,12.53,12.53,0,0,0-2.79-.57,26.17,26.17,0,0,1-3.66-.78,5.68,5.68,0,0,1-2.5-1.54,4.42,4.42,0,0,1-1.06-3.16,5,5,0,0,1,1-3,6.41,6.41,0,0,1,2.89-2.06,12.4,12.4,0,0,1,4.48-.74,17.67,17.67,0,0,1,3.82.42,10.8,10.8,0,0,1,3.14,1.16l-1.75,3.73a10.41,10.41,0,0,0-5.21-1.35,5.3,5.3,0,0,0-2.51.47,1.39,1.39,0,0,0-.84,1.21,1.21,1.21,0,0,0,.9,1.18,16.59,16.59,0,0,0,2.89.63,31.59,31.59,0,0,1,3.63.79,5.56,5.56,0,0,1,2.45,1.53,4.36,4.36,0,0,1,1,3.09,4.78,4.78,0,0,1-1,3,6.42,6.42,0,0,1-2.94,2,13.07,13.07,0,0,1-4.58.72A17.51,17.51,0,0,1,858.81,768.89Z" transform="translate(-528.61 -712.46)"/><path class="cls-13" d="M892.56,761.62H878.89a4.26,4.26,0,0,0,1.75,2.65,5.78,5.78,0,0,0,3.42,1,7,7,0,0,0,2.51-.42,6.09,6.09,0,0,0,2-1.33l2.79,3c-1.71,2-4.19,2.92-7.46,2.92a11.74,11.74,0,0,1-5.41-1.19,8.67,8.67,0,0,1-3.62-3.31,9.67,9.67,0,0,1,0-9.58,8.87,8.87,0,0,1,3.46-3.33,10.17,10.17,0,0,1,4.92-1.19,10.07,10.07,0,0,1,4.8,1.14,8.33,8.33,0,0,1,3.38,3.28,9.82,9.82,0,0,1,1.22,5C892.66,760.28,892.63,760.75,892.56,761.62Zm-12.26-5.81a4.26,4.26,0,0,0-1.47,2.75h8.89a4.29,4.29,0,0,0-1.47-2.73,4.39,4.39,0,0,0-3-1A4.53,4.53,0,0,0,880.3,755.81Z" transform="translate(-528.61 -712.46)"/><path class="cls-13" d="M914.35,751.11v18.07h-5V767a6.89,6.89,0,0,1-2.48,1.79,8.58,8.58,0,0,1-8.76-1.42q-2.08-2.05-2.09-6.08V751.11h5.24v9.43c0,2.92,1.22,4.37,3.66,4.37a3.94,3.94,0,0,0,3-1.22,5.16,5.16,0,0,0,1.15-3.65v-8.93Z" transform="translate(-528.61 -712.46)"/><path class="cls-13" d="M947.13,744.26v24.92h-5v-2.09a6.91,6.91,0,0,1-5.65,2.35,9.35,9.35,0,0,1-4.61-1.14,8.07,8.07,0,0,1-3.24-3.26,10.76,10.76,0,0,1,0-9.8,8.13,8.13,0,0,1,3.24-3.26,9.35,9.35,0,0,1,4.61-1.14,6.89,6.89,0,0,1,5.41,2.18v-8.76Zm-6.45,19.53a5.73,5.73,0,0,0,0-7.29,4.7,4.7,0,0,0-6.61,0,5.73,5.73,0,0,0,0,7.29,4.7,4.7,0,0,0,6.61,0Z" transform="translate(-528.61 -712.46)"/><path class="cls-13" d="M952.23,747.75a2.85,2.85,0,0,1,0-4.16,3.33,3.33,0,0,1,2.35-.84,3.46,3.46,0,0,1,2.36.8,2.6,2.6,0,0,1,.9,2,2.85,2.85,0,0,1-.9,2.16,3.69,3.69,0,0,1-4.71,0Zm-.26,3.36h5.23v18.07H952Z" transform="translate(-528.61 -712.46)"/><path class="cls-13" d="M978.48,752.86q2.06,2,2.06,6v10.35H975.3v-9.54a4.72,4.72,0,0,0-.94-3.21,3.45,3.45,0,0,0-2.72-1.06,4.14,4.14,0,0,0-3.15,1.23,5,5,0,0,0-1.18,3.64v8.94h-5.24V751.11h5v2.11a7,7,0,0,1,2.58-1.76,9.09,9.09,0,0,1,3.39-.62A7.43,7.43,0,0,1,978.48,752.86Z" transform="translate(-528.61 -712.46)"/><path class="cls-13" d="M1001.68,752.86q2.07,2,2.07,6v10.35h-5.24v-9.54a4.72,4.72,0,0,0-.94-3.21,3.47,3.47,0,0,0-2.72-1.06,4.18,4.18,0,0,0-3.16,1.23,5.09,5.09,0,0,0-1.17,3.64v8.94h-5.24V744.26h5.24V753a7,7,0,0,1,2.52-1.6,9.26,9.26,0,0,1,3.22-.55A7.39,7.39,0,0,1,1001.68,752.86Z" transform="translate(-528.61 -712.46)"/><path class="cls-13" d="M1026.28,761.62h-13.67a4.26,4.26,0,0,0,1.75,2.65,5.78,5.78,0,0,0,3.42,1,7,7,0,0,0,2.51-.42,6.09,6.09,0,0,0,2-1.33l2.79,3c-1.71,2-4.19,2.92-7.46,2.92a11.74,11.74,0,0,1-5.41-1.19,8.67,8.67,0,0,1-3.62-3.31,9.67,9.67,0,0,1,0-9.58,8.87,8.87,0,0,1,3.46-3.33,10.2,10.2,0,0,1,4.92-1.19,10.07,10.07,0,0,1,4.8,1.14,8.33,8.33,0,0,1,3.38,3.28,9.82,9.82,0,0,1,1.22,5C1026.38,760.28,1026.35,760.75,1026.28,761.62ZM1014,755.81a4.26,4.26,0,0,0-1.47,2.75h8.89a4.29,4.29,0,0,0-1.47-2.73,4.39,4.39,0,0,0-3-1A4.54,4.54,0,0,0,1014,755.81Z" transform="translate(-528.61 -712.46)"/><path class="cls-13" d="M1030.14,747.75a2.85,2.85,0,0,1,0-4.16,3.33,3.33,0,0,1,2.35-.84,3.42,3.42,0,0,1,2.35.8,2.58,2.58,0,0,1,.91,2,2.83,2.83,0,0,1-.91,2.16,3.27,3.27,0,0,1-2.35.86A3.33,3.33,0,0,1,1030.14,747.75Zm-.27,3.36h5.24v18.07h-5.24Z" transform="translate(-528.61 -712.46)"/><path class="cls-13" d="M1047.52,751.51a9.37,9.37,0,0,1,3.68-.67v4.84c-.58,0-1-.07-1.18-.07a4.78,4.78,0,0,0-3.52,1.26,5.1,5.1,0,0,0-1.28,3.78v8.53H1040V751.11h5v2.38A5.83,5.83,0,0,1,1047.52,751.51Z" transform="translate(-528.61 -712.46)"/><path class="cls-13" d="M1057.63,768.25a8.76,8.76,0,0,1-3.54-3.31,9.64,9.64,0,0,1,0-9.6,8.9,8.9,0,0,1,3.54-3.31,10.89,10.89,0,0,1,5.12-1.19,10.78,10.78,0,0,1,5.1,1.19,8.94,8.94,0,0,1,3.53,3.31,9.64,9.64,0,0,1,0,9.6,8.8,8.8,0,0,1-3.53,3.31,10.66,10.66,0,0,1-5.1,1.19A10.77,10.77,0,0,1,1057.63,768.25Zm8.43-4.46a5.79,5.79,0,0,0,0-7.29,4.72,4.72,0,0,0-6.63,0,5.73,5.73,0,0,0,0,7.29,4.72,4.72,0,0,0,6.63,0Z" transform="translate(-528.61 -712.46)"/><path class="cls-13" d="M671,809.19a11.44,11.44,0,0,1-3.43-1.4l1.75-3.76a10.62,10.62,0,0,0,2.92,1.26,12,12,0,0,0,3.36.49c2.21,0,3.32-.55,3.32-1.65a1.16,1.16,0,0,0-.9-1.1,12.79,12.79,0,0,0-2.79-.57,27.7,27.7,0,0,1-3.66-.78,5.63,5.63,0,0,1-2.5-1.54A4.38,4.38,0,0,1,668,797a5,5,0,0,1,1-3,6.36,6.36,0,0,1,2.89-2.06,12.16,12.16,0,0,1,4.48-.74,17.51,17.51,0,0,1,3.81.42,10.42,10.42,0,0,1,3.14,1.16l-1.74,3.72a10.5,10.5,0,0,0-5.21-1.34,5.34,5.34,0,0,0-2.52.47,1.38,1.38,0,0,0-.84,1.21,1.21,1.21,0,0,0,.91,1.18,16.37,16.37,0,0,0,2.89.63,31.84,31.84,0,0,1,3.62.79,5.5,5.5,0,0,1,2.46,1.53,4.36,4.36,0,0,1,1,3.09,4.78,4.78,0,0,1-1,3,6.42,6.42,0,0,1-2.94,2,13.11,13.11,0,0,1-4.58.72A17.51,17.51,0,0,1,671,809.19Z" transform="translate(-528.61 -712.46)"/><path class="cls-13" d="M704.71,801.92H691a4.26,4.26,0,0,0,1.75,2.65,5.73,5.73,0,0,0,3.42,1,7.16,7.16,0,0,0,2.5-.41,6,6,0,0,0,2-1.33l2.79,3c-1.7,1.95-4.19,2.92-7.45,2.92a11.74,11.74,0,0,1-5.41-1.19,8.7,8.7,0,0,1-3.63-3.31,9.11,9.11,0,0,1-1.27-4.8,9.26,9.26,0,0,1,1.26-4.79,8.88,8.88,0,0,1,3.45-3.32,10.74,10.74,0,0,1,9.73-.05,8.35,8.35,0,0,1,3.37,3.27,9.79,9.79,0,0,1,1.23,5C704.81,800.57,704.77,801,704.71,801.92Zm-12.26-5.81a4.27,4.27,0,0,0-1.48,2.75h8.9a4.3,4.3,0,0,0-1.48-2.73,4.37,4.37,0,0,0-2.95-1A4.53,4.53,0,0,0,692.45,796.11Z" transform="translate(-528.61 -712.46)"/><path class="cls-13" d="M726.94,791.41v15c0,3.31-.86,5.78-2.59,7.39s-4.24,2.42-7.55,2.42a19.06,19.06,0,0,1-5-.64,10.88,10.88,0,0,1-3.9-1.85L710,810a8.57,8.57,0,0,0,2.89,1.5,11.45,11.45,0,0,0,3.49.55,5.67,5.67,0,0,0,4-1.23,4.87,4.87,0,0,0,1.29-3.71v-.77A7.34,7.34,0,0,1,716,808.6a9.56,9.56,0,0,1-4.55-1.09,8.26,8.26,0,0,1-3.27-3.07,9.24,9.24,0,0,1,0-9.14,8.26,8.26,0,0,1,3.27-3.07,9.56,9.56,0,0,1,4.55-1.09,7.19,7.19,0,0,1,6,2.58v-2.31Zm-6.5,11.67a4.54,4.54,0,0,0,0-6.42,5.39,5.39,0,0,0-6.83,0,4.49,4.49,0,0,0,0,6.42,5.39,5.39,0,0,0,6.83,0Z" transform="translate(-528.61 -712.46)"/><path class="cls-13" d="M750,791.41v18.06h-5v-2.15a6.84,6.84,0,0,1-2.49,1.8,8.56,8.56,0,0,1-8.76-1.43c-1.39-1.36-2.08-3.39-2.08-6.07V791.41h5.23v9.43c0,2.91,1.23,4.37,3.67,4.37a3.93,3.93,0,0,0,3-1.23,5.16,5.16,0,0,0,1.14-3.64v-8.93Z" transform="translate(-528.61 -712.46)"/><path class="cls-13" d="M762.42,791.81a9.35,9.35,0,0,1,3.67-.67V796q-.87-.06-1.17-.06a4.81,4.81,0,0,0-3.53,1.26,5.07,5.07,0,0,0-1.27,3.77v8.53h-5.24V791.41h5v2.38A5.86,5.86,0,0,1,762.42,791.81Z" transform="translate(-528.61 -712.46)"/><path class="cls-13" d="M772.52,808.55a8.83,8.83,0,0,1-3.54-3.31,9.71,9.71,0,0,1,0-9.6,8.9,8.9,0,0,1,3.54-3.31,10.93,10.93,0,0,1,5.13-1.19,10.78,10.78,0,0,1,5.1,1.19,8.94,8.94,0,0,1,3.53,3.31,9.71,9.71,0,0,1,0,9.6,8.87,8.87,0,0,1-3.53,3.31,10.66,10.66,0,0,1-5.1,1.19A10.81,10.81,0,0,1,772.52,808.55Zm8.43-4.47a5.75,5.75,0,0,0,0-7.28,4.34,4.34,0,0,0-3.3-1.36,4.4,4.4,0,0,0-3.33,1.36,5.71,5.71,0,0,0,0,7.28,4.4,4.4,0,0,0,3.33,1.36A4.34,4.34,0,0,0,781,804.08Z" transform="translate(-528.61 -712.46)"/><path class="cls-13" d="M804.09,808.55a8.9,8.9,0,0,1-3.59-3.31,9.11,9.11,0,0,1,3.59-12.91,11.18,11.18,0,0,1,5.19-1.19,10.15,10.15,0,0,1,5,1.19,7.08,7.08,0,0,1,3.1,3.41l-4.06,2.18a4.45,4.45,0,0,0-4.06-2.48,4.6,4.6,0,0,0-3.4,1.34,5.67,5.67,0,0,0,0,7.32,4.6,4.6,0,0,0,3.4,1.34,4.38,4.38,0,0,0,4.06-2.48l4.06,2.22a7.18,7.18,0,0,1-3.1,3.35,9.94,9.94,0,0,1-5,1.21A11.06,11.06,0,0,1,804.09,808.55Z" transform="translate(-528.61 -712.46)"/><path class="cls-13" d="M823.64,808.55a8.8,8.8,0,0,1-3.55-3.31,9.71,9.71,0,0,1,0-9.6,8.86,8.86,0,0,1,3.55-3.31,11.57,11.57,0,0,1,10.22,0,8.94,8.94,0,0,1,3.53,3.31,9.71,9.71,0,0,1,0,9.6,8.87,8.87,0,0,1-3.53,3.31,11.57,11.57,0,0,1-10.22,0Zm8.42-4.47a5.75,5.75,0,0,0,0-7.28,4.34,4.34,0,0,0-3.3-1.36,4.42,4.42,0,0,0-3.33,1.36,5.71,5.71,0,0,0,0,7.28,4.42,4.42,0,0,0,3.33,1.36A4.34,4.34,0,0,0,832.06,804.08Z" transform="translate(-528.61 -712.46)"/><path class="cls-13" d="M858.56,793.15q2.07,2,2.07,6v10.34h-5.24v-9.53a4.73,4.73,0,0,0-.94-3.21,3.45,3.45,0,0,0-2.72-1.06,4.16,4.16,0,0,0-3.16,1.23,5.07,5.07,0,0,0-1.17,3.64v8.93h-5.24V791.41h5v2.11a6.89,6.89,0,0,1,2.59-1.76,9.05,9.05,0,0,1,3.39-.62A7.44,7.44,0,0,1,858.56,793.15Z" transform="translate(-528.61 -712.46)"/><path class="cls-13" d="M869,808.55a8.83,8.83,0,0,1-3.54-3.31,9.64,9.64,0,0,1,0-9.6,8.9,8.9,0,0,1,3.54-3.31,10.89,10.89,0,0,1,5.12-1.19,10.78,10.78,0,0,1,5.1,1.19,8.94,8.94,0,0,1,3.53,3.31,9.64,9.64,0,0,1,0,9.6,8.87,8.87,0,0,1-3.53,3.31,10.66,10.66,0,0,1-5.1,1.19A10.77,10.77,0,0,1,869,808.55Zm8.43-4.47a5.78,5.78,0,0,0,0-7.28,4.37,4.37,0,0,0-3.31-1.36,4.43,4.43,0,0,0-3.33,1.36,5.71,5.71,0,0,0,0,7.28,4.43,4.43,0,0,0,3.33,1.36A4.37,4.37,0,0,0,877.47,804.08Z" transform="translate(-528.61 -712.46)"/><path class="cls-13" d="M889.24,809.19a11.44,11.44,0,0,1-3.43-1.4l1.75-3.76a10.62,10.62,0,0,0,2.92,1.26,12,12,0,0,0,3.36.49c2.21,0,3.32-.55,3.32-1.65a1.16,1.16,0,0,0-.9-1.1,12.79,12.79,0,0,0-2.79-.57,27.7,27.7,0,0,1-3.66-.78,5.63,5.63,0,0,1-2.5-1.54,4.38,4.38,0,0,1-1.06-3.16,5,5,0,0,1,1-3,6.36,6.36,0,0,1,2.89-2.06,12.16,12.16,0,0,1,4.48-.74,17.51,17.51,0,0,1,3.81.42,10.42,10.42,0,0,1,3.14,1.16l-1.74,3.72a10.5,10.5,0,0,0-5.21-1.34,5.34,5.34,0,0,0-2.52.47,1.38,1.38,0,0,0-.84,1.21,1.21,1.21,0,0,0,.91,1.18,16.37,16.37,0,0,0,2.89.63,31.84,31.84,0,0,1,3.62.79,5.5,5.5,0,0,1,2.46,1.53,4.36,4.36,0,0,1,1,3.09,4.78,4.78,0,0,1-1,3,6.42,6.42,0,0,1-2.94,2,13.11,13.11,0,0,1-4.58.72A17.51,17.51,0,0,1,889.24,809.19Z" transform="translate(-528.61 -712.46)"/><path class="cls-13" d="M908.93,808.55a8.9,8.9,0,0,1-3.59-3.31,9.11,9.11,0,0,1,3.59-12.91,11.21,11.21,0,0,1,5.19-1.19,10.12,10.12,0,0,1,5,1.19,7.08,7.08,0,0,1,3.1,3.41l-4.06,2.18a4.44,4.44,0,0,0-4.06-2.48,4.56,4.56,0,0,0-3.39,1.34,5.64,5.64,0,0,0,0,7.32,4.56,4.56,0,0,0,3.39,1.34,4.38,4.38,0,0,0,4.06-2.48l4.06,2.22a7.18,7.18,0,0,1-3.1,3.35,9.91,9.91,0,0,1-5,1.21A11.08,11.08,0,0,1,908.93,808.55Z" transform="translate(-528.61 -712.46)"/><path class="cls-13" d="M928.48,808.55a8.86,8.86,0,0,1-3.55-3.31,9.71,9.71,0,0,1,0-9.6,8.93,8.93,0,0,1,3.55-3.31,10.89,10.89,0,0,1,5.12-1.19,10.78,10.78,0,0,1,5.1,1.19,8.94,8.94,0,0,1,3.53,3.31,9.71,9.71,0,0,1,0,9.6,8.87,8.87,0,0,1-3.53,3.31,10.66,10.66,0,0,1-5.1,1.19A10.77,10.77,0,0,1,928.48,808.55Zm8.43-4.47a5.78,5.78,0,0,0,0-7.28,4.37,4.37,0,0,0-3.31-1.36,4.42,4.42,0,0,0-3.33,1.36,5.71,5.71,0,0,0,0,7.28,4.42,4.42,0,0,0,3.33,1.36A4.37,4.37,0,0,0,936.91,804.08Z" transform="translate(-528.61 -712.46)"/><path class="cls-13" d="M947.15,808.85a3,3,0,0,1,0-4.3,3.59,3.59,0,0,1,4.64,0,2.85,2.85,0,0,1,.9,2.14,2.9,2.9,0,0,1-.92,2.16,3.42,3.42,0,0,1-4.6,0ZM946.33,786h6.24l-1,15.34h-4.16Z" transform="translate(-528.61 -712.46)"/></g></g></g></svg>