<svg xmlns="http://www.w3.org/2000/svg" viewBox="0 0 605.93 125"><defs><style>.cls-1{isolation:isolate;}.cls-2{fill:#444;}.cls-3{fill:#ededed;}.cls-4{fill:gray;opacity:0.7;mix-blend-mode:multiply;}.cls-5{fill:#0e2036;}.cls-6{fill:#153152;}.cls-7{fill:#c4c4c4;}.cls-8{fill:#fefefe;}.cls-9{fill:#eda73f;}.cls-10{fill:#ffce3b;}.cls-11{fill:#5794d9;}.cls-12{fill:#e1e1e1;}.cls-13{fill:#6cb880;}.cls-14{fill:#82de9a;}.cls-15{fill:#447a52;}.cls-16{fill:#75c78a;}.cls-17{fill:#f59407;}.cls-18{opacity:0.3;}.cls-18,.cls-22{mix-blend-mode:screen;}.cls-19{fill:#1b1f19;}.cls-20{fill:#193a61;}.cls-21{fill:#fff;}.cls-22{opacity:0.5;}.cls-23{fill:#91cce1;}.cls-24{fill:#ebebeb;}.cls-25{fill:#dbdbdb;}.cls-26{fill:#cfcfcf;}.cls-27{fill:#f1f1f1;opacity:0.34;}</style></defs><title>transanuncio</title><g class="cls-1"><g id="Transferir"><g id="Anuncio"><g id="Deposito"><rect id="Deposito-2" data-name="Deposito" class="cls-2" width="605.93" height="125" rx="10"/></g><path class="cls-3" d="M688.71,558h-7.52v-4.43h20.49V558h-7.53v19.07h-5.44Z" transform="translate(-528.61 -520.36)"/><path class="cls-3" d="M711.36,559.41a9.4,9.4,0,0,1,3.68-.67v4.83q-.87-.06-1.17-.06a4.81,4.81,0,0,0-3.53,1.26,5.07,5.07,0,0,0-1.28,3.77v8.53h-5.23V559h5v2.38A5.88,5.88,0,0,1,711.36,559.41Z" transform="translate(-528.61 -520.36)"/><path class="cls-3" d="M731.8,560.74q2.25,2,2.25,6v10.31h-4.9v-2.25c-1,1.68-2.82,2.52-5.51,2.52a8.55,8.55,0,0,1-3.61-.7,5.4,5.4,0,0,1-2.34-1.95,5.13,5.13,0,0,1-.8-2.82,4.69,4.69,0,0,1,1.9-4q1.89-1.45,5.86-1.45h4.16a3.33,3.33,0,0,0-1-2.63,4.56,4.56,0,0,0-3.12-.93,8.89,8.89,0,0,0-2.84.46,7.57,7.57,0,0,0-2.37,1.22l-1.88-3.66a11.53,11.53,0,0,1,3.54-1.61,16,16,0,0,1,4.25-.57C728.15,558.74,730.3,559.4,731.8,560.74Zm-4.47,12.45a3.34,3.34,0,0,0,1.48-1.83v-1.84h-3.59c-2.15,0-3.23.7-3.23,2.11a1.91,1.91,0,0,0,.79,1.6,3.58,3.58,0,0,0,2.17.59A4.5,4.5,0,0,0,727.33,573.19Z" transform="translate(-528.61 -520.36)"/><path class="cls-3" d="M755.19,560.75c1.38,1.35,2.06,3.34,2.06,6v10.34H752v-9.53a4.73,4.73,0,0,0-.94-3.21,3.46,3.46,0,0,0-2.73-1.06,4.14,4.14,0,0,0-3.15,1.23,5,5,0,0,0-1.18,3.64v8.93h-5.24V559h5v2.11a6.85,6.85,0,0,1,2.58-1.76,9.1,9.1,0,0,1,3.4-.62A7.46,7.46,0,0,1,755.19,560.75Z" transform="translate(-528.61 -520.36)"/><path class="cls-3" d="M763.67,576.79a11.44,11.44,0,0,1-3.43-1.4l1.75-3.76a10.62,10.62,0,0,0,2.92,1.26,12,12,0,0,0,3.36.49c2.21,0,3.32-.55,3.32-1.65a1.16,1.16,0,0,0-.9-1.1,13.3,13.3,0,0,0-2.79-.58,26.33,26.33,0,0,1-3.66-.77,5.63,5.63,0,0,1-2.5-1.54,4.38,4.38,0,0,1-1.06-3.16,5,5,0,0,1,1-3,6.36,6.36,0,0,1,2.89-2.06,12.16,12.16,0,0,1,4.48-.74,17.51,17.51,0,0,1,3.81.42,10.42,10.42,0,0,1,3.14,1.16L774.25,564A10.5,10.5,0,0,0,769,562.7a5.34,5.34,0,0,0-2.52.47,1.38,1.38,0,0,0-.84,1.21,1.19,1.19,0,0,0,.91,1.17,15.33,15.33,0,0,0,2.89.64,31.36,31.36,0,0,1,3.62.79,5.5,5.5,0,0,1,2.46,1.53,4.36,4.36,0,0,1,1,3.09,4.8,4.8,0,0,1-1,3,6.42,6.42,0,0,1-2.94,2,13.11,13.11,0,0,1-4.58.72A17.51,17.51,0,0,1,763.67,576.79Z" transform="translate(-528.61 -520.36)"/><path class="cls-3" d="M785.56,559.41h4.64v4h-4.5v13.63h-5.24V563.44h-2.79v-4h2.79v-.81a6.59,6.59,0,0,1,1.83-4.9,7,7,0,0,1,5.15-1.81,9.55,9.55,0,0,1,2.24.25,5.58,5.58,0,0,1,1.76.72l-1.38,3.8A3.54,3.54,0,0,0,788,556c-1.59,0-2.39.87-2.39,2.62Zm10.21-3.76a2.84,2.84,0,0,1,0-4.17,3.33,3.33,0,0,1,2.35-.84,3.39,3.39,0,0,1,2.35.81,2.57,2.57,0,0,1,.91,2,2.83,2.83,0,0,1-.91,2.17,3.29,3.29,0,0,1-2.35.86A3.33,3.33,0,0,1,795.77,555.65ZM795.5,559h5.24v18.06H795.5Z" transform="translate(-528.61 -520.36)"/><path class="cls-3" d="M813.15,559.41a9.37,9.37,0,0,1,3.68-.67v4.83c-.59,0-1-.06-1.18-.06a4.78,4.78,0,0,0-3.52,1.26,5,5,0,0,0-1.28,3.77v8.53h-5.24V559h5v2.38A5.91,5.91,0,0,1,813.15,559.41Z" transform="translate(-528.61 -520.36)"/><path class="cls-3" d="M833.58,560.74q2.25,2,2.25,6v10.31h-4.9v-2.25q-1.47,2.52-5.51,2.52a8.58,8.58,0,0,1-3.61-.7,5.37,5.37,0,0,1-2.33-1.95,5.06,5.06,0,0,1-.81-2.82,4.71,4.71,0,0,1,1.9-4q1.9-1.45,5.86-1.45h4.17a3.31,3.31,0,0,0-1.05-2.63,4.54,4.54,0,0,0-3.12-.93,8.94,8.94,0,0,0-2.84.46,7.51,7.51,0,0,0-2.36,1.22l-1.88-3.66a11.32,11.32,0,0,1,3.54-1.61,15.9,15.9,0,0,1,4.25-.57C829.94,558.74,832.08,559.4,833.58,560.74Zm-4.46,12.45a3.43,3.43,0,0,0,1.48-1.83v-1.84H827c-2.15,0-3.22.7-3.22,2.11a1.88,1.88,0,0,0,.79,1.6,3.55,3.55,0,0,0,2.16.59A4.54,4.54,0,0,0,829.12,573.19Z" transform="translate(-528.61 -520.36)"/><path class="cls-3" d="M878,552.16v24.91h-5V575a6.91,6.91,0,0,1-5.65,2.35,9.35,9.35,0,0,1-4.61-1.14,8.13,8.13,0,0,1-3.24-3.26,10.76,10.76,0,0,1,0-9.8,8.13,8.13,0,0,1,3.24-3.26,9.35,9.35,0,0,1,4.61-1.14,6.86,6.86,0,0,1,5.41,2.18v-8.76Zm-6.45,19.52a5.71,5.71,0,0,0,0-7.28,4.7,4.7,0,0,0-6.61,0,5.71,5.71,0,0,0,0,7.28,4.7,4.7,0,0,0,6.61,0Z" transform="translate(-528.61 -520.36)"/><path class="cls-3" d="M883.08,555.65a2.87,2.87,0,0,1,0-4.17,3.33,3.33,0,0,1,2.35-.84,3.37,3.37,0,0,1,2.35.81,2.57,2.57,0,0,1,.91,2,2.83,2.83,0,0,1-.91,2.17,3.27,3.27,0,0,1-2.35.86A3.33,3.33,0,0,1,883.08,555.65Zm-.27,3.36h5.24v18.06h-5.24Z" transform="translate(-528.61 -520.36)"/><path class="cls-3" d="M909.33,560.75q2.05,2,2.06,6v10.34h-5.24v-9.53a4.68,4.68,0,0,0-.94-3.21,3.42,3.42,0,0,0-2.72-1.06,4.14,4.14,0,0,0-3.15,1.23,5,5,0,0,0-1.18,3.64v8.93h-5.24V559h5v2.11a6.85,6.85,0,0,1,2.58-1.76,9.09,9.09,0,0,1,3.39-.62A7.46,7.46,0,0,1,909.33,560.75Z" transform="translate(-528.61 -520.36)"/><path class="cls-3" d="M932.53,560.75q2.07,2,2.07,6v10.34h-5.24v-9.53a4.73,4.73,0,0,0-.94-3.21,3.45,3.45,0,0,0-2.72-1.06,4.16,4.16,0,0,0-3.16,1.23,5.07,5.07,0,0,0-1.17,3.64v8.93h-5.24V552.16h5.24v8.73a6.88,6.88,0,0,1,2.51-1.6,9.13,9.13,0,0,1,3.23-.55A7.44,7.44,0,0,1,932.53,560.75Z" transform="translate(-528.61 -520.36)"/><path class="cls-3" d="M957.13,569.52H943.46a4.26,4.26,0,0,0,1.75,2.65,5.78,5.78,0,0,0,3.42,1,7,7,0,0,0,2.51-.42,6.06,6.06,0,0,0,2-1.32l2.78,3q-2.55,2.93-7.45,2.92a11.74,11.74,0,0,1-5.41-1.19,8.68,8.68,0,0,1-3.62-3.31,9,9,0,0,1-1.28-4.8,9.26,9.26,0,0,1,1.26-4.79,8.77,8.77,0,0,1,3.46-3.32,10.72,10.72,0,0,1,9.72,0,8.29,8.29,0,0,1,3.37,3.27,9.79,9.79,0,0,1,1.23,5C957.23,568.17,957.2,568.64,957.13,569.52Zm-12.26-5.81a4.32,4.32,0,0,0-1.48,2.75h8.9a4.39,4.39,0,0,0-1.47-2.74,4.46,4.46,0,0,0-3-1A4.53,4.53,0,0,0,944.87,563.71Z" transform="translate(-528.61 -520.36)"/><path class="cls-3" d="M961,555.65a2.84,2.84,0,0,1,0-4.17,3.33,3.33,0,0,1,2.35-.84,3.39,3.39,0,0,1,2.35.81,2.57,2.57,0,0,1,.91,2,2.83,2.83,0,0,1-.91,2.17,3.29,3.29,0,0,1-2.35.86A3.33,3.33,0,0,1,961,555.65Zm-.27,3.36H966v18.06h-5.24Z" transform="translate(-528.61 -520.36)"/><path class="cls-3" d="M978.37,559.41a9.37,9.37,0,0,1,3.68-.67v4.83c-.59,0-1-.06-1.18-.06a4.82,4.82,0,0,0-3.53,1.26,5.07,5.07,0,0,0-1.27,3.77v8.53h-5.24V559h5v2.38A5.91,5.91,0,0,1,978.37,559.41Z" transform="translate(-528.61 -520.36)"/><path class="cls-3" d="M988.48,576.15a8.92,8.92,0,0,1-3.55-3.31,9.71,9.71,0,0,1,0-9.6,8.92,8.92,0,0,1,3.55-3.31,10.77,10.77,0,0,1,5.12-1.19,10.66,10.66,0,0,1,5.1,1.19,8.87,8.87,0,0,1,3.53,3.31,9.64,9.64,0,0,1,0,9.6,8.87,8.87,0,0,1-3.53,3.31,10.66,10.66,0,0,1-5.1,1.19A10.77,10.77,0,0,1,988.48,576.15Zm8.43-4.47a5.78,5.78,0,0,0,0-7.28A4.37,4.37,0,0,0,993.6,563a4.43,4.43,0,0,0-3.33,1.36,5.71,5.71,0,0,0,0,7.28A4.43,4.43,0,0,0,993.6,573,4.37,4.37,0,0,0,996.91,571.68Z" transform="translate(-528.61 -520.36)"/><path class="cls-3" d="M1018.18,576.79a11.48,11.48,0,0,1-3.42-1.4l1.74-3.76a10.75,10.75,0,0,0,2.92,1.26,12.09,12.09,0,0,0,3.36.49q3.33,0,3.33-1.65a1.17,1.17,0,0,0-.91-1.1,13.16,13.16,0,0,0-2.79-.58,26.33,26.33,0,0,1-3.66-.77,5.68,5.68,0,0,1-2.5-1.54,4.38,4.38,0,0,1-1.06-3.16,5,5,0,0,1,1-3,6.41,6.41,0,0,1,2.89-2.06,12.16,12.16,0,0,1,4.48-.74,17.67,17.67,0,0,1,3.82.42,10.35,10.35,0,0,1,3.13,1.16l-1.74,3.72a10.5,10.5,0,0,0-5.21-1.34,5.27,5.27,0,0,0-2.51.47,1.38,1.38,0,0,0-.84,1.21,1.19,1.19,0,0,0,.9,1.17,15.53,15.53,0,0,0,2.89.64,31.59,31.59,0,0,1,3.63.79,5.47,5.47,0,0,1,2.45,1.53,4.36,4.36,0,0,1,1,3.09,4.8,4.8,0,0,1-1,3,6.42,6.42,0,0,1-2.94,2,13.07,13.07,0,0,1-4.58.72A17.51,17.51,0,0,1,1018.18,576.79Z" transform="translate(-528.61 -520.36)"/><path class="cls-3" d="M1051.93,569.52h-13.67a4.26,4.26,0,0,0,1.75,2.65,5.78,5.78,0,0,0,3.42,1,7,7,0,0,0,2.51-.42,6.06,6.06,0,0,0,2-1.32l2.78,3q-2.55,2.93-7.45,2.92a11.74,11.74,0,0,1-5.41-1.19,8.74,8.74,0,0,1-3.62-3.31A9.12,9.12,0,0,1,1033,568a9.26,9.26,0,0,1,1.26-4.79,8.77,8.77,0,0,1,3.46-3.32,10.72,10.72,0,0,1,9.72,0,8.29,8.29,0,0,1,3.37,3.27,9.79,9.79,0,0,1,1.23,5C1052,568.17,1052,568.64,1051.93,569.52Zm-12.26-5.81a4.26,4.26,0,0,0-1.47,2.75h8.89a4.34,4.34,0,0,0-1.47-2.74,4.44,4.44,0,0,0-3-1A4.53,4.53,0,0,0,1039.67,563.71Z" transform="translate(-528.61 -520.36)"/><path class="cls-3" d="M1084.05,560.74q2,2,2,6v10.34h-5.24v-9.53a4.9,4.9,0,0,0-.89-3.21,3.12,3.12,0,0,0-2.54-1.06,3.75,3.75,0,0,0-2.92,1.19,5.19,5.19,0,0,0-1.07,3.55v9.06h-5.24v-9.53q0-4.27-3.43-4.27a3.7,3.7,0,0,0-2.88,1.19,5.15,5.15,0,0,0-1.08,3.55v9.06h-5.24V559h5v2.08a6.66,6.66,0,0,1,2.47-1.75,8.33,8.33,0,0,1,3.2-.6,7.81,7.81,0,0,1,3.46.75,6.23,6.23,0,0,1,2.49,2.2,7.38,7.38,0,0,1,2.8-2.18,8.93,8.93,0,0,1,3.71-.77A7.25,7.25,0,0,1,1084.05,560.74Z" transform="translate(-528.61 -520.36)"/><path class="cls-3" d="M701.81,599.3v24.59h-5.24v-8.43a6.89,6.89,0,0,1-5.41,2.18,9.35,9.35,0,0,1-4.61-1.14,8.13,8.13,0,0,1-3.24-3.26,10.78,10.78,0,0,1,0-9.81,8.11,8.11,0,0,1,3.24-3.25,9.35,9.35,0,0,1,4.61-1.14,6.91,6.91,0,0,1,5.65,2.35V599.3ZM695.36,612a5.73,5.73,0,0,0,0-7.29,4.7,4.7,0,0,0-6.61,0,5.73,5.73,0,0,0,0,7.29,4.7,4.7,0,0,0,6.61,0Z" transform="translate(-528.61 -520.36)"/><path class="cls-3" d="M724.85,599.3v18.07h-5v-2.15a7,7,0,0,1-2.49,1.8,7.86,7.86,0,0,1-3.12.62,7.67,7.67,0,0,1-5.64-2q-2.08-2-2.09-6.08V599.3h5.24v9.44q0,4.37,3.66,4.37a4,4,0,0,0,3-1.23,5.17,5.17,0,0,0,1.14-3.64V599.3Z" transform="translate(-528.61 -520.36)"/><path class="cls-3" d="M743.45,601q2.25,2,2.25,6v10.31h-4.9v-2.25c-1,1.68-2.82,2.52-5.51,2.52a8.55,8.55,0,0,1-3.61-.71,5.3,5.3,0,0,1-2.33-1.94,5.06,5.06,0,0,1-.81-2.82,4.72,4.72,0,0,1,1.9-4c1.26-1,3.22-1.44,5.86-1.44h4.16a3.37,3.37,0,0,0-1-2.64,4.59,4.59,0,0,0-3.12-.92,9.17,9.17,0,0,0-2.84.45,7.58,7.58,0,0,0-2.37,1.23l-1.88-3.66a11.3,11.3,0,0,1,3.54-1.61A16,16,0,0,1,737,599Q741.2,599,743.45,601ZM739,613.49a3.34,3.34,0,0,0,1.48-1.83v-1.84h-3.59c-2.15,0-3.22.7-3.22,2.11a1.91,1.91,0,0,0,.78,1.6,3.58,3.58,0,0,0,2.17.58A4.47,4.47,0,0,0,739,613.49Z" transform="translate(-528.61 -520.36)"/><path class="cls-3" d="M750.44,592.45h5.23v24.92h-5.23Z" transform="translate(-528.61 -520.36)"/><path class="cls-3" d="M778.88,599.3v24.59h-5.24v-8.43a6.89,6.89,0,0,1-5.41,2.18,9.35,9.35,0,0,1-4.61-1.14,8.13,8.13,0,0,1-3.24-3.26,10.78,10.78,0,0,1,0-9.81,8.11,8.11,0,0,1,3.24-3.25,9.35,9.35,0,0,1,4.61-1.14,6.91,6.91,0,0,1,5.65,2.35V599.3ZM772.43,612a5.73,5.73,0,0,0,0-7.29,4.7,4.7,0,0,0-6.61,0,5.73,5.73,0,0,0,0,7.29,4.7,4.7,0,0,0,6.61,0Z" transform="translate(-528.61 -520.36)"/><path class="cls-3" d="M801.92,599.3v18.07h-5v-2.15a7,7,0,0,1-2.49,1.8,7.86,7.86,0,0,1-3.12.62,7.65,7.65,0,0,1-5.64-2q-2.09-2-2.09-6.08V599.3h5.24v9.44q0,4.37,3.66,4.37a4,4,0,0,0,3-1.23,5.17,5.17,0,0,0,1.14-3.64V599.3Z" transform="translate(-528.61 -520.36)"/><path class="cls-3" d="M824.38,609.82H810.71a4.26,4.26,0,0,0,1.75,2.65,5.79,5.79,0,0,0,3.43,1,6.93,6.93,0,0,0,2.5-.42,6.21,6.21,0,0,0,2-1.32l2.79,3c-1.71,1.95-4.19,2.92-7.46,2.92a11.87,11.87,0,0,1-5.41-1.19,8.8,8.8,0,0,1-3.62-3.31,9.12,9.12,0,0,1-1.28-4.8,9.24,9.24,0,0,1,1.26-4.79,8.77,8.77,0,0,1,3.46-3.32,10.72,10.72,0,0,1,9.72-.05,8.37,8.37,0,0,1,3.38,3.27,9.82,9.82,0,0,1,1.22,4.95C824.48,608.47,824.45,608.94,824.38,609.82ZM812.12,604a4.31,4.31,0,0,0-1.47,2.75h8.9a4.3,4.3,0,0,0-4.44-3.76A4.49,4.49,0,0,0,812.12,604Z" transform="translate(-528.61 -520.36)"/><path class="cls-3" d="M835.51,599.71a9.4,9.4,0,0,1,3.68-.67v4.83c-.58,0-1-.07-1.17-.07a4.81,4.81,0,0,0-3.53,1.26,5.1,5.1,0,0,0-1.28,3.78v8.53H828V599.3h5v2.39A5.83,5.83,0,0,1,835.51,599.71Z" transform="translate(-528.61 -520.36)"/><path class="cls-3" d="M863.6,616.5a5.31,5.31,0,0,1-1.89.85,9.62,9.62,0,0,1-2.37.29,7,7,0,0,1-5-1.65,6.29,6.29,0,0,1-1.76-4.83v-7.42H849.8v-4h2.79v-4.4h5.24v4.4h4.5v4h-4.5v7.35a2.42,2.42,0,0,0,.59,1.76,2.15,2.15,0,0,0,1.66.63,3.34,3.34,0,0,0,2.11-.68Z" transform="translate(-528.61 -520.36)"/><path class="cls-3" d="M880.29,601q2.25,2,2.25,6v10.31h-4.9v-2.25q-1.47,2.52-5.51,2.52a8.58,8.58,0,0,1-3.61-.71,5.35,5.35,0,0,1-2.33-1.94,5.06,5.06,0,0,1-.81-2.82,4.74,4.74,0,0,1,1.9-4q1.9-1.44,5.86-1.44h4.17a3.34,3.34,0,0,0-1-2.64,4.59,4.59,0,0,0-3.12-.92,9.21,9.21,0,0,0-2.84.45,7.53,7.53,0,0,0-2.36,1.23l-1.88-3.66a11.1,11.1,0,0,1,3.54-1.61,15.9,15.9,0,0,1,4.25-.57C876.65,599,878.79,599.7,880.29,601Zm-4.46,12.46a3.43,3.43,0,0,0,1.48-1.83v-1.84h-3.6c-2.15,0-3.22.7-3.22,2.11a1.9,1.9,0,0,0,.79,1.6,3.55,3.55,0,0,0,2.16.58A4.53,4.53,0,0,0,875.83,613.49Z" transform="translate(-528.61 -520.36)"/><path class="cls-3" d="M898.76,617.37l-4-5.54-4.1,5.54H885l7-9.1-6.72-9h5.88l3.83,5.28,3.92-5.28h5.58l-6.72,8.84,7,9.23Z" transform="translate(-528.61 -520.36)"/><path class="cls-3" d="M920.66,601q2.25,2,2.25,6v10.31H918v-2.25c-1,1.68-2.82,2.52-5.51,2.52a8.55,8.55,0,0,1-3.61-.71,5.38,5.38,0,0,1-2.34-1.94,5.13,5.13,0,0,1-.8-2.82,4.72,4.72,0,0,1,1.9-4q1.89-1.44,5.86-1.44h4.16a3.37,3.37,0,0,0-1-2.64,4.61,4.61,0,0,0-3.12-.92,9.17,9.17,0,0,0-2.84.45,7.58,7.58,0,0,0-2.37,1.23l-1.88-3.66a11.3,11.3,0,0,1,3.54-1.61,16,16,0,0,1,4.25-.57Q918.41,599,920.66,601Zm-4.47,12.46a3.34,3.34,0,0,0,1.48-1.83v-1.84h-3.59c-2.15,0-3.23.7-3.23,2.11a1.92,1.92,0,0,0,.79,1.6,3.58,3.58,0,0,0,2.17.58A4.5,4.5,0,0,0,916.19,613.49Z" transform="translate(-528.61 -520.36)"/><path class="cls-3" d="M954.74,609.82H941.08a4.21,4.21,0,0,0,1.74,2.65,5.79,5.79,0,0,0,3.43,1,6.93,6.93,0,0,0,2.5-.42,6.11,6.11,0,0,0,2-1.32l2.79,3q-2.55,2.92-7.46,2.92a11.83,11.83,0,0,1-5.4-1.19,8.77,8.77,0,0,1-3.63-3.31,9.12,9.12,0,0,1-1.28-4.8,9.24,9.24,0,0,1,1.26-4.79,8.84,8.84,0,0,1,3.46-3.32,10.72,10.72,0,0,1,9.72-.05,8.31,8.31,0,0,1,3.38,3.27,9.72,9.72,0,0,1,1.22,4.95C954.84,608.47,954.81,608.94,954.74,609.82ZM942.49,604a4.27,4.27,0,0,0-1.48,2.75h8.9a4.35,4.35,0,0,0-1.48-2.74,4.41,4.41,0,0,0-2.95-1A4.46,4.46,0,0,0,942.49,604Z" transform="translate(-528.61 -520.36)"/><path class="cls-3" d="M984.25,601.05c1.37,1.34,2.06,3.34,2.06,6v10.34h-5.24v-9.54a4.67,4.67,0,0,0-.94-3.2,3.43,3.43,0,0,0-2.72-1.06,4.21,4.21,0,0,0-3.16,1.22,5.11,5.11,0,0,0-1.17,3.65v8.93h-5.24V599.3h5v2.12a7,7,0,0,1,2.59-1.76,8.89,8.89,0,0,1,3.39-.62A7.46,7.46,0,0,1,984.25,601.05Z" transform="translate(-528.61 -520.36)"/><path class="cls-3" d="M1004.78,601q2.25,2,2.25,6v10.31h-4.9v-2.25c-1,1.68-2.82,2.52-5.51,2.52a8.55,8.55,0,0,1-3.61-.71,5.3,5.3,0,0,1-2.33-1.94,5.06,5.06,0,0,1-.81-2.82,4.72,4.72,0,0,1,1.9-4c1.26-1,3.22-1.44,5.86-1.44h4.16a3.37,3.37,0,0,0-1-2.64,4.61,4.61,0,0,0-3.12-.92,9.17,9.17,0,0,0-2.84.45,7.58,7.58,0,0,0-2.37,1.23l-1.88-3.66a11.3,11.3,0,0,1,3.54-1.61,16,16,0,0,1,4.25-.57Q1002.53,599,1004.78,601Zm-4.47,12.46a3.34,3.34,0,0,0,1.48-1.83v-1.84H998.2c-2.15,0-3.23.7-3.23,2.11a1.92,1.92,0,0,0,.79,1.6,3.58,3.58,0,0,0,2.17.58A4.5,4.5,0,0,0,1000.31,613.49Z" transform="translate(-528.61 -520.36)"/><path class="cls-3" d="M1037.67,601.05c1.38,1.34,2.07,3.34,2.07,6v10.34h-5.24v-9.54a4.67,4.67,0,0,0-.94-3.2,3.43,3.43,0,0,0-2.72-1.06,4.21,4.21,0,0,0-3.16,1.22,5.11,5.11,0,0,0-1.17,3.65v8.93h-5.24V592.45h5.24v8.73a7,7,0,0,1,2.52-1.59,9,9,0,0,1,3.22-.55A7.42,7.42,0,0,1,1037.67,601.05Z" transform="translate(-528.61 -520.36)"/><path class="cls-3" d="M1048.15,616.45a8.9,8.9,0,0,1-3.54-3.31,9.64,9.64,0,0,1,0-9.6,8.83,8.83,0,0,1,3.54-3.31,11.59,11.59,0,0,1,10.23,0,8.84,8.84,0,0,1,3.52,3.31,9.64,9.64,0,0,1,0,9.6,8.91,8.91,0,0,1-3.52,3.31,11.59,11.59,0,0,1-10.23,0Zm8.43-4.47a5.79,5.79,0,0,0,0-7.29,4.72,4.72,0,0,0-6.63,0,5.73,5.73,0,0,0,0,7.29,4.72,4.72,0,0,0,6.63,0Z" transform="translate(-528.61 -520.36)"/><path class="cls-3" d="M1074.21,599.71a9.37,9.37,0,0,1,3.68-.67v4.83c-.59,0-1-.07-1.18-.07a4.82,4.82,0,0,0-3.53,1.26,5.1,5.1,0,0,0-1.27,3.78v8.53h-5.24V599.3h5v2.39A5.91,5.91,0,0,1,1074.21,599.71Z" transform="translate(-528.61 -520.36)"/><path class="cls-3" d="M1094.64,601q2.25,2,2.25,6v10.31H1092v-2.25q-1.47,2.52-5.51,2.52a8.55,8.55,0,0,1-3.61-.71,5.35,5.35,0,0,1-2.33-1.94,5.06,5.06,0,0,1-.81-2.82,4.74,4.74,0,0,1,1.9-4q1.9-1.44,5.86-1.44h4.17a3.34,3.34,0,0,0-1.05-2.64,4.59,4.59,0,0,0-3.12-.92,9.21,9.21,0,0,0-2.84.45,7.42,7.42,0,0,0-2.36,1.23l-1.88-3.66a11.1,11.1,0,0,1,3.54-1.61,15.9,15.9,0,0,1,4.25-.57A9.4,9.4,0,0,1,1094.64,601Zm-4.46,12.46a3.43,3.43,0,0,0,1.48-1.83v-1.84h-3.6c-2.15,0-3.22.7-3.22,2.11a1.9,1.9,0,0,0,.79,1.6,3.55,3.55,0,0,0,2.16.58A4.53,4.53,0,0,0,1090.18,613.49Z" transform="translate(-528.61 -520.36)"/><path class="cls-3" d="M1101.78,616.75a2.87,2.87,0,0,1-.92-2.17,2.82,2.82,0,0,1,.9-2.13,3.59,3.59,0,0,1,4.64,0,2.82,2.82,0,0,1,.9,2.13,2.87,2.87,0,0,1-.92,2.17,3.42,3.42,0,0,1-4.6,0Zm-.82-22.89h6.24l-1,15.35H1102Z" transform="translate(-528.61 -520.36)"/><path class="cls-4" d="M673,607.25l-14-17.8a0,0,0,0,0,0,0c-.29-.38-.69-.57-.88-.44h0l-.07-.1c-.17-.23-.42-.34-.55-.25l-.08.07-.8-1-.3-.38.47-.35c.15-.11.14-.38,0-.59l-.57-.78-1-1.4c-.16-.22-.41-.3-.57-.18l-.55.41-1.06-1.33-.78-1a20.9,20.9,0,0,0,2.06-1.93,19.76,19.76,0,0,0,3.78-5.87c.23-.56.44-1.13.62-1.71a20.84,20.84,0,0,0,.54-2.1c.09-.47.16-.95.22-1.44,0-.22,0-.44.07-.66s0-.35,0-.52l0-.58q0-.63,0-1.26a19.63,19.63,0,0,0-.74-4.81c0-.15-.08-.29-.13-.44-.13-.42-.27-.83-.43-1.24a19.72,19.72,0,0,0-1.36-2.86,20.12,20.12,0,0,0-6.11-6.54,20,20,0,0,0-19-1.77,20.22,20.22,0,0,0-4.45,2.67c-.16.12-.31.27-.47.4V538.24H594.19a7.39,7.39,0,0,0-7.36-6.87c-.17,0-.33,0-.5,0s-.33,0-.5,0a7.38,7.38,0,0,0-7.35,6.87H553.24v85.57h22a9.43,9.43,0,0,0,0,5.08v0l.06.14c.07.23.15.47.24.7l.11.29c.13.3.28.59.44.88l0,.08h0a9.13,9.13,0,0,0,2.14,2.54v0l.11.08a9.82,9.82,0,0,0,.93.66l0,0a10.09,10.09,0,0,0,1,.54l.26.11c.3.13.6.24.91.34l.2.06a8.59,8.59,0,0,0,1.12.24l.08,0h0a9.37,9.37,0,0,0,6.05-1.14c.26-.15.52-.32.76-.49s.55-.27.83-.42a9.47,9.47,0,0,0,1.45-1,9.35,9.35,0,0,0,3.07-5.22,9.46,9.46,0,0,0,0-3.52h15l6.58,4.29v4.15a2.57,2.57,0,0,0,2.58,2.57h23.62a2.57,2.57,0,0,0,2.58-2.57V604.77a2.57,2.57,0,0,0-2.58-2.58h-.43v-1a2.23,2.23,0,0,0-2.14-2.23v-7.65l-.89-.94-.36.37-.35-.37-.86.91-.86-.91-.36.37-.35-.37-.53.56-3.07-5.63.33.13h0l.21.07.2.07.44.14.08,0,.24.06a9.58,9.58,0,0,0,1.64,1.14,9,9,0,0,0,.83.4c.25.17.5.33.77.48a9.89,9.89,0,0,0,1.65.71,9.45,9.45,0,0,0,6-.1,9.56,9.56,0,0,0,3.36-2.08,9.44,9.44,0,0,0,1-1.16l1,1.46.18.25-.56.42c-.15.11-.14.38,0,.59l1.62,2.18c.16.22.42.3.56.18l.47-.34h0l.09.11.19.28.74,1.06-.09.06c-.12.09-.09.36.08.59l.07.09h0c-.18.15-.1.59.18,1l1,1.37,12.26,17c.4.55.88.86,1.1.69l1.66-1.23,1.93-1.45,1.34-1C673.5,608.33,673.36,607.76,673,607.25Zm-84.54-70.74a2.56,2.56,0,0,1-.71,1.73H585a2.51,2.51,0,0,1-.71-1.73,2.11,2.11,0,1,1,4.14,0Zm65.39,21.81h0c.05.08.1.16.14.24.18.32.35.64.51,1a15.71,15.71,0,0,1,1.24,3.59,16.42,16.42,0,0,1-.46,8.76c-.11.32-.23.64-.35,1h0c0,.09-.07.19-.11.28h0c-.06.13-.12.27-.17.4-.15.32-.31.64-.48,1h0a12.77,12.77,0,0,0-5.85-11.81c-.24-.16-.49-.3-.74-.44a11.37,11.37,0,0,0-1.11-.54c-.34-.23-.7-.45-1.07-.66h0l-.08,0c-.41-.21-.82-.41-1.24-.58l-.35-.13c-.34-.12-.69-.24-1-.33l-.17-.06h0a12.79,12.79,0,0,0-12.59,3.66,12.38,12.38,0,0,1,3.47-8.14,18,18,0,0,1,7.84-4.23,11,11,0,0,1-2.3-.23,15.44,15.44,0,0,0-2.45.17,15.25,15.25,0,0,0-4.8,1.59,13,13,0,0,0-4.78,4.52v-.89l.18-.23,0,0q.4-.48.84-.93a16.41,16.41,0,0,1,12.3-4.94h.42A16.45,16.45,0,0,1,653.8,558.32Zm.55-.2.12.21.11.21c0,.08.09.16.13.24a17.34,17.34,0,0,0-2.54-3.58c.09.09.19.17.28.27A17.76,17.76,0,0,1,654.35,558.12Zm-2.23-3a17.78,17.78,0,0,0-3.3-2.81A17.1,17.1,0,0,1,652.12,555.15Z" transform="translate(-528.61 -520.36)"/><rect class="cls-5" x="27.43" y="16.49" width="69.38" height="85.57"/><rect class="cls-6" x="23.24" y="16.49" width="69.38" height="85.57"/><rect class="cls-7" x="28.24" y="20.68" width="61" height="77.19"/><rect class="cls-8" x="26.02" y="20.68" width="61" height="77.19"/><path class="cls-9" d="M598.39,537.53h-5.54v-.15a7.41,7.41,0,0,0-14.81,0v.15h-5.19a5.74,5.74,0,0,0-5.73,5.49h37A5.74,5.74,0,0,0,598.39,537.53Zm-15.5-2.4a2.57,2.57,0,1,1,3.45,2.4h-1.78A2.56,2.56,0,0,1,582.89,535.13Z" transform="translate(-528.61 -520.36)"/><path class="cls-10" d="M597.4,537.53h-5.54v-.15a7.41,7.41,0,0,0-14.82,0v.15h-5.18a5.74,5.74,0,0,0-5.74,5.49h37A5.74,5.74,0,0,0,597.4,537.53Zm-15.51-2.4a2.57,2.57,0,1,1,3.45,2.4h-1.78A2.56,2.56,0,0,1,581.89,535.13Z" transform="translate(-528.61 -520.36)"/><path class="cls-11" d="M572.37,547.19h7.25v2.22h-2.43v7.12h-2.47v-7.12h-2.35Z" transform="translate(-528.61 -520.36)"/><path class="cls-11" d="M581.64,547.19h2.92l2.83,9.34h-2.54l-.54-1.63h-2.52l-.53,1.63h-2.54Zm2.17,5.6-.68-2.5-.78,2.5Z" transform="translate(-528.61 -520.36)"/><path class="cls-11" d="M590.54,547.19l1.34,2.59,1.34-2.59H596l-2.84,4.71,2.78,4.63h-2.74l-1.28-2.5-1.3,2.5h-2.75l2.8-4.63-2.83-4.71Z" transform="translate(-528.61 -520.36)"/><path class="cls-11" d="M560.79,559.76H565c1.66,0,2.86.68,2.86,3s-.72,2.56-1.38,2.81l1.61,3.54h-2.82L564,565.8l-.76-.18v3.49h-2.48Zm3.85,4c.66,0,.69-.33.69-1s-.12-.89-.69-.89h-1.36v1.89Z" transform="translate(-528.61 -520.36)"/><path class="cls-11" d="M568.64,561.93c0-1.92,1.48-2.17,2.38-2.17a40,40,0,0,1,4.17.21v2.08h-3.41c-.66,0-.66.37-.66.71v.57l3.43.14v2l-3.43.12v.56c0,.67.42.66.79.66h3.28v2.07c-1.32.18-4.05.21-4.05.21-.82,0-2.5-.14-2.5-2.09Z" transform="translate(-528.61 -520.36)"/><path class="cls-11" d="M575.63,559.76h7.25V562h-2.43v7.13H578V562h-2.35Z" transform="translate(-528.61 -520.36)"/><path class="cls-11" d="M583.69,559.76h2.48V565c0,1.2,0,1.93,1.24,1.93s1.16-.78,1.16-1.93v-5.26h2.49V565c0,4.12-2.1,4.15-3.65,4.15-1.73,0-3.72.1-3.72-4.15Z" transform="translate(-528.61 -520.36)"/><path class="cls-11" d="M592.05,559.76h4.17c1.66,0,2.86.68,2.86,3s-.73,2.56-1.38,2.81l1.61,3.54h-2.82l-1.2-3.31-.77-.18v3.49h-2.47Zm3.85,4c.65,0,.69-.33.69-1s-.13-.89-.69-.89h-1.36v1.89Z" transform="translate(-528.61 -520.36)"/><path class="cls-11" d="M600,559.76h2.5l2.67,4.78v-4.78h2.48v9.35h-2.48l-2.68-4.65v4.65H600Z" transform="translate(-528.61 -520.36)"/><rect class="cls-12" x="29.84" y="55.18" width="2.73" height="38.64"/><rect class="cls-12" x="45.65" y="54.35" width="2.72" height="38.65"/><rect class="cls-12" x="63.92" y="54.35" width="2.73" height="38.65"/><rect class="cls-12" x="80.52" y="54.35" width="2.73" height="38.65"/><rect class="cls-12" x="29.84" y="53.29" width="53.41" height="2.73"/><rect class="cls-7" x="34.45" y="58.55" width="9.17" height="5.68"/><rect class="cls-7" x="51.43" y="58.55" width="9.17" height="5.68"/><rect class="cls-7" x="51.43" y="70.84" width="9.17" height="5.68"/><rect class="cls-12" x="29.84" y="65.89" width="53.41" height="2.73"/><rect class="cls-12" x="29.84" y="78.5" width="53.41" height="2.73"/><rect class="cls-12" x="30.94" y="91.1" width="52.31" height="2.73"/><polygon class="cls-13" points="115.23 86.67 113.88 87.39 92.06 47.23 93.39 46.52 115.23 86.67"/><rect class="cls-14" x="608.92" y="570.57" width="24.13" height="45.71" transform="translate(-736.59 -151.87) rotate(-28.52)"/><path class="cls-15" d="M606.3,581.13l12.34-6.71,17,31.31-12.33,6.7-17-31.3Zm-4.57-1.35L622,617l18.26-9.92L620,569.85l-18.26,9.93Z" transform="translate(-528.61 -520.36)"/><path class="cls-15" d="M618.59,610.81a7.05,7.05,0,0,1,9.57,2.82L622,617Z" transform="translate(-528.61 -520.36)"/><path class="cls-15" d="M605.1,586a7.07,7.07,0,0,0,2.84-9.57l-6.21,3.37Z" transform="translate(-528.61 -520.36)"/><path class="cls-15" d="M636.85,600.89a7.05,7.05,0,0,0-2.83,9.56l6.2-3.37Z" transform="translate(-528.61 -520.36)"/><path class="cls-15" d="M623.36,576.05a7.06,7.06,0,0,1-9.57-2.83l6.2-3.37Z" transform="translate(-528.61 -520.36)"/><path class="cls-15" d="M625.56,601.52a3.34,3.34,0,1,0,4.52,1.34A3.33,3.33,0,0,0,625.56,601.52Z" transform="translate(-528.61 -520.36)"/><path class="cls-15" d="M618,588a6.23,6.23,0,1,0,8.45,2.49A6.23,6.23,0,0,0,618,588Z" transform="translate(-528.61 -520.36)"/><path class="cls-15" d="M614.06,580.37a3.34,3.34,0,1,0,4.52,1.34A3.33,3.33,0,0,0,614.06,580.37Z" transform="translate(-528.61 -520.36)"/><path class="cls-16" d="M620.56,596.63a1.88,1.88,0,0,1-2.81-.87l-.8.44-.48-.89.81-.45a7.62,7.62,0,0,1-.61-1.77l1.2-.65c.25.59.76,1.62,1,2.08s.48.79,1,.5l.22-.12c.41-.22.48-.48.21-1l-.41-.75a1.89,1.89,0,0,1,1-2.7l.38-.21a1.92,1.92,0,0,1,3,.82l.78-.43.48.9-.78.42a5.56,5.56,0,0,1,.61,1.8l-1.19.64c-.17-.39-.61-1.35-1.09-2.21-.21-.4-.47-.67-.88-.44l-.27.14c-.34.19-.48.4-.24.86l.4.72a1.93,1.93,0,0,1-.91,2.83Z" transform="translate(-528.61 -520.36)"/><polygon class="cls-13" points="105.81 88.21 104.97 89.49 66.68 64.5 67.53 63.25 105.81 88.21"/><rect class="cls-14" x="595.78" y="584.6" width="24.13" height="45.71" transform="translate(-761.7 264.05) rotate(-56.86)"/><path class="cls-15" d="M589.08,603.6l7.68-11.76,29.84,19.48-7.68,11.76L589.08,603.6Zm-4.66,1,35.47,23.15,11.36-17.4-35.47-23.16-11.36,17.41Z" transform="translate(-528.61 -520.36)"/><path class="cls-15" d="M614,623.89a7,7,0,0,1,9.75-2.07l-3.86,5.92Z" transform="translate(-528.61 -520.36)"/><path class="cls-15" d="M590.33,608.44a7.06,7.06,0,0,0-2.05-9.77l-3.86,5.92Z" transform="translate(-528.61 -520.36)"/><path class="cls-15" d="M625.35,606.49a7,7,0,0,0,2,9.75l3.85-5.9Z" transform="translate(-528.61 -520.36)"/><path class="cls-15" d="M601.68,591a7.06,7.06,0,0,1-9.76,2.05l3.86-5.91Z" transform="translate(-528.61 -520.36)"/><path class="cls-15" d="M615.71,612.41a3.34,3.34,0,1,0,4.62-1A3.34,3.34,0,0,0,615.71,612.41Z" transform="translate(-528.61 -520.36)"/><path class="cls-15" d="M602.62,604.05a6.23,6.23,0,1,0,8.61-1.81A6.22,6.22,0,0,0,602.62,604.05Z" transform="translate(-528.61 -520.36)"/><path class="cls-15" d="M595.55,599.25a3.34,3.34,0,1,0,4.62-1A3.34,3.34,0,0,0,595.55,599.25Z" transform="translate(-528.61 -520.36)"/><path class="cls-16" d="M609,610.47a1.88,1.88,0,0,1-2.89.57l-.5.77-.85-.56.51-.77a7.27,7.27,0,0,1-1.38-1.28l.75-1.14c.5.41,1.43,1.07,1.87,1.36s.79.46,1.12,0l.14-.22c.25-.38.19-.65-.28-.95l-.71-.47a1.89,1.89,0,0,1-.43-2.84l.24-.37a1.93,1.93,0,0,1,3-.69l.48-.73.85.55-.48.74a5.41,5.41,0,0,1,1.38,1.3l-.74,1.13c-.33-.26-1.17-.9-2-1.44-.38-.24-.74-.35-1,0l-.17.26c-.21.32-.23.58.2.87l.69.45a1.92,1.92,0,0,1,.55,2.91Z" transform="translate(-528.61 -520.36)"/><path class="cls-9" d="M632.3,573.66A9.42,9.42,0,0,0,636,586.44l9-16.51A9.41,9.41,0,0,0,632.3,573.66Z" transform="translate(-528.61 -520.36)"/><path class="cls-9" d="M648.82,582.71a9.57,9.57,0,0,1-1.74,2.27,9.43,9.43,0,0,1-9.4,2.17,9.45,9.45,0,0,1-1.64-.71l9-16.51c.19.1.38.21.55.32A9.42,9.42,0,0,1,648.82,582.71Z" transform="translate(-528.61 -520.36)"/><path class="cls-10" d="M643.48,569.05a9.41,9.41,0,1,0,3.74,12.78A9.41,9.41,0,0,0,643.48,569.05Z" transform="translate(-528.61 -520.36)"/><path class="cls-9" d="M632.09,573.54a7.83,7.83,0,0,0,3.1,10.63l7.53-13.73A7.83,7.83,0,0,0,632.09,573.54Z" transform="translate(-528.61 -520.36)"/><path class="cls-17" d="M642.72,570.44l-7.53,13.73a7.83,7.83,0,1,0,7.53-13.73Z" transform="translate(-528.61 -520.36)"/><path class="cls-10" d="M635.77,583.13a6.64,6.64,0,1,1,9-2.63A6.65,6.65,0,0,1,635.77,583.13ZM642,571.74a6.35,6.35,0,1,0,2.52,8.62A6.36,6.36,0,0,0,642,571.74Z" transform="translate(-528.61 -520.36)"/><path class="cls-10" d="M637.44,574.09a2.07,2.07,0,0,1,3.12-.84l.49-.89,1,.55-.49.88a8,8,0,0,1,1.6,1.29l-.72,1.3c-.59-.39-1.66-1-2.16-1.33s-.91-.44-1.22.12l-.14.25c-.25.44-.16.72.38,1l.82.46a2.07,2.07,0,0,1,.69,3.08l-.23.42c-1,1.74-2.22,1.56-3.23,1l-.47.84-1-.55.47-.84a6.12,6.12,0,0,1-1.63-1.31l.72-1.3c.4.26,1.36.89,2.31,1.41.43.25.84.33,1.08-.11l.17-.29c.2-.37.21-.66-.29-.93l-.79-.44a2.13,2.13,0,0,1-.83-3.16Z" transform="translate(-528.61 -520.36)"/><g class="cls-18"><path class="cls-10" d="M641.36,568.2,632,570.92a8.89,8.89,0,0,0-1.33,1.85L643.46,569A9.4,9.4,0,0,0,641.36,568.2Z" transform="translate(-528.61 -520.36)"/><path class="cls-10" d="M646.08,571.14l-16.44,4.8a9.49,9.49,0,0,0,.66,5.06l18-5.24A9.55,9.55,0,0,0,646.08,571.14Z" transform="translate(-528.61 -520.36)"/></g><path class="cls-9" d="M628.76,565.92a12.8,12.8,0,0,0,5.07,17.37l12.29-22.44A12.79,12.79,0,0,0,628.76,565.92Z" transform="translate(-528.61 -520.36)"/><path class="cls-9" d="M651.2,578.22a13.18,13.18,0,0,1-2.36,3.08,12.86,12.86,0,0,1-12.78,3,13.16,13.16,0,0,1-2.23-1l12.29-22.44c.26.14.5.29.74.44A12.79,12.79,0,0,1,651.2,578.22Z" transform="translate(-528.61 -520.36)"/><path class="cls-10" d="M644,559.66A12.79,12.79,0,1,0,649,577,12.79,12.79,0,0,0,644,559.66Z" transform="translate(-528.61 -520.36)"/><path class="cls-9" d="M628.47,565.77a10.64,10.64,0,0,0,4.22,14.44l10.22-18.66A10.62,10.62,0,0,0,628.47,565.77Z" transform="translate(-528.61 -520.36)"/><path class="cls-17" d="M642.91,561.55l-10.22,18.66a10.64,10.64,0,0,0,10.22-18.66Z" transform="translate(-528.61 -520.36)"/><path class="cls-10" d="M633.46,578.79a9,9,0,1,1,12.26-3.58A9,9,0,0,1,633.46,578.79ZM642,563.31A8.63,8.63,0,1,0,645.37,575,8.65,8.65,0,0,0,642,563.31Z" transform="translate(-528.61 -520.36)"/><path class="cls-10" d="M635.74,566.51c1.1-2,2.68-2,4.24-1.15l.66-1.2,1.32.74-.67,1.2a10.65,10.65,0,0,1,2.18,1.75l-1,1.77c-.8-.53-2.25-1.42-2.94-1.8s-1.23-.61-1.65.15l-.19.35c-.34.6-.22,1,.52,1.38l1.11.62c2.06,1.14,1.56,3.06.94,4.18l-.32.58c-1.31,2.36-3,2.12-4.39,1.36l-.63,1.13-1.33-.73.64-1.15a8.59,8.59,0,0,1-2.2-1.78l1-1.76c.54.35,1.85,1.2,3.14,1.92.59.32,1.14.44,1.47-.16l.22-.4c.28-.5.29-.88-.39-1.26l-1.08-.59a2.88,2.88,0,0,1-1.12-4.29Z" transform="translate(-528.61 -520.36)"/><g class="cls-18"><path class="cls-10" d="M641.06,558.51l-12.67,3.7a12.75,12.75,0,0,0-1.8,2.5l17.33-5.07A12.43,12.43,0,0,0,641.06,558.51Z" transform="translate(-528.61 -520.36)"/><path class="cls-10" d="M647.47,562.5,625.14,569a12.82,12.82,0,0,0,.9,6.88l24.38-7.13A12.83,12.83,0,0,0,647.47,562.5Z" transform="translate(-528.61 -520.36)"/></g><path class="cls-9" d="M576.31,628.72a9.41,9.41,0,0,0,12.86,3.47l-9.38-16.32A9.41,9.41,0,0,0,576.31,628.72Z" transform="translate(-528.61 -520.36)"/><path class="cls-9" d="M592.65,619.34a10,10,0,0,1,1,2.66,9.74,9.74,0,0,1,0,4,9.37,9.37,0,0,1-4.53,6.24l-9.38-16.32c.19-.11.37-.21.56-.3A9.42,9.42,0,0,1,592.65,619.34Z" transform="translate(-528.61 -520.36)"/><path class="cls-10" d="M578.2,616.78a9.41,9.41,0,1,0,12.86,3.47A9.42,9.42,0,0,0,578.2,616.78Z" transform="translate(-528.61 -520.36)"/><path class="cls-9" d="M576.1,628.84a7.84,7.84,0,0,0,10.69,2.89L579,618.15A7.83,7.83,0,0,0,576.1,628.84Z" transform="translate(-528.61 -520.36)"/><path class="cls-17" d="M579,618.15l7.8,13.58a7.83,7.83,0,0,0-7.8-13.58Z" transform="translate(-528.61 -520.36)"/><path class="cls-10" d="M586.2,630.7a6.64,6.64,0,1,1,2.46-9.07A6.65,6.65,0,0,1,586.2,630.7Zm-6.47-11.27a6.35,6.35,0,1,0,8.67,2.35A6.35,6.35,0,0,0,579.73,619.43Z" transform="translate(-528.61 -520.36)"/><path class="cls-10" d="M579.36,624.56a2.08,2.08,0,0,1,.9-3.11l-.5-.87,1-.55.5.88a8.38,8.38,0,0,1,1.94-.7l.74,1.3c-.65.3-1.76.87-2.27,1.15s-.85.54-.53,1.1l.14.26c.25.43.53.51,1.07.2l.81-.46a2.08,2.08,0,0,1,3,1l.24.43c1,1.73.18,2.7-.83,3.27l.47.84-1,.55-.48-.85a5.74,5.74,0,0,1-2,.7l-.73-1.28c.42-.21,1.46-.7,2.41-1.24.43-.24.71-.54.47-1l-.17-.3c-.21-.36-.45-.51-.94-.23l-.79.45a2.11,2.11,0,0,1-3.12-.94Z" transform="translate(-528.61 -520.36)"/><g class="cls-18"><path class="cls-10" d="M576.37,618.15l-2.53,9.37a9.29,9.29,0,0,0,.88,2.09l3.47-12.83A9.54,9.54,0,0,0,576.37,618.15Z" transform="translate(-528.61 -520.36)"/><path class="cls-10" d="M581.34,615.65l-4.47,16.53a9.44,9.44,0,0,0,4.66,2.08l4.88-18A9.31,9.31,0,0,0,581.34,615.65Z" transform="translate(-528.61 -520.36)"/></g><rect class="cls-19" x="90.3" y="77.21" width="22.13" height="26.91" rx="2.24"/><rect class="cls-6" x="88.8" y="77.21" width="22.13" height="26.91" rx="2.24"/><polygon class="cls-12" points="110.29 69.58 109.4 68.63 108.18 69.92 106.97 68.63 105.75 69.92 104.53 68.64 103.32 69.92 102.1 68.64 100.89 69.92 99.93 68.91 99.67 68.64 98.45 69.92 97.24 68.64 96.02 69.92 94.8 68.64 93.59 69.92 92.37 68.64 91.16 69.93 90.14 68.85 90.15 91.45 91.16 92.52 92.38 91.23 93.59 92.52 94.81 91.23 96.02 92.52 97.24 91.23 98.46 92.52 99.67 91.23 99.94 91.51 100.89 92.52 102.1 91.23 103.32 92.52 104.54 91.23 105.75 92.52 106.97 91.23 108.19 92.52 109.4 91.23 110.3 92.18 110.29 69.58"/><polygon class="cls-8" points="109.59 69.58 108.7 68.63 107.48 69.92 106.27 68.63 105.05 69.92 103.83 68.64 102.61 69.92 101.4 68.64 100.18 69.92 99.23 68.91 98.97 68.64 97.75 69.92 96.53 68.64 95.32 69.92 94.1 68.64 92.88 69.92 91.67 68.64 90.45 69.93 89.44 68.85 89.44 91.45 90.45 92.52 91.67 91.23 92.89 92.52 94.1 91.23 95.32 92.52 96.53 91.23 97.75 92.52 98.97 91.23 99.23 91.51 100.18 92.52 101.4 91.23 102.62 92.52 103.83 91.23 105.05 92.52 106.27 91.23 107.48 92.52 108.7 91.23 109.59 92.18 109.59 69.58"/><rect class="cls-11" x="103.95" y="71.41" width="4.21" height="1.94"/><rect class="cls-11" x="103.82" y="75.21" width="4.21" height="1.93"/><path class="cls-6" d="M621.2,600.8a2.58,2.58,0,0,0-2.58,2.58v27.48a2.57,2.57,0,0,0,2.58,2.58h10.14V600.8Z" transform="translate(-528.61 -520.36)"/><path class="cls-6" d="M641.48,600.8H631.34v32.64h10.14a2.58,2.58,0,0,0,2.58-2.58V603.38A2.59,2.59,0,0,0,641.48,600.8Z" transform="translate(-528.61 -520.36)"/><rect class="cls-11" x="90.26" y="71.41" width="8.83" height="1.94"/><rect class="cls-11" x="99.09" y="71.41" width="3.32" height="1.94"/><rect class="cls-11" x="99.09" y="75.21" width="3.32" height="1.93"/><rect class="cls-11" x="90.26" y="75.21" width="8.83" height="1.93"/><rect class="cls-11" x="99.09" y="79.01" width="3.32" height="1.94"/><rect class="cls-11" x="90.26" y="79.01" width="8.83" height="1.93"/><rect class="cls-11" x="103.82" y="79.01" width="4.21" height="1.93"/><rect class="cls-11" x="99.44" y="86.31" width="8.59" height="3.18"/><path class="cls-20" d="M617.85,600.8a2.59,2.59,0,0,0-2.58,2.58v27.48a2.58,2.58,0,0,0,2.58,2.58H628V600.8Z" transform="translate(-528.61 -520.36)"/><path class="cls-20" d="M638.13,600.8H628v32.64h10.14a2.58,2.58,0,0,0,2.58-2.58V603.38A2.59,2.59,0,0,0,638.13,600.8Z" transform="translate(-528.61 -520.36)"/><path class="cls-12" d="M622.82,614.23h-4.2a.89.89,0,0,0-.89.89v2.23a.89.89,0,0,0,.89.9h4.2a.9.9,0,0,0,.9-.9v-2.23A.89.89,0,0,0,622.82,614.23Z" transform="translate(-528.61 -520.36)"/><path class="cls-12" d="M622.82,619.9h-4.2a.89.89,0,0,0-.89.9V623a.89.89,0,0,0,.89.89h4.2a.89.89,0,0,0,.9-.89V620.8A.9.9,0,0,0,622.82,619.9Z" transform="translate(-528.61 -520.36)"/><path class="cls-12" d="M622.8,625.44h-4.2a.89.89,0,0,0-.89.89v2.24a.89.89,0,0,0,.89.89h4.2a.89.89,0,0,0,.9-.89v-2.24A.89.89,0,0,0,622.8,625.44Z" transform="translate(-528.61 -520.36)"/><path class="cls-12" d="M630.12,614.21h-4.2a.89.89,0,0,0-.9.89v2.23a.9.9,0,0,0,.9.9h4.2a.89.89,0,0,0,.89-.9V615.1A.89.89,0,0,0,630.12,614.21Z" transform="translate(-528.61 -520.36)"/><path class="cls-12" d="M630.12,619.88h-4.2a.89.89,0,0,0-.9.89V623a.9.9,0,0,0,.9.9h4.2a.89.89,0,0,0,.89-.9v-2.23A.89.89,0,0,0,630.12,619.88Z" transform="translate(-528.61 -520.36)"/><path class="cls-12" d="M630.12,625.44h-4.2a.89.89,0,0,0-.9.89v2.24a.89.89,0,0,0,.9.89h4.2a.89.89,0,0,0,.89-.89v-2.24A.89.89,0,0,0,630.12,625.44Z" transform="translate(-528.61 -520.36)"/><path class="cls-12" d="M637.43,614.21h-4.2a.89.89,0,0,0-.9.89v2.23a.9.9,0,0,0,.9.9h4.2a.89.89,0,0,0,.89-.9V615.1A.89.89,0,0,0,637.43,614.21Z" transform="translate(-528.61 -520.36)"/><path class="cls-12" d="M637.43,619.88h-4.2a.89.89,0,0,0-.9.89V623a.9.9,0,0,0,.9.9h4.2a.89.89,0,0,0,.89-.9v-2.23A.89.89,0,0,0,637.43,619.88Z" transform="translate(-528.61 -520.36)"/><path class="cls-12" d="M637.43,625.44h-4.2a.89.89,0,0,0-.9.89v2.24a.89.89,0,0,0,.9.89h4.2a.89.89,0,0,0,.89-.89v-2.24A.89.89,0,0,0,637.43,625.44Z" transform="translate(-528.61 -520.36)"/><path class="cls-21" d="M622.2,614.23H618a.89.89,0,0,0-.89.89v2.23a.89.89,0,0,0,.89.9h4.2a.89.89,0,0,0,.89-.9v-2.23A.89.89,0,0,0,622.2,614.23Z" transform="translate(-528.61 -520.36)"/><path class="cls-21" d="M622.2,619.9H618a.89.89,0,0,0-.89.9V623a.89.89,0,0,0,.89.89h4.2a.89.89,0,0,0,.89-.89V620.8A.89.89,0,0,0,622.2,619.9Z" transform="translate(-528.61 -520.36)"/><path class="cls-21" d="M622.18,625.44H618a.89.89,0,0,0-.9.89v2.24a.89.89,0,0,0,.9.89h4.2a.89.89,0,0,0,.89-.89v-2.24A.89.89,0,0,0,622.18,625.44Z" transform="translate(-528.61 -520.36)"/><path class="cls-21" d="M629.49,614.21h-4.2a.89.89,0,0,0-.89.89v2.23a.89.89,0,0,0,.89.9h4.2a.9.9,0,0,0,.9-.9V615.1A.9.9,0,0,0,629.49,614.21Z" transform="translate(-528.61 -520.36)"/><path class="cls-21" d="M629.49,619.88h-4.2a.89.89,0,0,0-.89.89V623a.89.89,0,0,0,.89.9h4.2a.9.9,0,0,0,.9-.9v-2.23A.9.9,0,0,0,629.49,619.88Z" transform="translate(-528.61 -520.36)"/><path class="cls-21" d="M629.49,625.44h-4.2a.89.89,0,0,0-.89.89v2.24a.89.89,0,0,0,.89.89h4.2a.9.9,0,0,0,.9-.89v-2.24A.9.9,0,0,0,629.49,625.44Z" transform="translate(-528.61 -520.36)"/><path class="cls-21" d="M636.81,614.21h-4.2a.89.89,0,0,0-.9.89v2.23a.9.9,0,0,0,.9.9h4.2a.89.89,0,0,0,.89-.9V615.1A.89.89,0,0,0,636.81,614.21Z" transform="translate(-528.61 -520.36)"/><path class="cls-21" d="M636.81,619.88h-4.2a.89.89,0,0,0-.9.89V623a.9.9,0,0,0,.9.9h4.2a.89.89,0,0,0,.89-.9v-2.23A.89.89,0,0,0,636.81,619.88Z" transform="translate(-528.61 -520.36)"/><path class="cls-21" d="M636.81,625.44h-4.2a.89.89,0,0,0-.9.89v2.24a.89.89,0,0,0,.9.89h4.2a.89.89,0,0,0,.89-.89v-2.24A.89.89,0,0,0,636.81,625.44Z" transform="translate(-528.61 -520.36)"/><rect class="cls-11" x="88.34" y="82.86" width="22.26" height="8.4" rx="2.13"/><path class="cls-21" d="M626.75,606.58l.8-.49h1v4.39h-1V607l-.79.18Z" transform="translate(-528.61 -520.36)"/><path class="cls-21" d="M629,606.25a6.05,6.05,0,0,1,2-.17,1,1,0,0,1,1.11,1.08v.28a.8.8,0,0,1-.49.86c.35.13.49.45.49.91v.22a1,1,0,0,1-1.16,1.1,6.11,6.11,0,0,1-1.87-.17v-.73h1.44c.42,0,.6,0,.6-.36v-.13c0-.32-.2-.37-.57-.39l-1.1,0v-.8l1.1-.06c.41,0,.58-.07.58-.37v-.14c0-.33-.27-.37-.58-.37H629Z" transform="translate(-528.61 -520.36)"/><path class="cls-21" d="M632.49,606.89c0-.51.21-.8.82-.8h.61a.7.7,0,0,1,.8.8v.7c0,.51-.21.8-.81.8h-.61c-.59,0-.81-.29-.81-.8Zm.92.84h.38c.24,0,.27-.1.27-.27V607c0-.22-.07-.27-.25-.27h-.39c-.18,0-.27,0-.27.27v.44C633.15,607.63,633.19,607.73,633.41,607.73Zm2.82-1.64h.66l-2.67,4.39h-.7Zm-.52,2.87c0-.51.21-.79.82-.79h.6c.59,0,.81.28.81.79v.72c0,.5-.21.79-.81.79h-.62c-.58,0-.8-.29-.8-.79Zm.92.85H637c.24,0,.28-.1.28-.27v-.44c0-.22-.09-.27-.27-.27h-.38c-.18,0-.27,0-.27.27v.44C636.37,609.71,636.41,609.81,636.63,609.81Z" transform="translate(-528.61 -520.36)"/><path class="cls-15" d="M638.89,604.22a2.17,2.17,0,0,0-1.48-.6h-18a2.14,2.14,0,0,0-2.13,2.13v4.14a2.21,2.21,0,0,0,.31,1.12,2.16,2.16,0,0,1-.64-1.53v-4.14a2.13,2.13,0,0,1,2.13-2.13h18A2.13,2.13,0,0,1,638.89,604.22Z" transform="translate(-528.61 -520.36)"/><g class="cls-22"><path class="cls-23" d="M622.91,603.22,617,609.84a2.08,2.08,0,0,0,.77,1.3l7.22-7.92Z" transform="translate(-528.61 -520.36)"/><polygon class="cls-23" points="98.8 82.86 91.12 91.25 99.52 91.25 107.21 82.86 98.8 82.86"/></g><g id="_8" data-name="8"><path class="cls-24" d="M656.63,588.67l-.46.34h0l-1.93,1.44-.73.54c-.14.11-.39,0-.55-.22l-.17-.24-.37-.53-.74-1.06-.19-.27-.08-.12h0l-2.12-3-.18-.26-1.64-2.35-.27-.38a.36.36,0,0,1,0-.48l.53-.39,1.93-1.44.23-.16c.11-.1.32,0,.45.13l.43.54.78,1,1.05,1.33,1.64,2.06.65.84.3.37.8,1,.4.51.19.23C656.75,588.3,656.77,588.56,656.63,588.67Z" transform="translate(-528.61 -520.36)"/><path class="cls-25" d="M658.47,590.5l-.77.57-1.93,1.45-1,.76c-.13.1-.38,0-.55-.24l-.22-.29-1.48-2-.07-.09c-.17-.23-.21-.5-.08-.6l.08-.06,1-.71,1.93-1.44.68-.51.09-.06c.12-.1.37,0,.54.25l.07.09.64.86,1.06,1.43C658.57,590.14,658.6,590.41,658.47,590.5Z" transform="translate(-528.61 -520.36)"/><path class="cls-6" d="M671.88,607.11l-1.33,1-1.94,1.46L667,610.79c-.22.16-.71-.15-1.1-.69l-12.26-17-1-1.38c-.28-.4-.37-.84-.18-1v0l.31-.22,1-.71,0,0,1.89-1.41,0,0,.65-.5.3-.22h0c.19-.14.58.06.88.43,0,0,0,0,0,0l14,17.8C672,606.37,672.12,607,671.88,607.11Z" transform="translate(-528.61 -520.36)"/><polygon class="cls-25" points="126.58 65.97 125.93 66.46 124 67.89 123.07 68.59 122.88 68.31 122.8 68.19 122.8 68.19 120.68 65.17 120.5 64.92 120.41 64.77 120.96 64.36 121.23 64.16 123.17 62.72 123.69 62.33 123.99 62.7 125.63 64.77 126.28 65.6 126.58 65.97"/><path class="cls-6" d="M655.36,585.6l-.47.36-.63.46-1.94,1.45-.33.24-.58.44-.47.35a.43.43,0,0,1-.56-.18l-1.63-2.19a.43.43,0,0,1,0-.59l.55-.41h0l.84-.62,1.93-1.44.54-.41h0l.56-.41a.43.43,0,0,1,.56.18l1,1.41.58.77A.43.43,0,0,1,655.36,585.6Z" transform="translate(-528.61 -520.36)"/><polygon class="cls-20" points="141.94 87.75 140 89.18 125.19 69.42 127.09 68.01 127.13 67.98 141.94 87.75"/><path class="cls-21" d="M653.21,573.4c-.17.31-.35.62-.53.91-.07.11-.13.21-.2.3a4,4,0,0,1-.23.34h0c-.1.15-.2.3-.31.44l-.23.31a1.84,1.84,0,0,0-.17.22l-.1.12h0l-.07.09-.15.18c-.22.25-.44.5-.67.74l-.12.12c-.08.08-.16.17-.24.24h0c-.24.24-.49.47-.74.69l-.12.11-.27.22-.79.61,0,0-.09.06-.19.14-.1.06h0l-.22.16-.63.39-.15.09-.12.07-.19.11c-.31.17-.61.33-.93.47l-.16.08-.33.15c-.33.15-.66.28-1,.4l-.18.07-.23.08h0l-.12,0c-.36.12-.72.23-1.08.32l-.19,0h0l-.21.06H642l-.13,0c-.35.07-.7.14-1,.19h-.07l-.7.1q-.71.07-1.41.09h-1.15l-.6,0-.53,0-.22,0-.66-.09-.6-.11-.2,0h0l-.27-.06-.45-.11h0l-.06,0c-.5-.12-1-.28-1.46-.44l-.2-.08-.27-.1-.2-.08-.12,0-.36-.16-.31-.14h0l-.34-.17c-.39-.19-.76-.39-1.12-.61l-.19-.11-.2-.13c-.23-.14-.45-.29-.68-.45l-.2-.14,0,0q-.54-.39-1.05-.84l-.12-.1-.13-.11h0l-.06-.06c-.2-.17-.4-.36-.59-.55a16.16,16.16,0,0,1-1.35-1.51l-.27-.34a.76.76,0,0,1-.08-.11,1.33,1.33,0,0,1-.14-.19c-.25-.34-.48-.69-.7-1v0l-.08-.13c-.11-.18-.21-.37-.32-.56l-.39-.74c-.16-.33-.31-.67-.45-1s-.24-.59-.34-.9a.3.3,0,0,0,0-.1c0-.08-.05-.15-.07-.23s-.09-.27-.13-.41v0s0,0,0,0h0a1.05,1.05,0,0,1,0-.19,15.35,15.35,0,0,1-.47-2.26.22.22,0,0,1,0-.08c-.05-.34-.08-.68-.11-1h0c0-.53,0-1.06,0-1.6a1.09,1.09,0,0,0,0-.18c0-.09,0-.17,0-.25a.81.81,0,0,1,0-.16,1.15,1.15,0,0,1,0-.18l0-.47c0-.15,0-.31.05-.46s0,0,0,0a.17.17,0,0,1,0-.07,16.36,16.36,0,0,1,1.17-4.38c.14-.34.3-.68.46-1s.24-.47.37-.7.32-.54.48-.81l.1-.15c.13-.21.27-.4.4-.59l.11-.15c.15-.2.29-.4.45-.6l.28-.35h0l.09-.1a17,17,0,0,1,10.89-5.88h0a17.58,17.58,0,0,1,2.63-.11,16.94,16.94,0,0,1,8.65,2.69,16.65,16.65,0,0,1,3.62,3.13,16.17,16.17,0,0,1,1.9,2.65l.12.21.11.2.14.25.08.16a16.91,16.91,0,0,1,.73,1.63l.08.21c0,.14.1.28.14.41l.07.21a11.71,11.71,0,0,1,.37,1.32c.07.28.13.56.18.83s.09.52.13.78h0a17.84,17.84,0,0,1,.15,2.32c0,.19,0,.38,0,.57s0,.39,0,.58h0a16.88,16.88,0,0,1-.55,3.34h0l0,0a.57.57,0,0,1,0,.14q-.08.3-.18.6c-.09.29-.19.57-.29.84h0c-.07.18-.14.35-.22.53A15.48,15.48,0,0,1,653.21,573.4Zm3.39-.45a16.79,16.79,0,0,0,.63-1.72,20.61,20.61,0,0,0,.53-2.09c.09-.48.17-1,.23-1.44,0-.22,0-.44.07-.67s0-.35,0-.52,0-.39,0-.58c0-.42,0-.84,0-1.25a19.63,19.63,0,0,0-.74-4.81c0-.15-.08-.3-.12-.45-.13-.42-.27-.83-.43-1.24a19.77,19.77,0,0,0-1.37-2.86,19.83,19.83,0,0,0-16.58-9.92,19.9,19.9,0,0,0-19.33,13l0,.08h0q-.22.63-.42,1.29c-.09.33-.18.65-.25,1a19.5,19.5,0,0,0-.5,3.85,19.75,19.75,0,0,0,.09,2.67c0,.26.06.53.1.8s.09.59.14.88.13.62.2.93a19.46,19.46,0,0,0,.66,2.17c.09.28.2.55.31.82a17,17,0,0,0,.93,1.92c.13.25.26.49.41.72a18.08,18.08,0,0,0,1.15,1.7,1.09,1.09,0,0,0,.13.17c.12.16.24.32.37.47.43.52.88,1,1.36,1.5l.47.45h0a1.14,1.14,0,0,1,.11.11c.5.46,1,.89,1.57,1.3.22.17.44.32.67.47s.7.47,1.06.68l.48.28.25.13.55.29.21.1.44.21.19.08c.46.21.93.39,1.41.56h0l.2.07.21.07.43.14.08,0c.47.14,1,.27,1.44.37l.23,0,.1,0,.44.08h.06l1,.15h.11l.25,0,.28,0,1,.06h.47c.24,0,.48,0,.71,0h0c.4,0,.79,0,1.19-.06l.47,0,.31,0a19.5,19.5,0,0,0,2.78-.53c.59-.16,1.17-.35,1.74-.56a19.53,19.53,0,0,0,1.82-.78l.51-.25.84-.47a22.48,22.48,0,0,0,2-1.34l.46-.37A19.69,19.69,0,0,0,656.6,573Z" transform="translate(-528.61 -520.36)"/><path class="cls-26" d="M653.92,572.79a17.76,17.76,0,0,0,.93-11.48,18.13,18.13,0,0,0-.57-1.81c0-.09-.07-.18-.11-.27a16.75,16.75,0,0,0-.76-1.67l-.08-.16a17.78,17.78,0,0,0-5.89-6.44,17.49,17.49,0,0,0-9-2.86,18.28,18.28,0,0,0-3.33.21h0a17.58,17.58,0,0,0-11.28,6.81c-.21.29-.42.58-.63.89l-.26.41,0,.05-.17.28q-.27.45-.51.93l-.21.41h0l-.09.21h0a17.39,17.39,0,0,0-1.58,6.08l0,.57c0,.06,0,.12,0,.19v.11q0,.53,0,1h0a18,18,0,0,0,.29,2.66c.06.32.13.65.21,1a17.58,17.58,0,0,0,5.25,8.82h0a17.47,17.47,0,0,0,4,2.74l.41.2c.52.24,1.06.46,1.61.65a16.44,16.44,0,0,0,2,.56,17.48,17.48,0,0,0,1.76.3c.43,0,.87.09,1.31.1h1.22a17.55,17.55,0,0,0,14.15-7.83c.19-.29.38-.59.56-.89l.14-.26c.1-.17.2-.35.29-.53h0C653.61,573.46,653.77,573.13,653.92,572.79Zm-1.5-15.85h0l.13.23c.18.32.36.65.52,1a16.82,16.82,0,0,1,1.24,3.6,16.65,16.65,0,0,1-.46,8.75c-.11.33-.23.65-.36,1h0c0,.09-.07.18-.11.27h0l-.18.4c-.15.33-.31.64-.48,1a16.43,16.43,0,0,1-4.55,5.32c-.28.21-.57.41-.86.61a16.43,16.43,0,0,1-9.61,2.72l-.43,0a15.22,15.22,0,0,1-2.95-.44,16.3,16.3,0,0,1-1.84-.56c-.34-.13-.67-.26-1-.41l-.44-.21a12.24,12.24,0,0,1-1.23-.67,14.23,14.23,0,0,1-1.22-.8c-.43-.31-.83-.63-1.22-1h0l-.26-.24c-.35-.31-.68-.65-1-1s-.76-.88-1.11-1.35a16.91,16.91,0,0,1-1.57-2.58l-.36-.81c-.18-.41-.34-.84-.48-1.27a15.12,15.12,0,0,1-.43-1.6c-.12-.54-.21-1.1-.28-1.66a15.77,15.77,0,0,1-.09-2.39c0-.28,0-.55.05-.82s0-.33,0-.49,0-.2,0-.3c0-.34.1-.69.16-1a16.3,16.3,0,0,1,2.33-5.76,8.73,8.73,0,0,1,.5-.74.76.76,0,0,1,.11-.14c.19-.26.38-.51.58-.75l0,0q.4-.48.84-.93a16.39,16.39,0,0,1,12.29-4.94l.43,0h0A16.44,16.44,0,0,1,652.42,556.94Z" transform="translate(-528.61 -520.36)"/></g><path id="_9" data-name="9" class="cls-27" d="M623.09,569.57a15.22,15.22,0,0,1,.44-10.05c1.41-3.39,3.38-6.44,6.67-8.18a15,15,0,0,1,7.26-1.76,10.91,10.91,0,0,0,2.3.22,18,18,0,0,0-7.84,4.24,12.6,12.6,0,0,0-3.42,10.38,11.92,11.92,0,0,0,1.91,5.21c1.15,1.71,3.07,2.59,4.23,4.22a5.78,5.78,0,0,1,1.27,3.64c-.25,4-4.83,2.29-6.82.83A16.54,16.54,0,0,1,623.09,569.57Z" transform="translate(-528.61 -520.36)"/></g></g></g></svg>