<svg xmlns="http://www.w3.org/2000/svg" viewBox="0 0 605.93 125"><defs><style>.cls-1{isolation:isolate;}.cls-2{fill:#444;}.cls-3{fill:#ededed;}.cls-4{fill:gray;opacity:0.7;mix-blend-mode:multiply;}.cls-5{fill:#0e2036;}.cls-6{fill:#153152;}.cls-7{fill:#c4c4c4;}.cls-8{fill:#fefefe;}.cls-9{fill:#eda73f;}.cls-10{fill:#ffce3b;}.cls-11{fill:#5794d9;}.cls-12{fill:#e1e1e1;}.cls-13{fill:#6cb880;}.cls-14{fill:#82de9a;}.cls-15{fill:#447a52;}.cls-16{fill:#75c78a;}.cls-17{fill:#f59407;}.cls-18{opacity:0.3;}.cls-18,.cls-22{mix-blend-mode:screen;}.cls-19{fill:#1b1f19;}.cls-20{fill:#193a61;}.cls-21{fill:#fff;}.cls-22{opacity:0.5;}.cls-23{fill:#91cce1;}.cls-24{fill:#ebebeb;}.cls-25{fill:#dbdbdb;}.cls-26{fill:#cfcfcf;}.cls-27{fill:#f1f1f1;opacity:0.34;}</style></defs><title>saqueanuncio</title><g class="cls-1"><g id="Sacar"><g id="Anuncio"><g id="Deposito"><rect id="Deposito-2" data-name="Deposito" class="cls-2" width="605.93" height="125" rx="10"/></g><path class="cls-3" d="M686.18,768.82a12.61,12.61,0,0,1-4.18-2l1.84-4.1a12.61,12.61,0,0,0,3.6,1.78,13.4,13.4,0,0,0,4.16.67,6.77,6.77,0,0,0,3.43-.68,2.08,2.08,0,0,0,1.1-1.84,1.73,1.73,0,0,0-.65-1.39,5,5,0,0,0-1.68-.89c-.68-.22-1.61-.47-2.77-.74a38.41,38.41,0,0,1-4.4-1.27,7.23,7.23,0,0,1-2.94-2,5.57,5.57,0,0,1-1.22-3.76,6.5,6.5,0,0,1,1.11-3.71,7.4,7.4,0,0,1,3.34-2.64,13.59,13.59,0,0,1,5.45-1,18.46,18.46,0,0,1,4.4.53,13,13,0,0,1,3.76,1.55l-1.68,4.13a13.11,13.11,0,0,0-6.51-1.85,6.1,6.1,0,0,0-3.37.74,2.25,2.25,0,0,0-1.1,2,1.9,1.9,0,0,0,1.26,1.79,19.1,19.1,0,0,0,3.85,1.16,38.18,38.18,0,0,1,4.4,1.28,7.34,7.34,0,0,1,2.94,2,5.44,5.44,0,0,1,1.22,3.73,6.43,6.43,0,0,1-1.12,3.68,7.57,7.57,0,0,1-3.38,2.64,13.9,13.9,0,0,1-5.47,1A19,19,0,0,1,686.18,768.82Z" transform="translate(-528.61 -712.46)"/><path class="cls-3" d="M722.5,761.62H708.83a4.25,4.25,0,0,0,1.74,2.65,5.79,5.79,0,0,0,3.43,1,6.93,6.93,0,0,0,2.5-.42,5.9,5.9,0,0,0,2-1.33l2.79,3c-1.7,2-4.19,2.92-7.45,2.92a11.74,11.74,0,0,1-5.41-1.19,8.64,8.64,0,0,1-3.63-3.31,9.7,9.7,0,0,1,0-9.58,8.84,8.84,0,0,1,3.45-3.33,10.74,10.74,0,0,1,9.73,0,8.31,8.31,0,0,1,3.37,3.28,9.72,9.72,0,0,1,1.23,5C722.6,760.28,722.56,760.75,722.5,761.62Zm-12.26-5.81a4.27,4.27,0,0,0-1.48,2.75h8.9a4.3,4.3,0,0,0-1.48-2.73,4.37,4.37,0,0,0-2.95-1A4.51,4.51,0,0,0,710.24,755.81Z" transform="translate(-528.61 -712.46)"/><path class="cls-3" d="M744.29,751.11v18.07h-5V767a6.89,6.89,0,0,1-2.48,1.79,8.6,8.6,0,0,1-8.77-1.42q-2.09-2.05-2.08-6.08V751.11h5.24v9.43c0,2.92,1.22,4.37,3.66,4.37a4,4,0,0,0,3-1.22,5.2,5.2,0,0,0,1.14-3.65v-8.93Z" transform="translate(-528.61 -712.46)"/><path class="cls-3" d="M777.07,744.26v24.92h-5v-2.09a6.9,6.9,0,0,1-5.64,2.35,9.42,9.42,0,0,1-4.62-1.14,8.2,8.2,0,0,1-3.24-3.26,10.85,10.85,0,0,1,0-9.8A8.26,8.26,0,0,1,761.8,752a9.42,9.42,0,0,1,4.62-1.14,6.89,6.89,0,0,1,5.41,2.18v-8.76Zm-6.45,19.53a5.73,5.73,0,0,0,0-7.29,4.36,4.36,0,0,0-3.29-1.36A4.42,4.42,0,0,0,764,756.5a5.73,5.73,0,0,0,0,7.29,4.45,4.45,0,0,0,3.33,1.36A4.4,4.4,0,0,0,770.62,763.79Z" transform="translate(-528.61 -712.46)"/><path class="cls-3" d="M782.17,747.75a2.83,2.83,0,0,1,0-4.16,3.32,3.32,0,0,1,2.35-.84,3.43,3.43,0,0,1,2.35.8,2.58,2.58,0,0,1,.91,2,2.83,2.83,0,0,1-.91,2.16,3.67,3.67,0,0,1-4.7,0Zm-.27,3.36h5.24v18.07H781.9Z" transform="translate(-528.61 -712.46)"/><path class="cls-3" d="M808.41,752.86q2.07,2,2.07,6v10.35h-5.24v-9.54a4.72,4.72,0,0,0-.94-3.21,3.47,3.47,0,0,0-2.72-1.06,4.18,4.18,0,0,0-3.16,1.23,5.09,5.09,0,0,0-1.17,3.64v8.94H792V751.11h5v2.11a7.09,7.09,0,0,1,2.59-1.76,9.09,9.09,0,0,1,3.39-.62A7.39,7.39,0,0,1,808.41,752.86Z" transform="translate(-528.61 -712.46)"/><path class="cls-3" d="M831.62,752.86c1.38,1.34,2.06,3.33,2.06,6v10.35h-5.24v-9.54a4.72,4.72,0,0,0-.94-3.21,3.45,3.45,0,0,0-2.72-1.06,4.14,4.14,0,0,0-3.15,1.23,5,5,0,0,0-1.18,3.64v8.94h-5.24V744.26h5.24V753a7.14,7.14,0,0,1,2.52-1.6,9.34,9.34,0,0,1,3.22-.55A7.43,7.43,0,0,1,831.62,752.86Z" transform="translate(-528.61 -712.46)"/><path class="cls-3" d="M856.22,761.62H842.55a4.25,4.25,0,0,0,1.74,2.65,5.79,5.79,0,0,0,3.43,1,6.93,6.93,0,0,0,2.5-.42,5.9,5.9,0,0,0,2-1.33l2.79,3c-1.7,2-4.19,2.92-7.45,2.92a11.74,11.74,0,0,1-5.41-1.19,8.64,8.64,0,0,1-3.63-3.31,9.7,9.7,0,0,1,0-9.58A8.91,8.91,0,0,1,842,752a10.74,10.74,0,0,1,9.73,0,8.31,8.31,0,0,1,3.37,3.28,9.72,9.72,0,0,1,1.23,5C856.32,760.28,856.28,760.75,856.22,761.62ZM844,755.81a4.27,4.27,0,0,0-1.48,2.75h8.9a4.3,4.3,0,0,0-1.48-2.73,4.37,4.37,0,0,0-2.95-1A4.53,4.53,0,0,0,844,755.81Z" transform="translate(-528.61 -712.46)"/><path class="cls-3" d="M860.08,747.75a2.83,2.83,0,0,1,0-4.16,3.32,3.32,0,0,1,2.35-.84,3.43,3.43,0,0,1,2.35.8,2.61,2.61,0,0,1,.91,2,2.86,2.86,0,0,1-.91,2.16,3.67,3.67,0,0,1-4.7,0Zm-.27,3.36h5.24v18.07h-5.24Z" transform="translate(-528.61 -712.46)"/><path class="cls-3" d="M877.46,751.51a9.35,9.35,0,0,1,3.67-.67v4.84c-.58,0-1-.07-1.17-.07a4.81,4.81,0,0,0-3.53,1.26,5.1,5.1,0,0,0-1.27,3.78v8.53h-5.24V751.11h5v2.38A5.86,5.86,0,0,1,877.46,751.51Z" transform="translate(-528.61 -712.46)"/><path class="cls-3" d="M887.56,768.25a8.76,8.76,0,0,1-3.54-3.31,9.71,9.71,0,0,1,0-9.6,8.9,8.9,0,0,1,3.54-3.31,10.93,10.93,0,0,1,5.13-1.19,10.78,10.78,0,0,1,5.1,1.19,8.94,8.94,0,0,1,3.53,3.31,9.71,9.71,0,0,1,0,9.6,8.8,8.8,0,0,1-3.53,3.31,10.66,10.66,0,0,1-5.1,1.19A10.81,10.81,0,0,1,887.56,768.25Zm8.43-4.46a5.76,5.76,0,0,0,0-7.29,4.34,4.34,0,0,0-3.3-1.36,4.4,4.4,0,0,0-3.33,1.36,5.73,5.73,0,0,0,0,7.29,4.44,4.44,0,0,0,3.33,1.36A4.37,4.37,0,0,0,896,763.79Z" transform="translate(-528.61 -712.46)"/><path class="cls-3" d="M919.13,768.25a8.84,8.84,0,0,1-3.59-3.31A9.11,9.11,0,0,1,919.13,752a11.18,11.18,0,0,1,5.19-1.19,10.15,10.15,0,0,1,5,1.19,7.08,7.08,0,0,1,3.1,3.41l-4.06,2.18a4.45,4.45,0,0,0-4.06-2.48,4.64,4.64,0,0,0-3.4,1.34,5.67,5.67,0,0,0,0,7.32,4.6,4.6,0,0,0,3.4,1.35,4.39,4.39,0,0,0,4.06-2.49l4.06,2.22a7.25,7.25,0,0,1-3.1,3.36,10,10,0,0,1-5,1.2A11.06,11.06,0,0,1,919.13,768.25Z" transform="translate(-528.61 -712.46)"/><path class="cls-3" d="M938.68,768.25a8.79,8.79,0,0,1-3.55-3.31,9.71,9.71,0,0,1,0-9.6,8.93,8.93,0,0,1,3.55-3.31,11.57,11.57,0,0,1,10.22,0,8.94,8.94,0,0,1,3.53,3.31,9.71,9.71,0,0,1,0,9.6,8.8,8.8,0,0,1-3.53,3.31,11.57,11.57,0,0,1-10.22,0Zm8.43-4.46a5.79,5.79,0,0,0,0-7.29,4.37,4.37,0,0,0-3.31-1.36,4.42,4.42,0,0,0-3.33,1.36,5.73,5.73,0,0,0,0,7.29,4.45,4.45,0,0,0,3.33,1.36A4.41,4.41,0,0,0,947.11,763.79Z" transform="translate(-528.61 -712.46)"/><path class="cls-3" d="M973.6,752.86q2.07,2,2.07,6v10.35h-5.24v-9.54a4.77,4.77,0,0,0-.94-3.21,3.48,3.48,0,0,0-2.72-1.06,4.16,4.16,0,0,0-3.16,1.23,5.09,5.09,0,0,0-1.17,3.64v8.94H957.2V751.11h5v2.11a7,7,0,0,1,2.59-1.76,9.09,9.09,0,0,1,3.39-.62A7.41,7.41,0,0,1,973.6,752.86Z" transform="translate(-528.61 -712.46)"/><path class="cls-3" d="M984.08,768.25a8.76,8.76,0,0,1-3.54-3.31,9.64,9.64,0,0,1,0-9.6,8.9,8.9,0,0,1,3.54-3.31,10.89,10.89,0,0,1,5.12-1.19,10.78,10.78,0,0,1,5.1,1.19,8.94,8.94,0,0,1,3.53,3.31,9.64,9.64,0,0,1,0,9.6,8.8,8.8,0,0,1-3.53,3.31,10.66,10.66,0,0,1-5.1,1.19A10.77,10.77,0,0,1,984.08,768.25Zm8.43-4.46a5.79,5.79,0,0,0,0-7.29,4.72,4.72,0,0,0-6.63,0,5.69,5.69,0,0,0,0,7.29,4.72,4.72,0,0,0,6.63,0Z" transform="translate(-528.61 -712.46)"/><path class="cls-3" d="M1004.28,768.89a11.45,11.45,0,0,1-3.43-1.39l1.75-3.76a10.93,10.93,0,0,0,2.92,1.25,12,12,0,0,0,3.36.49c2.21,0,3.32-.55,3.32-1.64a1.16,1.16,0,0,0-.9-1.11,12.79,12.79,0,0,0-2.79-.57,26.17,26.17,0,0,1-3.66-.78,5.63,5.63,0,0,1-2.5-1.54,4.38,4.38,0,0,1-1.06-3.16,5,5,0,0,1,1-3,6.36,6.36,0,0,1,2.89-2.06,12.37,12.37,0,0,1,4.48-.74,17.51,17.51,0,0,1,3.81.42,10.69,10.69,0,0,1,3.14,1.16l-1.74,3.73a10.41,10.41,0,0,0-5.21-1.35,5.34,5.34,0,0,0-2.52.47,1.39,1.39,0,0,0-.84,1.21,1.21,1.21,0,0,0,.91,1.18,16.37,16.37,0,0,0,2.89.63,31.84,31.84,0,0,1,3.62.79,5.59,5.59,0,0,1,2.46,1.53,4.36,4.36,0,0,1,1,3.09,4.78,4.78,0,0,1-1,3,6.42,6.42,0,0,1-2.94,2,13.11,13.11,0,0,1-4.58.72A17.51,17.51,0,0,1,1004.28,768.89Z" transform="translate(-528.61 -712.46)"/><path class="cls-3" d="M1024,768.25a8.84,8.84,0,0,1-3.59-3.31A9.11,9.11,0,0,1,1024,752a11.21,11.21,0,0,1,5.19-1.19,10.12,10.12,0,0,1,5,1.19,7.08,7.08,0,0,1,3.1,3.41l-4.06,2.18a4.44,4.44,0,0,0-4.06-2.48,4.6,4.6,0,0,0-3.39,1.34,5.64,5.64,0,0,0,0,7.32,4.57,4.57,0,0,0,3.39,1.35,4.39,4.39,0,0,0,4.06-2.49l4.06,2.22a7.25,7.25,0,0,1-3.1,3.36,10,10,0,0,1-5,1.2A11.08,11.08,0,0,1,1024,768.25Z" transform="translate(-528.61 -712.46)"/><path class="cls-3" d="M1043.52,768.25a8.79,8.79,0,0,1-3.55-3.31,9.71,9.71,0,0,1,0-9.6,8.93,8.93,0,0,1,3.55-3.31,10.89,10.89,0,0,1,5.12-1.19,10.78,10.78,0,0,1,5.1,1.19,8.94,8.94,0,0,1,3.53,3.31,9.71,9.71,0,0,1,0,9.6,8.8,8.8,0,0,1-3.53,3.31,10.66,10.66,0,0,1-5.1,1.19A10.77,10.77,0,0,1,1043.52,768.25Zm8.43-4.46a5.79,5.79,0,0,0,0-7.29,4.37,4.37,0,0,0-3.31-1.36,4.42,4.42,0,0,0-3.33,1.36,5.73,5.73,0,0,0,0,7.29,4.45,4.45,0,0,0,3.33,1.36A4.41,4.41,0,0,0,1052,763.79Z" transform="translate(-528.61 -712.46)"/><path class="cls-3" d="M1066.13,763.82a3.1,3.1,0,0,1,.91,2.33,5.21,5.21,0,0,1-.17,1.35,13.39,13.39,0,0,1-.74,2l-1.91,4.84h-3.32l1.47-5.34a2.77,2.77,0,0,1-1.32-1.09,3.16,3.16,0,0,1-.49-1.77,3.1,3.1,0,0,1,.92-2.33,3.26,3.26,0,0,1,2.34-.89A3.16,3.16,0,0,1,1066.13,763.82Z" transform="translate(-528.61 -712.46)"/><path class="cls-3" d="M691,791.81a9.4,9.4,0,0,1,3.68-.67V796q-.87-.06-1.17-.06a4.81,4.81,0,0,0-3.53,1.26,5.07,5.07,0,0,0-1.28,3.77v8.53h-5.24V791.41h5v2.38A5.83,5.83,0,0,1,691,791.81Z" transform="translate(-528.61 -712.46)"/><path class="cls-3" d="M715.24,801.92H701.58a4.21,4.21,0,0,0,1.74,2.65,5.79,5.79,0,0,0,3.43,1,7.16,7.16,0,0,0,2.5-.41,6.14,6.14,0,0,0,2-1.33l2.79,3q-2.55,2.92-7.46,2.92a11.7,11.7,0,0,1-5.4-1.19,8.7,8.7,0,0,1-3.63-3.31,9.12,9.12,0,0,1-1.28-4.8,9.26,9.26,0,0,1,1.26-4.79,8.84,8.84,0,0,1,3.46-3.32,10.23,10.23,0,0,1,4.92-1.19,10.07,10.07,0,0,1,4.8,1.14,8.31,8.31,0,0,1,3.38,3.27,9.78,9.78,0,0,1,1.22,5C715.34,800.57,715.31,801,715.24,801.92ZM703,796.11a4.27,4.27,0,0,0-1.48,2.75h8.9a4.3,4.3,0,0,0-1.48-2.73,4.39,4.39,0,0,0-3-1A4.5,4.5,0,0,0,703,796.11Z" transform="translate(-528.61 -712.46)"/><path class="cls-3" d="M735.24,793.15q2.07,2,2.07,6v10.34h-5.24v-9.53a4.73,4.73,0,0,0-.94-3.21,3.45,3.45,0,0,0-2.72-1.06,4.16,4.16,0,0,0-3.16,1.23,5.07,5.07,0,0,0-1.17,3.64v8.93h-5.24V791.41h5v2.11a6.89,6.89,0,0,1,2.59-1.76,9.09,9.09,0,0,1,3.39-.62A7.44,7.44,0,0,1,735.24,793.15Z" transform="translate(-528.61 -712.46)"/><path class="cls-3" d="M760.65,784.56v24.91h-5v-2.08a6.9,6.9,0,0,1-5.64,2.35,9.42,9.42,0,0,1-4.62-1.14,8.2,8.2,0,0,1-3.24-3.26,10.85,10.85,0,0,1,0-9.8,8.2,8.2,0,0,1,3.24-3.26,9.42,9.42,0,0,1,4.62-1.14,6.89,6.89,0,0,1,5.41,2.18v-8.76Zm-6.45,19.52a5.71,5.71,0,0,0,0-7.28,4.71,4.71,0,0,0-6.62,0,5.71,5.71,0,0,0,0,7.28,4.71,4.71,0,0,0,6.62,0Z" transform="translate(-528.61 -712.46)"/><path class="cls-3" d="M783.08,801.92H769.41a4.26,4.26,0,0,0,1.75,2.65,5.76,5.76,0,0,0,3.42,1,7.16,7.16,0,0,0,2.5-.41,6,6,0,0,0,2-1.33l2.79,3q-2.55,2.92-7.45,2.92a11.74,11.74,0,0,1-5.41-1.19,8.7,8.7,0,0,1-3.63-3.31,9.11,9.11,0,0,1-1.27-4.8,9.26,9.26,0,0,1,1.26-4.79,8.84,8.84,0,0,1,3.46-3.32,10.72,10.72,0,0,1,9.72-.05,8.35,8.35,0,0,1,3.37,3.27,9.79,9.79,0,0,1,1.23,5C783.18,800.57,783.14,801,783.08,801.92Zm-12.26-5.81a4.27,4.27,0,0,0-1.48,2.75h8.9a4.3,4.3,0,0,0-1.48-2.73,4.37,4.37,0,0,0-3-1A4.53,4.53,0,0,0,770.82,796.11Z" transform="translate(-528.61 -712.46)"/><path class="cls-3" d="M824.7,793.14q2,2,2,6v10.34h-5.24v-9.53a4.9,4.9,0,0,0-.89-3.21,3.11,3.11,0,0,0-2.53-1.06,3.76,3.76,0,0,0-2.93,1.19,5.19,5.19,0,0,0-1.07,3.55v9.06H808.8v-9.53q0-4.28-3.42-4.27a3.7,3.7,0,0,0-2.89,1.19,5.15,5.15,0,0,0-1.08,3.55v9.06h-5.24V791.41h5v2.08a6.66,6.66,0,0,1,2.47-1.75,8.33,8.33,0,0,1,3.2-.6,7.81,7.81,0,0,1,3.46.75,6.23,6.23,0,0,1,2.49,2.2,7.46,7.46,0,0,1,2.8-2.18,8.93,8.93,0,0,1,3.71-.77A7.25,7.25,0,0,1,824.7,793.14Z" transform="translate(-528.61 -712.46)"/><path class="cls-3" d="M845.14,793.14q2.25,2,2.25,6v10.31h-4.91v-2.25c-1,1.68-2.82,2.52-5.5,2.52a8.52,8.52,0,0,1-3.61-.7,5.4,5.4,0,0,1-2.34-1.95,5,5,0,0,1-.8-2.82,4.7,4.7,0,0,1,1.89-4q1.9-1.45,5.86-1.45h4.17a3.33,3.33,0,0,0-1-2.63,4.59,4.59,0,0,0-3.13-.93,8.83,8.83,0,0,0-2.83.46,7.57,7.57,0,0,0-2.37,1.22l-1.88-3.66a11.32,11.32,0,0,1,3.54-1.61,15.9,15.9,0,0,1,4.25-.57C841.49,791.14,843.64,791.8,845.14,793.14Zm-4.47,12.45a3.39,3.39,0,0,0,1.48-1.83v-1.84h-3.6c-2.15,0-3.22.7-3.22,2.11a1.87,1.87,0,0,0,.79,1.6,3.58,3.58,0,0,0,2.17.59A4.5,4.5,0,0,0,840.67,805.59Z" transform="translate(-528.61 -712.46)"/><path class="cls-3" d="M852.39,788.05a2.84,2.84,0,0,1,0-4.17,3.76,3.76,0,0,1,4.7,0,2.58,2.58,0,0,1,.91,2,2.83,2.83,0,0,1-.91,2.16,3.67,3.67,0,0,1-4.7,0Zm-.27,3.36h5.24v18.06h-5.24Z" transform="translate(-528.61 -712.46)"/><path class="cls-3" d="M863.91,809.19a11.44,11.44,0,0,1-3.43-1.4l1.75-3.76a10.62,10.62,0,0,0,2.92,1.26,12,12,0,0,0,3.36.49c2.21,0,3.32-.55,3.32-1.65a1.16,1.16,0,0,0-.9-1.1,12.79,12.79,0,0,0-2.79-.57,27.7,27.7,0,0,1-3.66-.78,5.63,5.63,0,0,1-2.5-1.54,4.38,4.38,0,0,1-1.06-3.16,5,5,0,0,1,1-3,6.36,6.36,0,0,1,2.89-2.06,12.16,12.16,0,0,1,4.48-.74,17.51,17.51,0,0,1,3.81.42,10.42,10.42,0,0,1,3.14,1.16l-1.74,3.72a10.5,10.5,0,0,0-5.21-1.34,5.34,5.34,0,0,0-2.52.47,1.38,1.38,0,0,0-.84,1.21,1.21,1.21,0,0,0,.91,1.18,16.37,16.37,0,0,0,2.89.63,31.84,31.84,0,0,1,3.62.79,5.5,5.5,0,0,1,2.46,1.53,4.36,4.36,0,0,1,1,3.09,4.78,4.78,0,0,1-1,3,6.42,6.42,0,0,1-2.94,2,13.11,13.11,0,0,1-4.58.72A17.51,17.51,0,0,1,863.91,809.19Z" transform="translate(-528.61 -712.46)"/><path class="cls-3" d="M880.21,808.85a2.9,2.9,0,0,1-.92-2.16,2.85,2.85,0,0,1,.9-2.14,3.59,3.59,0,0,1,4.64,0,3,3,0,0,1,0,4.3,3.42,3.42,0,0,1-4.6,0ZM879.39,786h6.24l-1,15.34h-4.16Z" transform="translate(-528.61 -712.46)"/></g><path class="cls-4" d="M673,799.35l-14-17.8a0,0,0,0,0,0,0c-.29-.38-.69-.57-.88-.43h0L658,781c-.17-.23-.42-.34-.55-.24l-.08.06-.8-1-.3-.38.47-.35c.15-.11.14-.38,0-.59l-.57-.77-1-1.41a.44.44,0,0,0-.57-.18l-.55.41-1.06-1.33-.78-1a20.9,20.9,0,0,0,2.06-1.93,19.84,19.84,0,0,0,3.78-5.86c.23-.56.44-1.13.62-1.72a20.65,20.65,0,0,0,.54-2.09c.09-.48.16-1,.22-1.44,0-.23,0-.45.07-.67s0-.35,0-.52l0-.58c0-.42,0-.84,0-1.25a19.56,19.56,0,0,0-.74-4.81c0-.15-.08-.3-.13-.45-.13-.42-.27-.83-.43-1.24a19.72,19.72,0,0,0-1.36-2.86,20.12,20.12,0,0,0-6.11-6.54,20.37,20.37,0,0,0-4-2.1,20,20,0,0,0-15,.33,20.22,20.22,0,0,0-4.45,2.67l-.47.4V730.34H594.19a7.39,7.39,0,0,0-7.36-6.87c-.17,0-.33,0-.5,0s-.33,0-.5,0a7.38,7.38,0,0,0-7.35,6.87H553.24v85.57h22a9.43,9.43,0,0,0,0,5.08v0l.06.14c.07.24.15.47.24.7s.07.2.11.29c.13.3.28.59.44.88a.3.3,0,0,0,0,.08h0v0a9.27,9.27,0,0,0,2.14,2.54h0l.11.08a9.93,9.93,0,0,0,.93.67h0a8.43,8.43,0,0,0,1,.54l.26.12c.3.12.6.23.91.33l.2.06a8.62,8.62,0,0,0,1.12.25h.08a9.38,9.38,0,0,0,6.05-1.15c.26-.15.52-.32.76-.49a8.09,8.09,0,0,0,.83-.42,9.47,9.47,0,0,0,1.45-1,9.35,9.35,0,0,0,3.07-5.22,9.46,9.46,0,0,0,0-3.52h15l6.58,4.3v4.14a2.58,2.58,0,0,0,2.58,2.58h23.62a2.58,2.58,0,0,0,2.58-2.58V796.87a2.57,2.57,0,0,0-2.58-2.58h-.43v-1a2.24,2.24,0,0,0-2.14-2.23v-7.64l-.89-.95-.36.37-.35-.37-.86.91-.86-.91-.36.37-.35-.37-.53.57-3.07-5.64.33.13h0l.21.07.2.07.44.13.08,0,.24.06a9.23,9.23,0,0,0,2.47,1.54c.25.17.5.33.77.48a9.89,9.89,0,0,0,1.65.71,9.45,9.45,0,0,0,9.4-2.17,11.19,11.19,0,0,0,1-1.16l1,1.45.18.26-.56.41c-.15.11-.14.38,0,.59l1.62,2.18c.16.22.42.3.56.18l.47-.34h0l.09.12.19.27.74,1.06-.09.06c-.12.1-.09.36.08.6l.07.08,0,0c-.18.14-.1.58.18,1l1,1.38,12.26,17c.4.55.88.86,1.1.7L670,803l1.93-1.45,1.34-1C673.5,800.43,673.36,799.86,673,799.35Zm-84.54-70.73a2.55,2.55,0,0,1-.71,1.72H585a2.51,2.51,0,0,1-.71-1.72,2.11,2.11,0,1,1,4.14,0Zm65.39,21.81h0a1.76,1.76,0,0,1,.14.23c.18.32.35.65.51,1a15.88,15.88,0,0,1,1.24,3.59,16.67,16.67,0,0,1,.38,4.08,16.48,16.48,0,0,1-.84,4.68c-.11.32-.23.64-.35,1h0a2.33,2.33,0,0,1-.11.28h0c-.06.14-.12.27-.17.4-.15.32-.31.64-.48,1h0a12.77,12.77,0,0,0-5.85-11.81c-.24-.16-.49-.3-.74-.44a11.29,11.29,0,0,0-1.11-.53,10.59,10.59,0,0,0-1.07-.66l0,0h0l-.08,0a12.62,12.62,0,0,0-1.24-.58l-.35-.13c-.34-.13-.69-.24-1-.34l-.17,0h0a12.77,12.77,0,0,0-12.59,3.67,12.4,12.4,0,0,1,3.47-8.15,18,18,0,0,1,7.84-4.23,11,11,0,0,1-2.3-.23,15.45,15.45,0,0,0-2.45.18,15.25,15.25,0,0,0-4.8,1.59,13,13,0,0,0-4.78,4.51v-.89l.18-.22,0,0q.4-.48.84-.93a16.41,16.41,0,0,1,12.3-4.94h.42A16.46,16.46,0,0,1,653.8,750.43Zm.55-.21.12.22c0,.06.07.13.11.2a2,2,0,0,1,.13.25,17.4,17.4,0,0,0-2.54-3.59c.09.1.19.18.28.27A17.76,17.76,0,0,1,654.35,750.22Zm-2.23-3a17.78,17.78,0,0,0-3.3-2.81A17.1,17.1,0,0,1,652.12,747.25Z" transform="translate(-528.61 -712.46)"/><rect class="cls-5" x="27.43" y="16.49" width="69.38" height="85.57"/><rect class="cls-6" x="23.24" y="16.49" width="69.38" height="85.57"/><rect class="cls-7" x="28.24" y="20.68" width="61" height="77.19"/><rect class="cls-8" x="26.02" y="20.68" width="61" height="77.19"/><path class="cls-9" d="M598.39,729.63h-5.54v-.15a7.41,7.41,0,0,0-14.81,0v.15h-5.19a5.74,5.74,0,0,0-5.73,5.5h37A5.75,5.75,0,0,0,598.39,729.63Zm-15.5-2.4a2.57,2.57,0,1,1,3.45,2.4h-1.78A2.55,2.55,0,0,1,582.89,727.23Z" transform="translate(-528.61 -712.46)"/><path class="cls-10" d="M597.4,729.63h-5.54v-.15a7.41,7.41,0,0,0-14.82,0v.15h-5.18a5.75,5.75,0,0,0-5.74,5.5h37A5.74,5.74,0,0,0,597.4,729.63Zm-15.51-2.4a2.57,2.57,0,1,1,3.45,2.4h-1.78A2.55,2.55,0,0,1,581.89,727.23Z" transform="translate(-528.61 -712.46)"/><path class="cls-11" d="M572.37,739.29h7.25v2.22h-2.43v7.13h-2.47v-7.13h-2.35Z" transform="translate(-528.61 -712.46)"/><path class="cls-11" d="M581.64,739.29h2.92l2.83,9.35h-2.54l-.54-1.64h-2.52l-.53,1.64h-2.54Zm2.17,5.61-.68-2.51-.78,2.51Z" transform="translate(-528.61 -712.46)"/><path class="cls-11" d="M590.54,739.29l1.34,2.59,1.34-2.59H596L593.12,744l2.78,4.64h-2.74l-1.28-2.51-1.3,2.51h-2.75l2.8-4.64-2.83-4.71Z" transform="translate(-528.61 -712.46)"/><path class="cls-11" d="M560.79,751.87H565c1.66,0,2.86.67,2.86,3s-.72,2.55-1.38,2.8l1.61,3.54h-2.82L564,757.9l-.76-.18v3.49h-2.48Zm3.85,4c.66,0,.69-.33.69-1s-.12-.9-.69-.9h-1.36v1.89Z" transform="translate(-528.61 -712.46)"/><path class="cls-11" d="M568.64,754c0-1.93,1.48-2.17,2.38-2.17,0,0,2.68,0,4.17.2v2.08h-3.41c-.66,0-.66.37-.66.72v.56l3.43.14v2l-3.43.12v.56c0,.68.42.66.79.66h3.28V761c-1.32.18-4.05.22-4.05.22-.82,0-2.5-.14-2.5-2.1Z" transform="translate(-528.61 -712.46)"/><path class="cls-11" d="M575.63,751.87h7.25v2.22h-2.43v7.12H578v-7.12h-2.35Z" transform="translate(-528.61 -712.46)"/><path class="cls-11" d="M583.69,751.87h2.48v5.26c0,1.2,0,1.92,1.24,1.92s1.16-.78,1.16-1.92v-5.26h2.49v5.26c0,4.12-2.1,4.14-3.65,4.14-1.73,0-3.72.11-3.72-4.14Z" transform="translate(-528.61 -712.46)"/><path class="cls-11" d="M592.05,751.87h4.17c1.66,0,2.86.67,2.86,3s-.73,2.55-1.38,2.8l1.61,3.54h-2.82l-1.2-3.31-.77-.18v3.49h-2.47Zm3.85,4c.65,0,.69-.33.69-1s-.13-.9-.69-.9h-1.36v1.89Z" transform="translate(-528.61 -712.46)"/><path class="cls-11" d="M600,751.87h2.5l2.67,4.77v-4.77h2.48v9.34h-2.48l-2.68-4.65v4.65H600Z" transform="translate(-528.61 -712.46)"/><rect class="cls-12" x="29.84" y="55.18" width="2.73" height="38.64"/><rect class="cls-12" x="45.65" y="54.35" width="2.72" height="38.65"/><rect class="cls-12" x="63.92" y="54.35" width="2.73" height="38.65"/><rect class="cls-12" x="80.52" y="54.35" width="2.73" height="38.65"/><rect class="cls-12" x="29.84" y="53.29" width="53.41" height="2.73"/><rect class="cls-7" x="34.45" y="58.55" width="9.17" height="5.68"/><rect class="cls-7" x="51.43" y="58.55" width="9.17" height="5.68"/><rect class="cls-7" x="51.43" y="70.84" width="9.17" height="5.68"/><rect class="cls-12" x="29.84" y="65.89" width="53.41" height="2.73"/><rect class="cls-12" x="29.84" y="78.5" width="53.41" height="2.73"/><rect class="cls-12" x="30.94" y="91.1" width="52.31" height="2.73"/><polygon class="cls-13" points="115.23 86.67 113.88 87.39 92.06 47.23 93.39 46.52 115.23 86.67"/><rect class="cls-14" x="608.92" y="762.67" width="24.13" height="45.71" transform="translate(-828.31 -320.66) rotate(-28.52)"/><path class="cls-15" d="M606.3,773.23l12.34-6.71,17,31.31-12.33,6.71-17-31.31Zm-4.57-1.35L622,809.1l18.26-9.92L620,762l-18.26,9.92Z" transform="translate(-528.61 -712.46)"/><path class="cls-15" d="M618.59,802.91a7.05,7.05,0,0,1,9.57,2.82L622,809.1Z" transform="translate(-528.61 -712.46)"/><path class="cls-15" d="M605.1,778.08a7.07,7.07,0,0,0,2.84-9.57l-6.21,3.37Z" transform="translate(-528.61 -712.46)"/><path class="cls-15" d="M636.85,793a7.05,7.05,0,0,0-2.83,9.56l6.2-3.37Z" transform="translate(-528.61 -712.46)"/><path class="cls-15" d="M623.36,768.16a7.07,7.07,0,0,1-9.57-2.83L620,762Z" transform="translate(-528.61 -712.46)"/><path class="cls-15" d="M625.56,793.62a3.34,3.34,0,1,0,4.52,1.34A3.33,3.33,0,0,0,625.56,793.62Z" transform="translate(-528.61 -712.46)"/><path class="cls-15" d="M618,780.05a6.23,6.23,0,1,0,8.45,2.49A6.23,6.23,0,0,0,618,780.05Z" transform="translate(-528.61 -712.46)"/><path class="cls-15" d="M614.06,772.47a3.34,3.34,0,1,0,4.52,1.34A3.33,3.33,0,0,0,614.06,772.47Z" transform="translate(-528.61 -712.46)"/><path class="cls-16" d="M620.56,788.73a1.88,1.88,0,0,1-2.81-.87l-.8.44-.48-.89.81-.44a7.68,7.68,0,0,1-.61-1.78l1.2-.65c.25.59.76,1.62,1,2.08s.48.79,1,.5l.22-.11c.41-.23.48-.48.21-1l-.41-.76a1.89,1.89,0,0,1,1-2.7l.38-.21a1.93,1.93,0,0,1,3,.82l.78-.42.48.89-.78.42a5.64,5.64,0,0,1,.61,1.8l-1.19.64c-.17-.39-.61-1.35-1.09-2.21-.21-.4-.47-.66-.88-.44l-.27.15c-.34.18-.48.39-.24.85l.4.73a1.93,1.93,0,0,1-.91,2.82Z" transform="translate(-528.61 -712.46)"/><polygon class="cls-13" points="105.81 88.21 104.97 89.49 66.68 64.5 67.53 63.25 105.81 88.21"/><rect class="cls-14" x="595.78" y="776.7" width="24.13" height="45.71" transform="translate(-922.57 159.04) rotate(-56.86)"/><path class="cls-15" d="M589.08,795.7l7.68-11.76,29.84,19.48-7.68,11.76L589.08,795.7Zm-4.66,1,35.47,23.15,11.36-17.4-35.47-23.15-11.36,17.4Z" transform="translate(-528.61 -712.46)"/><path class="cls-15" d="M614,816a7,7,0,0,1,9.75-2.06l-3.86,5.91Z" transform="translate(-528.61 -712.46)"/><path class="cls-15" d="M590.33,800.54a7.06,7.06,0,0,0-2.05-9.77l-3.86,5.92Z" transform="translate(-528.61 -712.46)"/><path class="cls-15" d="M625.35,798.59a7,7,0,0,0,2,9.75l3.85-5.9Z" transform="translate(-528.61 -712.46)"/><path class="cls-15" d="M601.68,783.14a7.05,7.05,0,0,1-9.76,2.05l3.86-5.9Z" transform="translate(-528.61 -712.46)"/><path class="cls-15" d="M615.71,804.51a3.34,3.34,0,1,0,4.62-1A3.34,3.34,0,0,0,615.71,804.51Z" transform="translate(-528.61 -712.46)"/><path class="cls-15" d="M602.62,796.15a6.23,6.23,0,1,0,8.61-1.81A6.22,6.22,0,0,0,602.62,796.15Z" transform="translate(-528.61 -712.46)"/><path class="cls-15" d="M595.55,791.35a3.34,3.34,0,1,0,4.62-1A3.34,3.34,0,0,0,595.55,791.35Z" transform="translate(-528.61 -712.46)"/><path class="cls-16" d="M609,802.58a1.89,1.89,0,0,1-2.89.57l-.5.76-.85-.56.51-.77a7.59,7.59,0,0,1-1.38-1.27l.75-1.15c.5.41,1.43,1.07,1.87,1.36s.79.47,1.12,0l.14-.22c.25-.38.19-.65-.28-.95l-.71-.47a1.88,1.88,0,0,1-.43-2.83l.24-.38a1.93,1.93,0,0,1,3-.68l.48-.74.85.55-.48.75a5.22,5.22,0,0,1,1.38,1.29l-.74,1.13c-.33-.26-1.17-.9-2-1.44-.38-.24-.74-.35-1,0l-.17.27c-.21.32-.23.57.2.86l.69.45a1.93,1.93,0,0,1,.55,2.91Z" transform="translate(-528.61 -712.46)"/><path class="cls-9" d="M632.3,765.76A9.44,9.44,0,0,0,636,778.55l9-16.52A9.41,9.41,0,0,0,632.3,765.76Z" transform="translate(-528.61 -712.46)"/><path class="cls-9" d="M648.82,774.81a9.57,9.57,0,0,1-1.74,2.27,9.45,9.45,0,0,1-11,1.47l9-16.52c.19.1.38.21.55.32A9.42,9.42,0,0,1,648.82,774.81Z" transform="translate(-528.61 -712.46)"/><path class="cls-10" d="M643.48,761.15a9.42,9.42,0,1,0,3.74,12.78A9.41,9.41,0,0,0,643.48,761.15Z" transform="translate(-528.61 -712.46)"/><path class="cls-9" d="M632.09,765.65a7.82,7.82,0,0,0,3.1,10.62l7.53-13.73A7.83,7.83,0,0,0,632.09,765.65Z" transform="translate(-528.61 -712.46)"/><path class="cls-17" d="M642.72,762.54l-7.53,13.73a7.83,7.83,0,1,0,7.53-13.73Z" transform="translate(-528.61 -712.46)"/><path class="cls-10" d="M635.77,775.24a6.65,6.65,0,1,1,9-2.64A6.65,6.65,0,0,1,635.77,775.24Zm6.24-11.4a6.35,6.35,0,1,0,2.52,8.62A6.36,6.36,0,0,0,642,763.84Z" transform="translate(-528.61 -712.46)"/><path class="cls-10" d="M637.44,766.19a2.07,2.07,0,0,1,3.12-.84l.49-.88,1,.54-.49.88a8,8,0,0,1,1.6,1.29l-.72,1.31c-.59-.4-1.66-1-2.16-1.33s-.91-.45-1.22.11l-.14.25c-.25.45-.16.72.38,1l.82.45a2.07,2.07,0,0,1,.69,3.08l-.23.43a2.12,2.12,0,0,1-3.23,1l-.47.84-1-.54.47-.85a6.12,6.12,0,0,1-1.63-1.31l.72-1.29c.4.25,1.36.88,2.31,1.41.43.24.84.32,1.08-.12l.17-.29c.2-.37.21-.65-.29-.93l-.79-.44a2.12,2.12,0,0,1-.83-3.15Z" transform="translate(-528.61 -712.46)"/><g class="cls-18"><path class="cls-10" d="M641.36,760.3,632,763a8.83,8.83,0,0,0-1.33,1.84l12.75-3.73A9.4,9.4,0,0,0,641.36,760.3Z" transform="translate(-528.61 -712.46)"/><path class="cls-10" d="M646.08,763.24,629.64,768a9.54,9.54,0,0,0,.66,5.07l18-5.25A9.55,9.55,0,0,0,646.08,763.24Z" transform="translate(-528.61 -712.46)"/></g><path class="cls-9" d="M628.76,758a12.79,12.79,0,0,0,5.07,17.36L646.12,753A12.79,12.79,0,0,0,628.76,758Z" transform="translate(-528.61 -712.46)"/><path class="cls-9" d="M651.2,770.32a13.18,13.18,0,0,1-2.36,3.08,12.8,12.8,0,0,1-12.78,3,12.4,12.4,0,0,1-2.23-1L646.12,753c.26.14.5.29.74.44A12.8,12.8,0,0,1,651.2,770.32Z" transform="translate(-528.61 -712.46)"/><path class="cls-10" d="M644,751.76A12.79,12.79,0,1,0,649,769.12,12.8,12.8,0,0,0,644,751.76Z" transform="translate(-528.61 -712.46)"/><path class="cls-9" d="M628.47,757.87a10.63,10.63,0,0,0,4.22,14.44l10.22-18.66A10.62,10.62,0,0,0,628.47,757.87Z" transform="translate(-528.61 -712.46)"/><path class="cls-17" d="M642.91,753.65l-10.22,18.66a10.64,10.64,0,1,0,10.22-18.66Z" transform="translate(-528.61 -712.46)"/><path class="cls-10" d="M633.46,770.9a9,9,0,1,1,12.26-3.59A9.05,9.05,0,0,1,633.46,770.9ZM642,755.41a8.63,8.63,0,1,0,3.42,11.71A8.66,8.66,0,0,0,642,755.41Z" transform="translate(-528.61 -712.46)"/><path class="cls-10" d="M635.74,758.61c1.1-2,2.68-2,4.24-1.15l.66-1.19L642,757l-.67,1.2a10.65,10.65,0,0,1,2.18,1.75l-1,1.78c-.8-.54-2.25-1.43-2.94-1.81s-1.23-.61-1.65.16l-.19.34c-.34.6-.22,1,.52,1.39l1.11.61c2.06,1.14,1.56,3.07.94,4.18l-.32.59c-1.31,2.35-3,2.11-4.39,1.35l-.63,1.14-1.33-.74.64-1.15a8.38,8.38,0,0,1-2.2-1.78l1-1.76c.54.35,1.85,1.2,3.14,1.92.59.33,1.14.45,1.47-.15l.22-.4c.28-.5.29-.89-.39-1.27l-1.08-.59a2.88,2.88,0,0,1-1.12-4.29Z" transform="translate(-528.61 -712.46)"/><g class="cls-18"><path class="cls-10" d="M641.06,750.61l-12.67,3.7a12.75,12.75,0,0,0-1.8,2.5l17.33-5.06A12.93,12.93,0,0,0,641.06,750.61Z" transform="translate(-528.61 -712.46)"/><path class="cls-10" d="M647.47,754.6l-22.33,6.52A12.82,12.82,0,0,0,626,768l24.38-7.12A12.82,12.82,0,0,0,647.47,754.6Z" transform="translate(-528.61 -712.46)"/></g><path class="cls-9" d="M576.31,820.82a9.42,9.42,0,0,0,12.86,3.48L579.79,808A9.41,9.41,0,0,0,576.31,820.82Z" transform="translate(-528.61 -712.46)"/><path class="cls-9" d="M592.65,811.44a10,10,0,0,1,1,2.67,9.69,9.69,0,0,1,0,3.94,9.44,9.44,0,0,1-3.07,5.21,9.62,9.62,0,0,1-1.46,1L579.79,808c.19-.11.37-.21.56-.3A9.43,9.43,0,0,1,592.65,811.44Z" transform="translate(-528.61 -712.46)"/><path class="cls-10" d="M578.2,808.88a9.42,9.42,0,1,0,12.86,3.47A9.42,9.42,0,0,0,578.2,808.88Z" transform="translate(-528.61 -712.46)"/><path class="cls-9" d="M576.1,820.94a7.83,7.83,0,0,0,10.69,2.89L579,810.25A7.83,7.83,0,0,0,576.1,820.94Z" transform="translate(-528.61 -712.46)"/><path class="cls-17" d="M579,810.25l7.8,13.58a7.83,7.83,0,1,0-7.8-13.58Z" transform="translate(-528.61 -712.46)"/><path class="cls-10" d="M586.2,822.8a6.64,6.64,0,1,1,2.46-9.07A6.65,6.65,0,0,1,586.2,822.8Zm-6.47-11.26a6.35,6.35,0,1,0,8.67,2.34A6.34,6.34,0,0,0,579.73,811.54Z" transform="translate(-528.61 -712.46)"/><path class="cls-10" d="M579.36,816.66a2.06,2.06,0,0,1,.9-3.1l-.5-.88,1-.54.5.87a7.87,7.87,0,0,1,1.94-.69l.74,1.29c-.65.3-1.76.87-2.27,1.16s-.85.54-.53,1.1l.14.25c.25.44.53.51,1.07.2l.81-.46a2.07,2.07,0,0,1,3,1l.24.42c1,1.73.18,2.7-.83,3.28l.47.83-1,.55-.48-.84a6.19,6.19,0,0,1-2,.7l-.73-1.29c.42-.2,1.46-.7,2.41-1.24.43-.24.71-.54.47-1l-.17-.29c-.21-.36-.45-.52-.94-.24l-.79.45a2.11,2.11,0,0,1-3.12-.94Z" transform="translate(-528.61 -712.46)"/><g class="cls-18"><path class="cls-10" d="M576.37,810.25l-2.53,9.37a9.29,9.29,0,0,0,.88,2.09l3.47-12.82A9.49,9.49,0,0,0,576.37,810.25Z" transform="translate(-528.61 -712.46)"/><path class="cls-10" d="M581.34,807.75l-4.47,16.53a9.44,9.44,0,0,0,4.66,2.08l4.88-18.05A9.5,9.5,0,0,0,581.34,807.75Z" transform="translate(-528.61 -712.46)"/></g><rect class="cls-19" x="90.3" y="77.21" width="22.13" height="26.91" rx="2.24"/><rect class="cls-6" x="88.8" y="77.21" width="22.13" height="26.91" rx="2.24"/><polygon class="cls-12" points="110.29 69.58 109.4 68.63 108.18 69.92 106.97 68.63 105.75 69.92 104.53 68.64 103.32 69.92 102.1 68.64 100.89 69.92 99.93 68.91 99.67 68.64 98.45 69.92 97.24 68.64 96.02 69.92 94.8 68.64 93.59 69.92 92.37 68.64 91.16 69.93 90.14 68.85 90.15 91.45 91.16 92.52 92.38 91.23 93.59 92.52 94.81 91.23 96.02 92.52 97.24 91.23 98.46 92.52 99.67 91.23 99.94 91.51 100.89 92.52 102.1 91.23 103.32 92.52 104.54 91.23 105.75 92.52 106.97 91.23 108.19 92.52 109.4 91.23 110.3 92.18 110.29 69.58"/><polygon class="cls-8" points="109.59 69.58 108.7 68.63 107.48 69.92 106.27 68.63 105.05 69.92 103.83 68.64 102.61 69.92 101.4 68.64 100.18 69.92 99.23 68.91 98.97 68.64 97.75 69.92 96.53 68.64 95.32 69.92 94.1 68.64 92.88 69.92 91.67 68.64 90.45 69.93 89.44 68.85 89.44 91.45 90.45 92.52 91.67 91.23 92.89 92.52 94.1 91.23 95.32 92.52 96.53 91.23 97.75 92.52 98.97 91.23 99.23 91.51 100.18 92.52 101.4 91.23 102.62 92.52 103.83 91.23 105.05 92.52 106.27 91.23 107.48 92.52 108.7 91.23 109.59 92.18 109.59 69.58"/><rect class="cls-11" x="103.95" y="71.41" width="4.21" height="1.94"/><rect class="cls-11" x="103.82" y="75.21" width="4.21" height="1.93"/><path class="cls-6" d="M621.2,792.9a2.58,2.58,0,0,0-2.58,2.58V823a2.57,2.57,0,0,0,2.58,2.58h10.14V792.9Z" transform="translate(-528.61 -712.46)"/><path class="cls-6" d="M641.48,792.9H631.34v32.64h10.14a2.58,2.58,0,0,0,2.58-2.58V795.48A2.59,2.59,0,0,0,641.48,792.9Z" transform="translate(-528.61 -712.46)"/><rect class="cls-11" x="90.26" y="71.41" width="8.83" height="1.94"/><rect class="cls-11" x="99.09" y="71.41" width="3.32" height="1.94"/><rect class="cls-11" x="99.09" y="75.21" width="3.32" height="1.93"/><rect class="cls-11" x="90.26" y="75.21" width="8.83" height="1.93"/><rect class="cls-11" x="99.09" y="79.01" width="3.32" height="1.94"/><rect class="cls-11" x="90.26" y="79.01" width="8.83" height="1.93"/><rect class="cls-11" x="103.82" y="79.01" width="4.21" height="1.93"/><rect class="cls-11" x="99.44" y="86.31" width="8.59" height="3.18"/><path class="cls-20" d="M617.85,792.9a2.59,2.59,0,0,0-2.58,2.58V823a2.58,2.58,0,0,0,2.58,2.58H628V792.9Z" transform="translate(-528.61 -712.46)"/><path class="cls-20" d="M638.13,792.9H628v32.64h10.14a2.58,2.58,0,0,0,2.58-2.58V795.48A2.59,2.59,0,0,0,638.13,792.9Z" transform="translate(-528.61 -712.46)"/><path class="cls-12" d="M622.82,806.33h-4.2a.89.89,0,0,0-.89.9v2.23a.89.89,0,0,0,.89.89h4.2a.89.89,0,0,0,.9-.89v-2.23A.9.9,0,0,0,622.82,806.33Z" transform="translate(-528.61 -712.46)"/><path class="cls-12" d="M622.82,812h-4.2a.89.89,0,0,0-.89.9v2.23a.89.89,0,0,0,.89.89h4.2a.89.89,0,0,0,.9-.89V812.9A.9.9,0,0,0,622.82,812Z" transform="translate(-528.61 -712.46)"/><path class="cls-12" d="M622.8,817.54h-4.2a.9.9,0,0,0-.89.9v2.23a.89.89,0,0,0,.89.89h4.2a.89.89,0,0,0,.9-.89v-2.23A.9.9,0,0,0,622.8,817.54Z" transform="translate(-528.61 -712.46)"/><path class="cls-12" d="M630.12,806.31h-4.2a.89.89,0,0,0-.9.89v2.23a.9.9,0,0,0,.9.9h4.2a.89.89,0,0,0,.89-.9V807.2A.89.89,0,0,0,630.12,806.31Z" transform="translate(-528.61 -712.46)"/><path class="cls-12" d="M630.12,812h-4.2a.89.89,0,0,0-.9.89v2.24a.89.89,0,0,0,.9.89h4.2a.89.89,0,0,0,.89-.89v-2.24A.89.89,0,0,0,630.12,812Z" transform="translate(-528.61 -712.46)"/><path class="cls-12" d="M630.12,817.54h-4.2a.9.9,0,0,0-.9.9v2.23a.89.89,0,0,0,.9.89h4.2a.89.89,0,0,0,.89-.89v-2.23A.9.9,0,0,0,630.12,817.54Z" transform="translate(-528.61 -712.46)"/><path class="cls-12" d="M637.43,806.31h-4.2a.89.89,0,0,0-.9.89v2.23a.9.9,0,0,0,.9.9h4.2a.89.89,0,0,0,.89-.9V807.2A.89.89,0,0,0,637.43,806.31Z" transform="translate(-528.61 -712.46)"/><path class="cls-12" d="M637.43,812h-4.2a.89.89,0,0,0-.9.89v2.24a.89.89,0,0,0,.9.89h4.2a.89.89,0,0,0,.89-.89v-2.24A.89.89,0,0,0,637.43,812Z" transform="translate(-528.61 -712.46)"/><path class="cls-12" d="M637.43,817.54h-4.2a.9.9,0,0,0-.9.9v2.23a.89.89,0,0,0,.9.89h4.2a.89.89,0,0,0,.89-.89v-2.23A.9.9,0,0,0,637.43,817.54Z" transform="translate(-528.61 -712.46)"/><path class="cls-21" d="M622.2,806.33H618a.89.89,0,0,0-.89.9v2.23a.89.89,0,0,0,.89.89h4.2a.89.89,0,0,0,.89-.89v-2.23A.89.89,0,0,0,622.2,806.33Z" transform="translate(-528.61 -712.46)"/><path class="cls-21" d="M622.2,812H618a.89.89,0,0,0-.89.9v2.23a.89.89,0,0,0,.89.89h4.2a.89.89,0,0,0,.89-.89V812.9A.89.89,0,0,0,622.2,812Z" transform="translate(-528.61 -712.46)"/><path class="cls-21" d="M622.18,817.54H618a.9.9,0,0,0-.9.9v2.23a.89.89,0,0,0,.9.89h4.2a.89.89,0,0,0,.89-.89v-2.23A.9.9,0,0,0,622.18,817.54Z" transform="translate(-528.61 -712.46)"/><path class="cls-21" d="M629.49,806.31h-4.2a.89.89,0,0,0-.89.89v2.23a.89.89,0,0,0,.89.9h4.2a.9.9,0,0,0,.9-.9V807.2A.9.9,0,0,0,629.49,806.31Z" transform="translate(-528.61 -712.46)"/><path class="cls-21" d="M629.49,812h-4.2a.89.89,0,0,0-.89.89v2.24a.89.89,0,0,0,.89.89h4.2a.9.9,0,0,0,.9-.89v-2.24A.9.9,0,0,0,629.49,812Z" transform="translate(-528.61 -712.46)"/><path class="cls-21" d="M629.49,817.54h-4.2a.9.9,0,0,0-.89.9v2.23a.89.89,0,0,0,.89.89h4.2a.9.9,0,0,0,.9-.89v-2.23A.91.91,0,0,0,629.49,817.54Z" transform="translate(-528.61 -712.46)"/><path class="cls-21" d="M636.81,806.31h-4.2a.89.89,0,0,0-.9.89v2.23a.9.9,0,0,0,.9.9h4.2a.89.89,0,0,0,.89-.9V807.2A.89.89,0,0,0,636.81,806.31Z" transform="translate(-528.61 -712.46)"/><path class="cls-21" d="M636.81,812h-4.2a.89.89,0,0,0-.9.89v2.24a.89.89,0,0,0,.9.89h4.2a.89.89,0,0,0,.89-.89v-2.24A.89.89,0,0,0,636.81,812Z" transform="translate(-528.61 -712.46)"/><path class="cls-21" d="M636.81,817.54h-4.2a.9.9,0,0,0-.9.9v2.23a.89.89,0,0,0,.9.89h4.2a.89.89,0,0,0,.89-.89v-2.23A.9.9,0,0,0,636.81,817.54Z" transform="translate(-528.61 -712.46)"/><rect class="cls-11" x="88.34" y="82.86" width="22.26" height="8.4" rx="2.13"/><path class="cls-21" d="M626.75,798.69l.8-.5h1v4.4h-1v-3.44l-.79.17Z" transform="translate(-528.61 -712.46)"/><path class="cls-21" d="M629,798.35a6.05,6.05,0,0,1,2-.17,1,1,0,0,1,1.11,1.08v.28a.8.8,0,0,1-.49.86c.35.13.49.46.49.91v.22a1,1,0,0,1-1.16,1.1,5.82,5.82,0,0,1-1.87-.17v-.73h1.44c.42,0,.6,0,.6-.36v-.13c0-.32-.2-.37-.57-.38l-1.1-.05V800l1.1-.06c.41,0,.58-.07.58-.37v-.14c0-.32-.27-.36-.58-.36H629Z" transform="translate(-528.61 -712.46)"/><path class="cls-21" d="M632.49,799c0-.51.21-.8.82-.8h.61a.7.7,0,0,1,.8.8v.71c0,.51-.21.79-.81.79h-.61c-.59,0-.81-.28-.81-.79Zm.92.84h.38c.24,0,.27-.1.27-.27v-.44c0-.22-.07-.27-.25-.27h-.39c-.18,0-.27,0-.27.27v.44C633.15,799.73,633.19,799.83,633.41,799.83Zm2.82-1.64h.66l-2.67,4.4h-.7Zm-.52,2.88c0-.51.21-.8.82-.8h.6c.59,0,.81.29.81.8v.71c0,.5-.21.79-.81.79h-.62c-.58,0-.8-.29-.8-.79Zm.92.84H637c.24,0,.28-.1.28-.27v-.44c0-.22-.09-.27-.27-.27h-.38c-.18,0-.27.05-.27.27v.44C636.37,801.81,636.41,801.91,636.63,801.91Z" transform="translate(-528.61 -712.46)"/><path class="cls-15" d="M638.89,796.33a2.14,2.14,0,0,0-1.48-.61h-18a2.14,2.14,0,0,0-2.13,2.13V802a2.18,2.18,0,0,0,.31,1.12,2.16,2.16,0,0,1-.64-1.52v-4.15a2.13,2.13,0,0,1,2.13-2.13h18A2.14,2.14,0,0,1,638.89,796.33Z" transform="translate(-528.61 -712.46)"/><g class="cls-22"><path class="cls-23" d="M622.91,795.32,617,802a2.13,2.13,0,0,0,.77,1.3l7.22-7.93Z" transform="translate(-528.61 -712.46)"/><polygon class="cls-23" points="98.8 82.86 91.12 91.25 99.52 91.25 107.21 82.86 98.8 82.86"/></g><g id="_8" data-name="8"><path class="cls-24" d="M656.63,780.77l-.46.34h0l-1.93,1.44-.73.54c-.14.11-.39,0-.55-.22l-.17-.24-.37-.53-.74-1.05-.19-.28-.08-.12h0l-2.12-3-.18-.25L647.47,775l-.27-.38a.36.36,0,0,1,0-.48l.53-.39,1.93-1.44.23-.16c.11-.09.32,0,.45.13l.43.54.78,1,1.05,1.33,1.64,2.06.65.84.3.37.8,1,.4.5.19.23C656.75,780.4,656.77,780.66,656.63,780.77Z" transform="translate(-528.61 -712.46)"/><path class="cls-25" d="M658.47,782.6l-.77.58-1.93,1.44-1,.77c-.13.09-.38,0-.55-.25l-.22-.29-1.48-2-.07-.09c-.17-.23-.21-.5-.08-.6l.08-.06,1-.71,1.93-1.44.68-.5.09-.07c.12-.1.37,0,.54.25l.07.09.64.86,1.06,1.43C658.57,782.24,658.6,782.51,658.47,782.6Z" transform="translate(-528.61 -712.46)"/><path class="cls-6" d="M671.88,799.21l-1.33,1-1.94,1.45L667,802.89c-.22.16-.71-.15-1.1-.69l-12.26-17-1-1.38c-.28-.39-.37-.83-.18-1h0l.31-.22,1-.72,0,0,1.89-1.41,0,0,.65-.5.3-.22h0c.19-.13.58.06.88.44h0l14,17.8C672,798.48,672.12,799.05,671.88,799.21Z" transform="translate(-528.61 -712.46)"/><polygon class="cls-25" points="126.58 65.97 125.93 66.46 124 67.89 123.07 68.59 122.88 68.31 122.8 68.19 122.8 68.19 120.68 65.17 120.5 64.92 120.41 64.77 120.96 64.36 121.23 64.16 123.17 62.72 123.69 62.33 123.99 62.7 125.63 64.77 126.28 65.6 126.58 65.97"/><path class="cls-6" d="M655.36,777.71l-.47.35-.63.47L652.32,780l-.33.24-.58.44-.47.35a.43.43,0,0,1-.56-.18l-1.63-2.18a.44.44,0,0,1,0-.6l.55-.41h0l.84-.62,1.93-1.44.54-.41h0l.56-.41a.43.43,0,0,1,.56.18l1,1.41.58.78A.43.43,0,0,1,655.36,777.71Z" transform="translate(-528.61 -712.46)"/><polygon class="cls-20" points="141.94 87.75 140 89.18 125.19 69.42 127.09 68.01 127.13 67.98 141.94 87.75"/><path class="cls-21" d="M653.21,765.5c-.17.31-.35.62-.53.92-.07.1-.13.2-.2.29a4,4,0,0,1-.23.34h0c-.1.15-.2.3-.31.44l-.23.31a1.84,1.84,0,0,0-.17.22l-.1.12h0l-.07.09-.15.18c-.22.25-.44.5-.67.74l-.12.12-.24.25h0l-.74.68-.12.11-.27.22c-.26.21-.52.42-.79.61l0,0-.09.07-.19.13-.1.07h0l-.22.15L647,772a1,1,0,0,0-.15.1l-.12.06-.19.11c-.31.17-.61.33-.93.48l-.16.07-.33.16-1,.4-.18.07-.23.07h0l-.12,0c-.36.12-.72.23-1.08.32l-.19,0h0l-.21.05H642l-.13,0c-.35.08-.7.14-1,.2h-.07l-.7.09q-.71.07-1.41.09h-1.15l-.6,0-.53,0-.22,0-.66-.09-.6-.11-.2,0h0l-.27-.06-.45-.11h0l-.06,0a14.46,14.46,0,0,1-1.46-.44l-.2-.08-.27-.1-.2-.08-.12,0-.36-.15-.31-.15h0l-.34-.16a11,11,0,0,1-1.12-.62l-.19-.11-.2-.12-.68-.46-.2-.14,0,0q-.54-.4-1.05-.84l-.12-.1-.13-.12h0l-.06-.05-.59-.56a16,16,0,0,1-1.35-1.5l-.27-.35a.44.44,0,0,1-.08-.11,1.33,1.33,0,0,1-.14-.19c-.25-.33-.48-.68-.7-1v0l-.08-.12-.32-.57-.39-.74c-.16-.33-.31-.67-.45-1s-.24-.59-.34-.9a.42.42,0,0,0,0-.1c0-.08-.05-.15-.07-.23s-.09-.27-.13-.41v0s0,0,0,0h0a1.21,1.21,0,0,1,0-.18,15.49,15.49,0,0,1-.47-2.27.19.19,0,0,1,0-.08c-.05-.34-.08-.67-.11-1h0c0-.53,0-1.06,0-1.6a1.09,1.09,0,0,0,0-.18c0-.08,0-.16,0-.25a.76.76,0,0,1,0-.15,1.09,1.09,0,0,1,0-.18l0-.48c0-.15,0-.3.05-.46s0,0,0,0a.17.17,0,0,1,0-.07,16.57,16.57,0,0,1,1.17-4.38c.14-.34.3-.68.46-1s.24-.47.37-.7.32-.55.48-.82l.1-.15.4-.59.11-.15c.15-.2.29-.4.45-.6l.28-.34h0l.09-.1a17,17,0,0,1,10.89-5.88h0a16.33,16.33,0,0,1,2.63-.12A17,17,0,0,1,653,748.84l.12.21.11.2.14.25.08.16a16,16,0,0,1,.73,1.64l.08.21c0,.13.1.27.14.41s0,.13.07.2a12.33,12.33,0,0,1,.37,1.32q.11.42.18.84c0,.25.09.52.13.77h0a17.84,17.84,0,0,1,.15,2.32c0,.19,0,.38,0,.57s0,.39,0,.58h0a16.64,16.64,0,0,1-.55,3.34h0l0,0a1,1,0,0,1,0,.14,5.76,5.76,0,0,1-.18.59c-.09.29-.19.57-.29.85h0c-.07.17-.14.35-.22.52A15.48,15.48,0,0,1,653.21,765.5Zm3.39-.45a17.52,17.52,0,0,0,.63-1.71,21.5,21.5,0,0,0,.53-2.1c.09-.47.17-1,.23-1.44,0-.22,0-.44.07-.67s0-.34,0-.52,0-.38,0-.58c0-.42,0-.83,0-1.25a19.63,19.63,0,0,0-.74-4.81c0-.15-.08-.29-.12-.44-.13-.43-.27-.84-.43-1.24a19.39,19.39,0,0,0-1.37-2.87,19.88,19.88,0,0,0-6.11-6.53,19.12,19.12,0,0,0-4-2.1,19.92,19.92,0,0,0-19.42,3,19.92,19.92,0,0,0-6.34,8.76l0,.08h0q-.22.63-.42,1.29c-.09.33-.18.65-.25,1a20.17,20.17,0,0,0-.41,6.52c0,.27.06.54.1.8s.09.59.14.88.13.62.2.93a20.3,20.3,0,0,0,.66,2.18c.09.27.2.54.31.81a17,17,0,0,0,.93,1.92c.13.25.26.49.41.72a19.64,19.64,0,0,0,1.15,1.71,1.83,1.83,0,0,0,.13.16c.12.16.24.32.37.47a19.51,19.51,0,0,0,1.36,1.51l.47.44h0l.11.11a19.32,19.32,0,0,0,1.57,1.3c.22.17.44.32.67.48s.7.46,1.06.67l.48.28.25.14.55.29.21.09a4.39,4.39,0,0,0,.44.21l.19.09c.46.2.93.38,1.41.56h0l.2.07.21.07.43.14.08,0c.47.14,1,.27,1.44.37l.23,0,.1,0,.44.08h.06l1,.15h.11l.25,0,.28,0,1,.06h1.22c.4,0,.79,0,1.19-.06l.47,0,.31,0a21,21,0,0,0,2.78-.54c.59-.16,1.17-.35,1.74-.56s1.23-.49,1.82-.77l.51-.26.84-.47a22.48,22.48,0,0,0,2-1.34l.46-.37a19.69,19.69,0,0,0,5.83-7.79Z" transform="translate(-528.61 -712.46)"/><path class="cls-26" d="M653.92,764.89a17.76,17.76,0,0,0,.93-11.48,18.13,18.13,0,0,0-.57-1.81c0-.09-.07-.18-.11-.27a17.85,17.85,0,0,0-.76-1.67l-.08-.16a17.78,17.78,0,0,0-5.89-6.44,17.7,17.7,0,0,0-12.37-2.65h0a17.62,17.62,0,0,0-11.28,6.81c-.21.29-.42.58-.63.89-.08.14-.17.27-.26.41l0,.05-.17.28q-.27.45-.51.93l-.21.41h0l-.09.21h0a17.45,17.45,0,0,0-1.58,6.08l0,.57c0,.06,0,.12,0,.19v.11q0,.52,0,1h0a18,18,0,0,0,.29,2.66c.06.32.13.65.21,1a17.49,17.49,0,0,0,5.25,8.82h0a17.84,17.84,0,0,0,4,2.75l.41.19a15,15,0,0,0,1.61.65,14.77,14.77,0,0,0,2,.56,17.48,17.48,0,0,0,1.76.3c.43.05.87.09,1.31.11h.18c.34,0,.69,0,1,0a17.59,17.59,0,0,0,14.15-7.84c.19-.29.38-.59.56-.89l.14-.26c.1-.17.2-.35.29-.53h0C653.61,765.57,653.77,765.23,653.92,764.89ZM652.42,749h0c.05.08.09.16.13.24.18.31.36.64.52,1a17,17,0,0,1,1.24,3.6,16.55,16.55,0,0,1,.37,4.07,16.35,16.35,0,0,1-.83,4.68c-.11.33-.23.65-.36,1h0c0,.09-.07.18-.11.27h0l-.18.4c-.15.32-.31.63-.48,1a16.5,16.5,0,0,1-4.55,5.31c-.28.21-.57.42-.86.61a16.43,16.43,0,0,1-9.61,2.72l-.43,0a16.93,16.93,0,0,1-2.95-.44,18.7,18.7,0,0,1-1.84-.57c-.34-.13-.67-.26-1-.41l-.44-.21q-.63-.3-1.23-.66a17.66,17.66,0,0,1-2.44-1.78h0l-.26-.23c-.35-.32-.68-.65-1-1s-.76-.88-1.11-1.35a16.91,16.91,0,0,1-1.57-2.58l-.36-.8c-.18-.42-.34-.85-.48-1.28a14.5,14.5,0,0,1-.43-1.6c-.12-.54-.21-1.09-.28-1.65a16,16,0,0,1-.09-2.4c0-.28,0-.55.05-.82s0-.33,0-.49,0-.2,0-.3c0-.34.1-.68.16-1a16.3,16.3,0,0,1,2.33-5.76,8.73,8.73,0,0,1,.5-.74.76.76,0,0,1,.11-.14c.19-.26.38-.51.58-.75l0,0q.4-.48.84-.93a16.43,16.43,0,0,1,12.29-4.94l.43,0h0A16.46,16.46,0,0,1,652.42,749Z" transform="translate(-528.61 -712.46)"/></g><path id="_9" data-name="9" class="cls-27" d="M623.09,761.68a15.21,15.21,0,0,1,.44-10c1.41-3.4,3.38-6.44,6.67-8.19a15,15,0,0,1,7.26-1.76,10.91,10.91,0,0,0,2.3.22,18,18,0,0,0-7.84,4.24,12.62,12.62,0,0,0-3.42,10.39,11.88,11.88,0,0,0,1.91,5.2c1.15,1.72,3.07,2.59,4.23,4.23a5.76,5.76,0,0,1,1.27,3.64c-.25,3.95-4.83,2.28-6.82.82A16.55,16.55,0,0,1,623.09,761.68Z" transform="translate(-528.61 -712.46)"/></g></g></svg>