<svg id="Banco_Home" data-name="Banco Home" xmlns="http://www.w3.org/2000/svg" viewBox="0 0 1280 720"><defs><style>.cls-1{fill:#1d1d1b;}.cls-2{fill:#2b2929;}.cls-3{fill:#f9b036;}.cls-4{fill:#fd772b;}.cls-5{fill:#fdda2b;}</style></defs><title>Background</title><g id="BASE"><rect class="cls-1" x="6" y="6" width="1268" height="708" rx="14"/><path class="cls-2" d="M1580.5,194a8,8,0,0,1,8,8V882a8,8,0,0,1-8,8H340.5a8,8,0,0,1-8-8V202a8,8,0,0,1,8-8h1240m0-12H340.5a20,20,0,0,0-20,20V882a20,20,0,0,0,20,20h1240a20,20,0,0,0,20-20V202a20,20,0,0,0-20-20Z" transform="translate(-320.5 -181.95)"/></g><circle class="cls-3" cx="640" cy="5.32" r="3.54"/><circle class="cls-4" cx="654.18" cy="5.56" r="3.54"/><circle class="cls-5" cx="625.82" cy="5.32" r="3.54"/></svg>