<svg id="Profile" xmlns="http://www.w3.org/2000/svg" xmlns:xlink="http://www.w3.org/1999/xlink" viewBox="0 0 128 144.2"><defs><style>.cls-1{fill:none;}.cls-2{fill:#ededed;stroke:#fd772b;stroke-miterlimit:10;stroke-width:3px;}.cls-3{clip-path:url(#clip-path);}.cls-13,.cls-4{fill:#fd772b;}.cls-10,.cls-11,.cls-12,.cls-4,.cls-5,.cls-6,.cls-8,.cls-9{fill-rule:evenodd;}.cls-5{fill:#fbbeac;}.cls-6{fill:#ed8e86;}.cls-7,.cls-9{fill:#333;}.cls-8{fill:#fbddd3;}.cls-10{fill:#483d5b;}.cls-11{fill:#fff;}.cls-12{fill:#fa6676;}.cls-14{fill:#f9b036;}</style><clipPath id="clip-path" transform="translate(-1350.69 -243.03)"><rect id="Photo" class="cls-1" x="1359.77" y="244.53" width="125" height="123.51" rx="5"/></clipPath></defs><title>Female</title><rect id="Photo-2" data-name="Photo" class="cls-2" x="1.5" y="1.5" width="125" height="125" rx="8"/><g id="Photo-3" data-name="Photo"><g class="cls-3"><path class="cls-4" d="M1379,363.45c-3.34-2.17-8.52-7.65-5.33-18.58,0,0-7-11.78-2.92-22.62s7.55-13.28,7.36-26.89,10.43-45.83,37.21-35.38a12.24,12.24,0,0,1,5.67-.76c2.56.45,5.36,3.68,5.36,3.68s6.58-.15,9.35,8.16a4.64,4.64,0,0,1,2.72,4.57s5.07,11.63,11.89,19.62,13.85,20,6.69,33.37-11.24,18.08-7,27.23a.59.59,0,0,1-.21.91c-.39.19-4.83-1.15-8.15-5.33-11.94,13-36.3,24.54-49.13,21.4-7.26-1.77-11.31-5.62-13.56-9.38Z" transform="translate(-1350.69 -243.03)"/><path class="cls-5" d="M1456.31,372v-7.24a14.51,14.51,0,0,0-14.48-14.47h-56.39A14.5,14.5,0,0,0,1371,364.78V372a67.46,67.46,0,0,0,85.34,0Z" transform="translate(-1350.69 -243.03)"/><path class="cls-5" d="M1413.64,316.26h0a11.71,11.71,0,0,1,11.68,11.68v22.37A11.71,11.71,0,0,1,1413.64,362h0A11.71,11.71,0,0,1,1402,350.31V327.94a11.71,11.71,0,0,1,11.68-11.68Z" transform="translate(-1350.69 -243.03)"/><path class="cls-6" d="M1413.64,316.26h0a11.71,11.71,0,0,1,11.68,11.68v18.5a21,21,0,0,1-8.55,1.81c-5.48,0-10.61-2.7-14.81-6.77V327.94a11.71,11.71,0,0,1,11.68-11.68Z" transform="translate(-1350.69 -243.03)"/><path class="cls-6" d="M1439.11,306a3.33,3.33,0,0,1,.55.1h0a7.41,7.41,0,1,1-6.22,1.44c-.21,2.19.13,4.91,2.93,5.22l0-4.28a2.54,2.54,0,0,1,2.79-2.48Z" transform="translate(-1350.69 -243.03)"/><path class="cls-6" d="M1388.27,305.63l-.55.08h0a7.44,7.44,0,1,0,6.19,1.54c.18,2.19-.18,4.91-3,5.17l.11-4.31a2.52,2.52,0,0,0-2.74-2.48Z" transform="translate(-1350.69 -243.03)"/><path class="cls-5" d="M1413.64,343.2c-13.88,0-25.45-17.11-25.45-30.65V294.6a25.52,25.52,0,0,1,25.45-25.45h0a25.52,25.52,0,0,1,25.45,25.45v17.59c0,14.81-10.09,31-25.45,31Z" transform="translate(-1350.69 -243.03)"/><path class="cls-6" d="M1428.14,316.89a4.84,4.84,0,1,0,4.91,4.75,4.82,4.82,0,0,0-4.91-4.75Z" transform="translate(-1350.69 -243.03)"/><path class="cls-6" d="M1398.93,317.44a4.85,4.85,0,1,0,4.93,4.75,4.84,4.84,0,0,0-4.93-4.75Z" transform="translate(-1350.69 -243.03)"/><path class="cls-7" d="M1406.06,299.72a1.06,1.06,0,1,1-.86,1.94,7,7,0,0,0-6.3.42,1.08,1.08,0,0,1-1.15-1.84,9.28,9.28,0,0,1,8.31-.52Z" transform="translate(-1350.69 -243.03)"/><path class="cls-7" d="M1431.25,300.19a1.07,1.07,0,1,1-1,1.86,7,7,0,0,0-6.29-.11,1.07,1.07,0,1,1-1-1.88,9.28,9.28,0,0,1,8.34.13Z" transform="translate(-1350.69 -243.03)"/><path class="cls-8" d="M1414.32,315.32a25.63,25.63,0,0,1,1.25,4.18c-.1.53-2.93.68-3.66-.13-.49-.55.11-2.58.66-3.92.73-1.83,1.12-1.93,1.75-.13Z" transform="translate(-1350.69 -243.03)"/><path class="cls-9" d="M1425.84,314.72a3,3,0,0,0,3-3,2.69,2.69,0,0,0-.08-.65l.34-.13a2.93,2.93,0,0,0,1.07-.68.38.38,0,0,0,0-.53.41.41,0,0,0-.55,0,2.58,2.58,0,0,1-1,.6v0a2.23,2.23,0,0,0,.94-1,.41.41,0,0,0-.16-.53.39.39,0,0,0-.52.16,1.6,1.6,0,0,1-.79.76l0,0a1.55,1.55,0,0,0,.55-.84.39.39,0,0,0-.27-.46.41.41,0,0,0-.47.26.91.91,0,0,1-.39.55,3,3,0,0,0-1.67-.5,3,3,0,1,0,0,6.06Z" transform="translate(-1350.69 -243.03)"/><path class="cls-9" d="M1401.43,314.72a3,3,0,0,1-3-3,2.69,2.69,0,0,1,.08-.65l-.36-.13a2.86,2.86,0,0,1-1-.68.38.38,0,0,1,0-.53.41.41,0,0,1,.55,0,2.49,2.49,0,0,0,1.05.6v0a2.18,2.18,0,0,1-.94-1,.39.39,0,0,1,.16-.53.35.35,0,0,1,.49.16,1.72,1.72,0,0,0,.81.76l0,0a1.45,1.45,0,0,1-.55-.84.36.36,0,0,1,.26-.46.41.41,0,0,1,.47.26.87.87,0,0,0,.39.55,3,3,0,0,1,1.67-.5,3,3,0,1,1,0,6.06Z" transform="translate(-1350.69 -243.03)"/><path class="cls-10" d="M1419,326.61a5.36,5.36,0,1,1-10.71,0,1,1,0,0,1,1-1H1418a1,1,0,0,1,1,1Z" transform="translate(-1350.69 -243.03)"/><path class="cls-11" d="M1409.82,325.62h7.63v.91a.84.84,0,0,1-.83.86h-6a.85.85,0,0,1-.84-.86Z" transform="translate(-1350.69 -243.03)"/><path class="cls-12" d="M1417.5,330.29a5.29,5.29,0,0,1-7.73,0,5.31,5.31,0,0,1,7.73,0Z" transform="translate(-1350.69 -243.03)"/><path class="cls-7" d="M1430,350.31c0,.1,0,.18,0,.29,0,3.39-2,6.4-5.2,8.52a21.82,21.82,0,0,1-22.42,0c-3.22-2.12-5.2-5.13-5.2-8.52a1.37,1.37,0,0,1,0-.29H1402v.29c0,1.72,1.15,3.34,3,4.57a17.29,17.29,0,0,0,17.3,0c1.88-1.23,3-2.85,3-4.57v-.29Z" transform="translate(-1350.69 -243.03)"/><path class="cls-9" d="M1413.64,361.05l14.32-6.48a28.2,28.2,0,0,0,12.54,18.5l1.67,7.84a67.58,67.58,0,0,1-57.07,0l1.68-7.84a28.25,28.25,0,0,0,12.54-18.5Z" transform="translate(-1350.69 -243.03)"/><path class="cls-13" d="M1435.82,304.5c-2.27-.41-10.14-1.28-15.13-.36s-4.39,2.06-4.34,2.51a4.93,4.93,0,0,0-2.63-.68,4.87,4.87,0,0,0-2.64.68c.05-.45.52-1.62-4.34-2.51-5-.92-12.94-.05-15.21.36a12.32,12.32,0,0,0-3.34,1V308a1.47,1.47,0,0,1,1.62.55c.57.73.75,1.36,1.46,1.65a18.8,18.8,0,0,0,.78,5.93,6.3,6.3,0,0,0,4.6,4.34,14.51,14.51,0,0,0,3.74.47,12.32,12.32,0,0,0,3.79-.53,7.64,7.64,0,0,0,5-5.43,19.71,19.71,0,0,0,.81-6.35.51.51,0,0,0,.52-.16h0c.06,0,.08-.07.11-.13a4.15,4.15,0,0,1,3.06-1.07,4,4,0,0,1,3,1.07c0,.06,0,.11,0,.13h-.08a.72.72,0,0,0,.63.16,19.73,19.73,0,0,0,.86,6.35,7.64,7.64,0,0,0,5,5.43,12.54,12.54,0,0,0,3.81.53,14.4,14.4,0,0,0,3.74-.47,6.3,6.3,0,0,0,4.6-4.34,18.52,18.52,0,0,0,.78-5.93c.71-.29.81-.92,1.39-1.65a1.35,1.35,0,0,1,1.54-.55v-2.48a10.69,10.69,0,0,0-3.27-1Zm-27.15,10.27h0a7,7,0,0,1-4.65,5.1,13.77,13.77,0,0,1-7.21.05,5.75,5.75,0,0,1-4.26-4,19.35,19.35,0,0,1-.73-6.2c.18-1,.68-2.9,2-3.63,1.8-1,5.67-1.57,9.54-.91s5.36,1.62,6,2.77l.07.1a15.91,15.91,0,0,1-.73,6.74Zm26.21,1.13h0a5.76,5.76,0,0,1-4.23,4,13.88,13.88,0,0,1-7.24-.05,7.08,7.08,0,0,1-4.65-5.1c-.81-2.85-1-5.67-.71-6.74,0,0,0-.08.06-.1.62-1.15,2.11-2.12,6-2.77s7.73-.05,9.54.91c1.33.73,1.83,2.67,2,3.63a18.8,18.8,0,0,1-.73,6.2Z" transform="translate(-1350.69 -243.03)"/><path class="cls-4" d="M1445.1,301l-2.54,6.4s-3.47-1-3.47,3.82c0,0-3.66-2.46-2.33-8.31,0,0-9.12-11.05-7.18-19,0,0,.6-1.94-.71-2.17s-12.36,33.73-35.07,15.94c0,0,.68,9.95-5.61,11.63,0,0-1.31-3.9-3.58-2.15,0,0-3.95-21.4,1.72-30.1s12.49-17.43,24.62-16.28,35.19,11.74,34.15,40.24Z" transform="translate(-1350.69 -243.03)"/><path class="cls-14" d="M1432.27,265.47c-9.8,13.77-27.39,30.67-54.2,29.73a45,45,0,0,1,1.49-10.82c23.89,1.39,40-10.32,49.49-20.9a9.57,9.57,0,0,1,3.22,2Z" transform="translate(-1350.69 -243.03)"/></g></g></svg>