<svg id="Lateral" xmlns="http://www.w3.org/2000/svg" viewBox="0 0 100 669.69"><defs><style>.cls-1{fill:#f9b036;}.cls-2{fill:#bfbfbf;}.cls-3{fill:#fff;}</style></defs><title>Lateral + Logo</title><g id="Lateral-2" data-name="Lateral"><rect id="LATERAL-3" data-name="LATERAL" class="cls-1" width="100" height="669.69" rx="10"/><path id="LATERAL-4" data-name="LATERAL" class="cls-2" d="M0,89.61H100a0,0,0,0,1,0,0V659.69a10,10,0,0,1-10,10H10a10,10,0,0,1-10-10V89.61A0,0,0,0,1,0,89.61Z"/></g><polygon class="cls-3" points="16.76 24.76 18.81 22.7 18.81 18.12 20.86 16.07 83.24 16.07 81.19 18.12 81.19 22.7 79.14 24.76 63.81 24.76 59.71 28.86 59.71 66.14 57.66 68.19 51.02 68.19 48.97 68.19 51.02 66.14 51.02 28.86 55.13 24.76 16.76 24.76"/><path class="cls-3" d="M419.15,231.9l-2,2v48l-2.05,2h8.69l2.05-2V255.92l2,2v24l-2,2h8.68l2.06-2V234l2.05-2Zm8.69,17.38-2-2.06v-6.63h2Z" transform="translate(-355.34 -205.09)"/><path class="cls-3" d="M376.19,231.9l-2.05,2v48l-2.05,2h8.69l2.05-2V258l2.05-2.05V282l-2.05,2h8.69l2.05-2V234l2.05-2Zm6.64,8.69h2.05v6.64l-2.05,2.05Z" transform="translate(-355.34 -205.09)"/><polygon class="cls-3" points="59.71 70.25 59.71 76.88 57.66 78.94 38.24 78.94 40.29 76.88 40.29 28.86 42.34 26.81 51.03 26.81 48.97 28.86 48.97 66.14 44.87 70.25 59.71 70.25"/><path class="cls-3" d="M392.85,218.6a1.24,1.24,0,0,1-1,.49,1.3,1.3,0,0,1-.49-.09,1.09,1.09,0,0,1-.38-.25,1.14,1.14,0,0,1-.25-.38,1.53,1.53,0,0,1-.08-.49,1.57,1.57,0,0,1,.08-.49A1.19,1.19,0,0,1,391,217a1.12,1.12,0,0,1,.38-.26,1.3,1.3,0,0,1,.49-.09,1.47,1.47,0,0,1,.56.1.85.85,0,0,1,.43.35l-.4.41a.76.76,0,0,0-.23-.21.55.55,0,0,0-.31-.08.68.68,0,0,0-.26,0,.72.72,0,0,0-.2.14.82.82,0,0,0-.12.2,1,1,0,0,0,0,.26.7.7,0,0,0,.05.25.55.55,0,0,0,.12.21.64.64,0,0,0,.19.13.7.7,0,0,0,.25,0,.62.62,0,0,0,.33-.07.84.84,0,0,0,.25-.22Z" transform="translate(-355.34 -205.09)"/><path class="cls-3" d="M396.55,216.72h.62V219h-.62Z" transform="translate(-355.34 -205.09)"/><path class="cls-3" d="M401.06,216.72H402a1.57,1.57,0,0,1,.49.07,1,1,0,0,1,.39.21,1.07,1.07,0,0,1,.27.36,1.44,1.44,0,0,1,.09.53,1.12,1.12,0,0,1-.1.5,1,1,0,0,1-.26.36.92.92,0,0,1-.39.21,1.64,1.64,0,0,1-.5.08h-.88Zm.86,1.77a.61.61,0,0,0,.47-.17.6.6,0,0,0,.16-.44,1,1,0,0,0,0-.26.62.62,0,0,0-.12-.19.46.46,0,0,0-.2-.13.79.79,0,0,0-.28,0h-.25v1.23Z" transform="translate(-355.34 -205.09)"/><path class="cls-3" d="M407.53,216.72h.7l.82,2.32h-.66l-.15-.48h-.78l-.15.48h-.63Zm.58,1.39-.25-.85-.27.85Z" transform="translate(-355.34 -205.09)"/><path class="cls-3" d="M412.77,216.72h.89a1.53,1.53,0,0,1,.49.07,1,1,0,0,1,.66.57,1.44,1.44,0,0,1,.09.53,1.12,1.12,0,0,1-.1.5,1,1,0,0,1-.26.36.92.92,0,0,1-.39.21,1.64,1.64,0,0,1-.5.08h-.88Zm.86,1.77a.61.61,0,0,0,.47-.17.6.6,0,0,0,.16-.44,1,1,0,0,0,0-.26.62.62,0,0,0-.12-.19.46.46,0,0,0-.2-.13.75.75,0,0,0-.28,0h-.25v1.23Z" transform="translate(-355.34 -205.09)"/><path class="cls-3" d="M418.7,216.72h1.67v.53h-1.06v.36h.87v.5h-.87v.39h1.13V219H418.7Z" transform="translate(-355.34 -205.09)"/><path class="cls-3" d="M384.34,286.14H386v.53H385V287h.86v.5H385v.4h1.12v.53h-1.74Z" transform="translate(-355.34 -205.09)"/><path class="cls-3" d="M390.07,287.72a.86.86,0,0,0,.26.18.77.77,0,0,0,.34.08h.09a.12.12,0,0,0,.09,0,.1.1,0,0,0,.06-.05.16.16,0,0,0,0-.09.18.18,0,0,0-.09-.15l-.27-.12-.13,0-.22-.09a.9.9,0,0,1-.2-.14.86.86,0,0,1-.14-.18.62.62,0,0,1-.05-.25.8.8,0,0,1,.06-.3.66.66,0,0,1,.17-.23.71.71,0,0,1,.28-.16,1.14,1.14,0,0,1,.39-.06,1.55,1.55,0,0,1,.31,0l.24.08.18.09.11.1-.32.39a1.28,1.28,0,0,0-.25-.15.86.86,0,0,0-.27-.05h-.09l-.08,0a.1.1,0,0,0-.06.05.12.12,0,0,0,0,.08.16.16,0,0,0,0,.1l.07.06.11.05.14.05.11,0,.24.09a1,1,0,0,1,.22.14.58.58,0,0,1,.16.21.71.71,0,0,1,.06.31.57.57,0,0,1-.07.29.78.78,0,0,1-.2.24,1.4,1.4,0,0,1-.3.15,1.5,1.5,0,0,1-.37.05,1.64,1.64,0,0,1-.58-.09,1.09,1.09,0,0,1-.4-.25Z" transform="translate(-355.34 -205.09)"/><path class="cls-3" d="M395.94,286.68h-.72v-.54h2v.54h-.7v1.78h-.62Z" transform="translate(-355.34 -205.09)"/><path class="cls-3" d="M400.54,287.83h.64v.63h-.64Z" transform="translate(-355.34 -205.09)"/><path class="cls-3" d="M409,288.14a.62.62,0,0,1,.07-.31,1.08,1.08,0,0,1,.18-.24,1.16,1.16,0,0,1,.24-.2l.23-.18.18-.15a.23.23,0,0,0,.08-.16.17.17,0,0,0-.07-.13.25.25,0,0,0-.19-.06l-.12,0-.11.06-.07.08,0,.07-.43-.29a1.09,1.09,0,0,1,.13-.17.72.72,0,0,1,.19-.14,1.33,1.33,0,0,1,.24-.1,1.39,1.39,0,0,1,.3,0,1.14,1.14,0,0,1,.33.05.76.76,0,0,1,.23.15.51.51,0,0,1,.15.21.64.64,0,0,1,.05.24.6.6,0,0,1-.06.27.83.83,0,0,1-.16.21.91.91,0,0,1-.21.18l-.21.15-.16.14a.16.16,0,0,0-.07.13h.88v.52H409Z" transform="translate(-355.34 -205.09)"/><path class="cls-3" d="M415.18,288.51a.89.89,0,0,1-.38-.08.69.69,0,0,1-.27-.24,1,1,0,0,1-.17-.36,1.87,1.87,0,0,1,0-.94,1,1,0,0,1,.17-.36.69.69,0,0,1,.27-.24.76.76,0,0,1,.38-.08.8.8,0,0,1,.39.08.69.69,0,0,1,.27.24,1,1,0,0,1,.15.36,2.23,2.23,0,0,1,0,.94,1,1,0,0,1-.15.36.69.69,0,0,1-.27.24A.93.93,0,0,1,415.18,288.51Zm0-.53a.19.19,0,0,0,.13-.05.43.43,0,0,0,.09-.13,1,1,0,0,0,0-.2,2.89,2.89,0,0,0,0-.48,1,1,0,0,0,0-.2.43.43,0,0,0-.09-.13.19.19,0,0,0-.13-.05.22.22,0,0,0-.14.05.29.29,0,0,0-.08.13,1,1,0,0,0,0,.2c0,.07,0,.15,0,.24s0,.17,0,.24a1,1,0,0,0,0,.2.29.29,0,0,0,.08.13A.22.22,0,0,0,415.18,288Z" transform="translate(-355.34 -205.09)"/><path class="cls-3" d="M419.72,288.14a.62.62,0,0,1,.07-.31,1.08,1.08,0,0,1,.18-.24,1.16,1.16,0,0,1,.24-.2l.24-.18.18-.15a.26.26,0,0,0,.07-.16.19.19,0,0,0-.06-.13.29.29,0,0,0-.19-.06l-.13,0-.1.06-.08.08-.05.07-.43-.29a1.09,1.09,0,0,1,.13-.17,1,1,0,0,1,.43-.24,1.39,1.39,0,0,1,.3,0,1.14,1.14,0,0,1,.33.05,1,1,0,0,1,.24.15.6.6,0,0,1,.14.21.49.49,0,0,1,0,.24.6.6,0,0,1-.06.27.65.65,0,0,1-.16.21.91.91,0,0,1-.21.18l-.21.15-.16.14a.19.19,0,0,0-.07.13h.88v.52h-1.57Z" transform="translate(-355.34 -205.09)"/><path class="cls-3" d="M425.92,288.51a.92.92,0,0,1-.38-.08.69.69,0,0,1-.27-.24,1,1,0,0,1-.17-.36,2.23,2.23,0,0,1,0-.94,1,1,0,0,1,.17-.36.69.69,0,0,1,.27-.24.79.79,0,0,1,.38-.08.8.8,0,0,1,.39.08.69.69,0,0,1,.27.24,1.19,1.19,0,0,1,.16.36,2.23,2.23,0,0,1,0,.94,1.19,1.19,0,0,1-.16.36.69.69,0,0,1-.27.24A.93.93,0,0,1,425.92,288.51Zm0-.53a.19.19,0,0,0,.13-.05.3.3,0,0,0,.09-.13,1,1,0,0,0,0-.2,2.89,2.89,0,0,0,0-.48,1,1,0,0,0,0-.2.3.3,0,0,0-.09-.13.19.19,0,0,0-.13-.05.22.22,0,0,0-.14.05.41.41,0,0,0-.08.13.59.59,0,0,0,0,.2,1.45,1.45,0,0,0,0,.48.59.59,0,0,0,0,.2.41.41,0,0,0,.08.13A.22.22,0,0,0,425.92,288Z" transform="translate(-355.34 -205.09)"/></svg>