<svg id="Profile" xmlns="http://www.w3.org/2000/svg" xmlns:xlink="http://www.w3.org/1999/xlink" viewBox="0 0 128 141.81"><defs><style>.cls-1{fill:none;}.cls-2{fill:#ededed;stroke:#fd772b;stroke-miterlimit:10;stroke-width:3px;}.cls-3{clip-path:url(#clip-path);}.cls-4{fill:#1d1d1b;}.cls-10,.cls-11,.cls-13,.cls-14,.cls-16,.cls-17,.cls-4,.cls-5,.cls-6,.cls-7,.cls-8,.cls-9{fill-rule:evenodd;}.cls-5{fill:#fa6676;}.cls-19,.cls-6{fill:#f9b036;}.cls-7{fill:#f7e1dc;}.cls-15,.cls-8{fill:#e5bbb3;}.cls-9{fill:#fbbeac;}.cls-10{fill:#ed8e86;}.cls-11{fill:#fbd5c9;}.cls-12,.cls-14{fill:#333;}.cls-13,.cls-18{fill:#fd772b;}.cls-16{fill:#403867;}.cls-17{fill:#fff;}</style><clipPath id="clip-path" transform="translate(-1350.69 -243.03)"><rect id="Photo" class="cls-1" x="1359.77" y="244.53" width="125" height="123.51" rx="5"/></clipPath></defs><title>Male</title><rect id="Photo-2" data-name="Photo" class="cls-2" x="1.5" y="1.5" width="125" height="125" rx="8"/><g id="Photo-3" data-name="Photo"><g class="cls-3"><path class="cls-4" d="M1431.16,349.86h-32.94v33.05a71.24,71.24,0,0,0,32.94,0Z" transform="translate(-1350.69 -243.03)"/><path class="cls-5" d="M1409.22,384.62c1.8.15,3.63.22,5.48.22s3.6-.07,5.37-.2l-2.4-15.07-3-1-3,1Z" transform="translate(-1350.69 -243.03)"/><polygon class="cls-6" points="69.62 119.98 66.99 126.54 63.96 126.54 60.94 126.54 58.33 119.98 59.63 118.92 63.96 117.93 68.29 118.92 69.62 119.98"/><path class="cls-7" d="M1457.29,370.43v-6.85c0-7.55-6.49-13.72-14.45-13.72h-21.57l-1.12.67,4,11.81-2.61,22.18a69.24,69.24,0,0,0,35.73-14.09Zm-85.21,0v-6.85c0-7.55,6.52-13.72,14.45-13.72h21.57l1.12.67-4,11.81,2.61,22.18a69.41,69.41,0,0,1-35.74-14.09Z" transform="translate(-1350.69 -243.03)"/><path class="cls-8" d="M1423,358.77l1.2,3.57-2.61,22.18a74.07,74.07,0,0,0,8.09-1.27l5.27-9.67-6.42-19.34c-2,.55-3.86,2.21-5.53,4.53Z" transform="translate(-1350.69 -243.03)"/><path class="cls-9" d="M1414.7,317.61h0c6.42,0,11.66,5,11.66,11.06v21.19c0,6.09-5.24,11.07-11.66,11.07h0c-6.41,0-11.66-5-11.66-11.07V328.67c0-6.09,5.25-11.06,11.66-11.06Z" transform="translate(-1350.69 -243.03)"/><path class="cls-10" d="M1414.7,317.61h0c6.42,0,11.66,5,11.66,11.06v18.17a24.82,24.82,0,0,1-10.07,2.13h0a24.46,24.46,0,0,1-13.25-3.86V328.67c0-6.09,5.25-11.06,11.66-11.06Z" transform="translate(-1350.69 -243.03)"/><path class="cls-10" d="M1383.87,314.34a7.23,7.23,0,0,0,7.23,7.23h.34a26.07,26.07,0,0,1-1.15-7.48v-2.15c0-4.41-6.23-4.11-6.42,2.4Z" transform="translate(-1350.69 -243.03)"/><path class="cls-10" d="M1445.51,314.34a7.22,7.22,0,0,1-7.23,7.23h-.34a26.11,26.11,0,0,0,1.17-7.48v-2.15c0-4.41,6.24-4.11,6.4,2.4Z" transform="translate(-1350.69 -243.03)"/><path class="cls-9" d="M1414.7,273.45h0c-13.43,0-24.41,10.79-24.41,24v21.78c0,13.17,11,23.94,24.41,23.94h0c13.41,0,24.41-10.77,24.41-23.94V297.41c0-13.17-11-24-24.41-24Z" transform="translate(-1350.69 -243.03)"/><path class="cls-10" d="M1429.15,318.94a4.59,4.59,0,1,0,4.93,4.48,4.7,4.7,0,0,0-4.93-4.48Z" transform="translate(-1350.69 -243.03)"/><path class="cls-10" d="M1400,319.46a4.6,4.6,0,1,0,4.93,4.51,4.73,4.73,0,0,0-4.93-4.51Z" transform="translate(-1350.69 -243.03)"/><path class="cls-11" d="M1416,317.46a22,22,0,0,1,1.23,4c-.1.5-2.92.64-3.65-.12-.5-.52.13-2.46.65-3.72.73-1.75,1.12-1.83,1.77-.12Z" transform="translate(-1350.69 -243.03)"/><path class="cls-12" d="M1406.25,303.05a1,1,0,0,1,.52,1.34,1,1,0,0,1-1.41.49,7.29,7.29,0,0,0-6.26.4,1.11,1.11,0,0,1-1.48-.32,1,1,0,0,1,.34-1.41,9.69,9.69,0,0,1,8.29-.5Z" transform="translate(-1350.69 -243.03)"/><path class="cls-12" d="M1431.39,303.5a1,1,0,0,1,.4,1.38,1.13,1.13,0,0,1-1.44.4,7.16,7.16,0,0,0-6.28-.12,1.12,1.12,0,0,1-1.47-.42,1,1,0,0,1,.47-1.37,9.68,9.68,0,0,1,8.32.13Z" transform="translate(-1350.69 -243.03)"/><path class="cls-13" d="M1442.4,309.09s-3.29.08-3.29,2.85a9.37,9.37,0,0,1-1.85-6.46s-6.26-6.93-6-14.68,6.65-9.41,6.65-9.41c15.23,4.23,4.46,14.48,4.46,27.7Z" transform="translate(-1350.69 -243.03)"/><path class="cls-13" d="M1387,309.09s3.29.08,3.29,2.85a9.42,9.42,0,0,0,1.82-6.46s6.26-6.93,6-14.68-6.63-9.41-6.63-9.41c-15.26,4.23-4.46,14.48-4.46,27.7Z" transform="translate(-1350.69 -243.03)"/><path class="cls-14" d="M1414.7,360.93l8.22,7.5s3,1.68,4.27-.77,4.88-17.8,4.88-17.8l-5.71-2s-.31,9.48-11.66,13.07Z" transform="translate(-1350.69 -243.03)"/><path class="cls-15" d="M1447.07,353.55a.34.34,0,0,1,.47,0,.29.29,0,0,1,0,.42s-2.94,2.92-2.94,9.9v14.33a6.54,6.54,0,0,1-.65.32V363.85c0-7.21,3.1-10.3,3.1-10.3Z" transform="translate(-1350.69 -243.03)"/><path class="cls-8" d="M1406.43,358.77l-1.22,3.57,2.61,22.18a74.84,74.84,0,0,1-8.09-1.27l-5.27-9.67,6.44-19.34c2,.55,3.86,2.21,5.53,4.53Z" transform="translate(-1350.69 -243.03)"/><path class="cls-14" d="M1414.7,360.93l-8.24,7.5s-3,1.68-4.25-.77-4.91-17.8-4.91-17.8l5.74-2s.32,9.48,11.66,13.07Z" transform="translate(-1350.69 -243.03)"/><path class="cls-15" d="M1382.31,353.55a.34.34,0,0,0-.47,0,.3.3,0,0,0,0,.42s3,2.92,3,9.9v14.33c.21.12.44.22.65.32V363.85c0-7.21-3.1-10.3-3.1-10.3Z" transform="translate(-1350.69 -243.03)"/><path class="cls-16" d="M1402.5,316.34a2.87,2.87,0,1,0-3-2.87,3,3,0,0,0,3,2.87Z" transform="translate(-1350.69 -243.03)"/><path class="cls-16" d="M1426.88,316.34a2.87,2.87,0,1,0-3-2.87,3,3,0,0,0,3,2.87Z" transform="translate(-1350.69 -243.03)"/><path class="cls-17" d="M1420,326.49a5.34,5.34,0,0,1-10.67,0,1,1,0,0,1,1-.91h8.71a1,1,0,0,1,1,.91Z" transform="translate(-1350.69 -243.03)"/><path class="cls-13" d="M1435.49,308.23c-1.85-1.47-5.71-1.47-7.67-1.56s-8,.49-9.57,2.94-.26,7.16,2.32,9.9a10,10,0,0,0,10.62,2.55c3.86-1.33,4.85-4.55,5.39-6.63s.79-5.72-1.09-7.2Z" transform="translate(-1350.69 -243.03)"/><path class="cls-13" d="M1409,319.51c2.56-2.74,3.86-7.45,2.32-9.9s-7.56-3-9.6-2.94-5.79.09-7.67,1.56-1.64,5.12-1.09,7.2,1.56,5.3,5.4,6.63a10,10,0,0,0,10.64-2.55Z" transform="translate(-1350.69 -243.03)"/><path class="cls-18" d="M1437,307.56c-.94-.1-5.27-1.22-7.9-1.22a24.46,24.46,0,0,0-7.59.87c-2,.55-3.06,1.29-3.6,1.21a28.85,28.85,0,0,0-3.08-.32,27.49,27.49,0,0,0-3.08.32c-.57.08-1.67-.66-3.62-1.21a24.46,24.46,0,0,0-7.59-.87c-2.66,0-7,1.12-8,1.22s-1.8.2-1.8.2v2a1.22,1.22,0,0,1,1,.94c.21.84.36,4.5,1.33,6.71a8.47,8.47,0,0,0,5.89,5.19,10.72,10.72,0,0,0,8.32-1.11,12,12,0,0,0,4.13-4.58,18.33,18.33,0,0,0,1.77-4.95,1.39,1.39,0,0,1-.26-1.46c.23-.64,1-.74,1.85-.74s1.59.1,1.85.74a1.45,1.45,0,0,1-.28,1.46,18,18,0,0,0,1.79,4.95,11.94,11.94,0,0,0,4.1,4.58,10.73,10.73,0,0,0,8.32,1.11,8.38,8.38,0,0,0,5.87-5.19c1-2.21,1.09-5.87,1.28-6.71a1.18,1.18,0,0,1,1-.94v-2s-.81-.08-1.75-.2Zm-28.35,11.66h0a9.43,9.43,0,0,1-10,2.4c-3.62-1.27-4.56-4.28-5.08-6.24s-.73-5.37,1-6.76,5.37-1.41,7.2-1.46,7.56.45,9,2.75.24,6.73-2.16,9.31Zm27.44-3.84h0c-.52,2-1.46,5-5.09,6.24a9.38,9.38,0,0,1-10-2.4c-2.42-2.58-3.65-7-2.19-9.31s7.12-2.85,9-2.75,5.46.08,7.23,1.46,1.54,4.8,1,6.76Z" transform="translate(-1350.69 -243.03)"/><path class="cls-6" d="M1431.81,308.18a22.93,22.93,0,0,0-4.07-.35,16,16,0,0,0-3.2.25l-5.53,5.24a10.12,10.12,0,0,0,2.11,5Zm-8.6,12a7.86,7.86,0,0,0,2.55,1.07l9.78-9.29a4.22,4.22,0,0,0-1-2.57Z" transform="translate(-1350.69 -243.03)"/><path class="cls-6" d="M1410.53,311.82a3.9,3.9,0,0,0-.52-1.47,3.17,3.17,0,0,0-.79-.81l-11.47,10.91a5.73,5.73,0,0,0,1.17.52,6.47,6.47,0,0,0,1.54.4Zm-4.1-3.47a17.81,17.81,0,0,0-4.64-.52c-.6,0-1.43,0-2.29.1l-5.53,5.25a11.18,11.18,0,0,0,.34,2.13,10,10,0,0,0,1.35,3.26Z" transform="translate(-1350.69 -243.03)"/><path class="cls-13" d="M1398.06,291.86s20.92,3.91,39.12-3.14c0,0,3.32-7.5,1.67-13.47s-11.73-14-16.85-14.72-4,2.74-4,2.74a62.27,62.27,0,0,0-19.8,5.55c-10.64,4.9-12,10-10.41,15.37Z" transform="translate(-1350.69 -243.03)"/><path class="cls-19" d="M1387.47,278.64c13.54,5.23,32.94,8.92,51.8-.91a16.06,16.06,0,0,0-.42-2.48,16.82,16.82,0,0,0-3.83-6.14c-17,10.33-33.8,9.46-46,6.29a9.12,9.12,0,0,0-1.54,3.24Z" transform="translate(-1350.69 -243.03)"/></g></g></svg>