<svg id="Profile" xmlns="http://www.w3.org/2000/svg" viewBox="0 0 300 669.69"><defs><style>.cls-1{fill:#f9b036;}.cls-2{fill:#ededed;}.cls-3{fill:#e38727;}.cls-4{fill:#333;}.cls-5{fill:#fff;}.cls-6{fill:#f2f2f2;}.cls-7{fill:#1d1d1b;}</style></defs><title>profile</title><rect id="BG" class="cls-1" width="300" height="669.69" rx="10"/><g id="Saldo_C" data-name="Saldo C"><rect id="BG-2" data-name="BG" class="cls-2" x="16.49" y="339.67" width="267.02" height="79.71" rx="6.59"/><rect id="BG-3" data-name="BG" class="cls-3" x="27.86" y="355.68" width="47.68" height="47.68" rx="3.53"/><g id="Saldo_Title" data-name="Saldo  Title"><path class="cls-4" d="M1350.05,577.93a5.32,5.32,0,0,1-2.1-2,5.79,5.79,0,0,1,0-5.77,5.39,5.39,0,0,1,2.1-2,6.7,6.7,0,0,1,5.56-.22,5,5,0,0,1,1.91,1.42l-1.61,1.49a3.44,3.44,0,0,0-2.72-1.27,3.58,3.58,0,0,0-1.8.44,3.16,3.16,0,0,0-1.23,1.23,3.69,3.69,0,0,0-.44,1.8,3.62,3.62,0,0,0,.44,1.79,3.16,3.16,0,0,0,1.23,1.23,3.58,3.58,0,0,0,1.8.44,3.42,3.42,0,0,0,2.72-1.28l1.61,1.48a5,5,0,0,1-1.92,1.45,6.34,6.34,0,0,1-2.55.49A6.25,6.25,0,0,1,1350.05,577.93Z" transform="translate(-1264.69 -205.16)"/><path class="cls-4" d="M1365.31,570.93a3.54,3.54,0,0,1,1,2.78v4.75h-2.26v-1a2.71,2.71,0,0,1-2.54,1.16,3.92,3.92,0,0,1-1.67-.33,2.48,2.48,0,0,1-1.07-.89,2.35,2.35,0,0,1-.37-1.3,2.17,2.17,0,0,1,.87-1.83,4.42,4.42,0,0,1,2.7-.67h1.92a1.53,1.53,0,0,0-.48-1.21,2.08,2.08,0,0,0-1.44-.43,4.11,4.11,0,0,0-1.3.21,3.46,3.46,0,0,0-1.1.57l-.86-1.69a5.33,5.33,0,0,1,1.63-.75,7.53,7.53,0,0,1,2-.26A4.35,4.35,0,0,1,1365.31,570.93Zm-2.06,5.75a1.56,1.56,0,0,0,.68-.85V575h-1.65c-1,0-1.49.33-1.49,1a.86.86,0,0,0,.36.73,1.67,1.67,0,0,0,1,.27A2.09,2.09,0,0,0,1363.25,576.68Z" transform="translate(-1264.69 -205.16)"/><path class="cls-4" d="M1372,570.32a4.25,4.25,0,0,1,1.69-.31v2.23l-.54,0a2.19,2.19,0,0,0-1.62.58,2.32,2.32,0,0,0-.59,1.74v3.93h-2.42v-8.33h2.31v1.1A2.73,2.73,0,0,1,1372,570.32Z" transform="translate(-1264.69 -205.16)"/><path class="cls-4" d="M1380.81,578.06a2.46,2.46,0,0,1-.88.4,4.79,4.79,0,0,1-1.09.13,3.22,3.22,0,0,1-2.3-.76,2.92,2.92,0,0,1-.81-2.23v-3.42h-1.28v-1.86h1.28v-2h2.42v2h2.07v1.86h-2.07v3.39a1.13,1.13,0,0,0,.27.81,1,1,0,0,0,.76.29,1.55,1.55,0,0,0,1-.31Z" transform="translate(-1264.69 -205.16)"/><path class="cls-4" d="M1390,575h-6.3a1.89,1.89,0,0,0,.81,1.22,2.63,2.63,0,0,0,1.57.45,3.21,3.21,0,0,0,1.16-.19,2.72,2.72,0,0,0,.93-.61l1.29,1.39a4.31,4.31,0,0,1-3.44,1.35,5.37,5.37,0,0,1-2.49-.55,4.06,4.06,0,0,1-1.67-1.53,4.2,4.2,0,0,1-.59-2.21,4.24,4.24,0,0,1,.58-2.21,4.17,4.17,0,0,1,1.59-1.53,4.94,4.94,0,0,1,4.49,0,3.76,3.76,0,0,1,1.55,1.51,4.44,4.44,0,0,1,.57,2.28S1390.05,574.58,1390,575Zm-5.65-2.68a2,2,0,0,0-.68,1.27h4.1a2,2,0,0,0-.68-1.26,2,2,0,0,0-1.36-.47A2.07,2.07,0,0,0,1384.37,572.3Z" transform="translate(-1264.69 -205.16)"/><path class="cls-4" d="M1391.8,568.59a1.26,1.26,0,0,1-.42-1,1.24,1.24,0,0,1,.42-1,1.53,1.53,0,0,1,1.09-.39,1.56,1.56,0,0,1,1.08.37,1.2,1.2,0,0,1,.42.93,1.31,1.31,0,0,1-.42,1,1.52,1.52,0,0,1-1.08.39A1.57,1.57,0,0,1,1391.8,568.59Zm-.12,1.54h2.41v8.33h-2.41Z" transform="translate(-1264.69 -205.16)"/><path class="cls-4" d="M1399.81,570.32a4.3,4.3,0,0,1,1.7-.31v2.23l-.54,0a2.21,2.21,0,0,0-1.63.58,2.36,2.36,0,0,0-.59,1.74v3.93h-2.41v-8.33h2.31v1.1A2.65,2.65,0,0,1,1399.81,570.32Z" transform="translate(-1264.69 -205.16)"/><path class="cls-4" d="M1409.24,570.93a3.54,3.54,0,0,1,1,2.78v4.75H1408v-1a2.69,2.69,0,0,1-2.54,1.16,3.87,3.87,0,0,1-1.66-.33,2.46,2.46,0,0,1-1.08-.89,2.35,2.35,0,0,1-.37-1.3,2.15,2.15,0,0,1,.88-1.83,4.4,4.4,0,0,1,2.7-.67h1.92a1.53,1.53,0,0,0-.48-1.21,2.08,2.08,0,0,0-1.44-.43,4.18,4.18,0,0,0-1.31.21,3.41,3.41,0,0,0-1.09.57l-.87-1.69a5.44,5.44,0,0,1,1.63-.75,7.59,7.59,0,0,1,2-.26A4.39,4.39,0,0,1,1409.24,570.93Zm-2.06,5.75a1.61,1.61,0,0,0,.68-.85V575h-1.66c-1,0-1.49.33-1.49,1a.87.87,0,0,0,.37.73,1.63,1.63,0,0,0,1,.27A2.12,2.12,0,0,0,1407.18,576.68Z" transform="translate(-1264.69 -205.16)"/></g><path class="cls-2" d="M1318.52,593.08h-1.22a.43.43,0,1,0,0,.85h1.22a.43.43,0,0,0,0-.85Z" transform="translate(-1264.69 -205.16)"/><path class="cls-2" d="M1314.86,593.08h-1.21a.43.43,0,1,0,0,.85h1.21a.43.43,0,1,0,0-.85Z" transform="translate(-1264.69 -205.16)"/><path class="cls-2" d="M1307.56,593.08h-1.21a.43.43,0,1,0,0,.85h1.21a.43.43,0,1,0,0-.85Z" transform="translate(-1264.69 -205.16)"/><path class="cls-2" d="M1311.22,593.08H1310a.43.43,0,1,0,0,.85h1.22a.43.43,0,0,0,0-.85Z" transform="translate(-1264.69 -205.16)"/><path class="cls-2" d="M1324.18,593.51a.42.42,0,0,0,.42.42h1.22a.43.43,0,1,0,0-.85h-1.22A.42.42,0,0,0,1324.18,593.51Z" transform="translate(-1264.69 -205.16)"/><path class="cls-2" d="M1322.17,593.08H1321a.43.43,0,0,0,0,.85h1.22a.43.43,0,1,0,0-.85Z" transform="translate(-1264.69 -205.16)"/><path class="cls-2" d="M1310,583.72h1.21a.43.43,0,0,0,.43-.43.43.43,0,0,0-.43-.43H1310a.43.43,0,0,0-.43.43A.43.43,0,0,0,1310,583.72Z" transform="translate(-1264.69 -205.16)"/><path class="cls-2" d="M1324.6,583.72h1.22a.43.43,0,0,0,.43-.43.43.43,0,0,0-.43-.43h-1.22a.43.43,0,0,0-.42.43A.42.42,0,0,0,1324.6,583.72Z" transform="translate(-1264.69 -205.16)"/><path class="cls-2" d="M1306.35,583.72h1.21a.43.43,0,0,0,.43-.43.44.44,0,0,0-.43-.43h-1.21a.43.43,0,0,0-.43.43A.43.43,0,0,0,1306.35,583.72Z" transform="translate(-1264.69 -205.16)"/><path class="cls-2" d="M1314.86,582.86h-1.21a.43.43,0,0,0-.43.43.43.43,0,0,0,.43.43h1.21a.43.43,0,0,0,.43-.43A.43.43,0,0,0,1314.86,582.86Z" transform="translate(-1264.69 -205.16)"/><path class="cls-2" d="M1321,583.72h1.22a.43.43,0,0,0,.43-.43.43.43,0,0,0-.43-.43H1321a.44.44,0,0,0-.43.43A.43.43,0,0,0,1321,583.72Z" transform="translate(-1264.69 -205.16)"/><path class="cls-2" d="M1318.52,582.86h-1.22a.44.44,0,0,0-.43.43.43.43,0,0,0,.43.43h1.22a.42.42,0,0,0,.42-.43A.43.43,0,0,0,1318.52,582.86Z" transform="translate(-1264.69 -205.16)"/><path class="cls-2" d="M1330,584.78h-.66v-4.47a.55.55,0,0,0-.12-.31.48.48,0,0,0-.31-.12h-1.64v-3a.43.43,0,0,0-.43-.43h-3.14a9.13,9.13,0,0,0-16.89,0v0H1305a2.13,2.13,0,0,0-2.13,2.13v16.18a2.12,2.12,0,0,0,2.13,2.12h22.21a2.13,2.13,0,0,0,2.13-2.12V592h.66a1,1,0,0,0,1-1v-5.32A1,1,0,0,0,1330,584.78Zm-3.59-7.46v2.06h0v.5h-11a5,5,0,0,0,1.06-1.73,4.82,4.82,0,0,0,2.84.92,5,5,0,0,0,3.78-1.75Zm-7.09-7.38a4.14,4.14,0,1,1,0,8.27,4.08,4.08,0,0,1-2.61-1,5.29,5.29,0,0,0,.07-.8,4.94,4.94,0,0,0-1.43-3.48A4.14,4.14,0,0,1,1319.3,569.94Zm-7.53,2.39a4.13,4.13,0,0,1,2.32,7.55h-4.63a4.13,4.13,0,0,1,2.31-7.55Zm-6.79,5h1.9a4.94,4.94,0,0,0,1.27,2.56H1305a1.27,1.27,0,0,1-1.28-1.27A1.29,1.29,0,0,1,1305,577.32Zm23.49,15.76h-.21a.43.43,0,1,0,0,.85h.21v.86a1.27,1.27,0,0,1-1.28,1.27H1305a1.27,1.27,0,0,1-1.28-1.27v-.86h.21a.43.43,0,1,0,0-.85h-.21v-9.36h.21a.43.43,0,0,0,.43-.43.44.44,0,0,0-.43-.43h-.21v-2.57a2,2,0,0,0,1.28.45h23.49v2.12h-.21a.43.43,0,0,0-.43.43.43.43,0,0,0,.43.43h.21v1.06h-3.29a3.62,3.62,0,1,0,0,7.24h3.29Zm1.62-2a.12.12,0,0,1-.11.11h-4.8a2.77,2.77,0,1,1,0-5.54h4.8a.12.12,0,0,1,.11.11Z" transform="translate(-1264.69 -205.16)"/><path class="cls-2" d="M1325.12,586.9a1.49,1.49,0,1,0,1.49,1.49A1.49,1.49,0,0,0,1325.12,586.9Zm0,2.14a.64.64,0,0,1-.64-.65.64.64,0,0,1,1.27,0A.64.64,0,0,1,1325.12,589Z" transform="translate(-1264.69 -205.16)"/><path class="cls-2" d="M1311.77,578.2a.72.72,0,0,1-.76-.66.42.42,0,0,0-.43-.42.43.43,0,0,0-.43.42,1.55,1.55,0,0,0,1.2,1.45v.23a.43.43,0,1,0,.85,0V579a1.53,1.53,0,0,0,1.19-1.45,1.46,1.46,0,0,0-1.62-1.5c-.52,0-.76-.21-.76-.66a.77.77,0,0,1,1.53,0,.43.43,0,1,0,.85,0,1.53,1.53,0,0,0-1.19-1.44v-.23a.43.43,0,1,0-.85,0v.23a1.55,1.55,0,0,0-1.2,1.44,1.47,1.47,0,0,0,1.62,1.51c.52,0,.77.21.77.65A.71.71,0,0,1,1311.77,578.2Z" transform="translate(-1264.69 -205.16)"/><path class="cls-2" d="M1319.3,575.82a.71.71,0,0,1-.75-.66.43.43,0,0,0-.43-.43.43.43,0,0,0-.43.43,1.54,1.54,0,0,0,1.19,1.46v.22a.43.43,0,0,0,.85,0v-.22a1.53,1.53,0,0,0,1.19-1.46,1.46,1.46,0,0,0-1.62-1.5c-.51,0-.75-.22-.75-.66a.77.77,0,0,1,1.52,0,.43.43,0,1,0,.85,0,1.52,1.52,0,0,0-1.19-1.44v-.23a.43.43,0,1,0-.85,0v.23a1.53,1.53,0,0,0-1.19,1.44,1.47,1.47,0,0,0,1.61,1.51c.52,0,.77.21.77.65A.71.71,0,0,1,1319.3,575.82Z" transform="translate(-1264.69 -205.16)"/></g><g id="Saldo_B" data-name="Saldo B"><rect id="BG-4" data-name="BG" class="cls-2" x="16.49" y="249.32" width="267.02" height="79.71" rx="6.59"/><rect id="BG-5" data-name="BG" class="cls-3" x="27.86" y="265.33" width="47.68" height="47.68" rx="3.53"/><g id="Saldo_Title-2" data-name="Saldo  Title"><path class="cls-4" d="M1348.94,488a6.09,6.09,0,0,1-1.93-.91l.85-1.89a6,6,0,0,0,1.66.82,6.12,6.12,0,0,0,1.92.31A3,3,0,0,0,1353,486a1,1,0,0,0,.51-.84.8.8,0,0,0-.3-.64,2.21,2.21,0,0,0-.78-.41,12,12,0,0,0-1.27-.34,19.16,19.16,0,0,1-2-.59,3.3,3.3,0,0,1-1.36-.95,2.57,2.57,0,0,1-.56-1.73,3,3,0,0,1,.51-1.71,3.43,3.43,0,0,1,1.54-1.22,6.23,6.23,0,0,1,2.51-.45,8.55,8.55,0,0,1,2,.25,6.22,6.22,0,0,1,1.74.71l-.78,1.91a6,6,0,0,0-3-.85,2.82,2.82,0,0,0-1.56.34,1,1,0,0,0-.5.9.86.86,0,0,0,.58.82,9.57,9.57,0,0,0,1.77.54,15.35,15.35,0,0,1,2,.59,3.25,3.25,0,0,1,1.36.93,2.5,2.5,0,0,1,.56,1.71,2.94,2.94,0,0,1-.52,1.7,3.38,3.38,0,0,1-1.55,1.21,6.36,6.36,0,0,1-2.53.45A8.94,8.94,0,0,1,1348.94,488Z" transform="translate(-1264.69 -205.16)"/><path class="cls-4" d="M1363.9,480.58a3.55,3.55,0,0,1,1,2.78v4.76h-2.26v-1a2.71,2.71,0,0,1-2.54,1.16,4,4,0,0,1-1.66-.32,2.54,2.54,0,0,1-1.08-.9,2.32,2.32,0,0,1-.37-1.3,2.17,2.17,0,0,1,.87-1.83,4.51,4.51,0,0,1,2.7-.66h1.92A1.54,1.54,0,0,0,1362,482a2.13,2.13,0,0,0-1.44-.43,4.11,4.11,0,0,0-1.3.21,3.31,3.31,0,0,0-1.09.57l-.87-1.69a5.09,5.09,0,0,1,1.63-.74,7.19,7.19,0,0,1,2-.27A4.35,4.35,0,0,1,1363.9,480.58Zm-2.06,5.75a1.54,1.54,0,0,0,.68-.84v-.86h-1.65c-1,0-1.49.33-1.49,1a.85.85,0,0,0,.37.73,1.55,1.55,0,0,0,1,.28A2.1,2.1,0,0,0,1361.84,486.33Z" transform="translate(-1264.69 -205.16)"/><path class="cls-4" d="M1367.12,476.63h2.42v11.49h-2.42Z" transform="translate(-1264.69 -205.16)"/><path class="cls-4" d="M1380.27,476.63v11.49H1378v-1a3.18,3.18,0,0,1-2.6,1.08,4.36,4.36,0,0,1-2.13-.52,3.86,3.86,0,0,1-1.49-1.51,4.92,4.92,0,0,1,0-4.52,3.77,3.77,0,0,1,1.49-1.5,4.37,4.37,0,0,1,2.13-.53,3.17,3.17,0,0,1,2.49,1v-4Zm-3,9a2.62,2.62,0,0,0,0-3.36,2,2,0,0,0-1.51-.62,2.05,2.05,0,0,0-1.54.62,2.65,2.65,0,0,0,0,3.36,2.06,2.06,0,0,0,1.54.63A2,2,0,0,0,1377.29,485.63Z" transform="translate(-1264.69 -205.16)"/><path class="cls-4" d="M1384.1,487.69a4,4,0,0,1-1.63-1.52,4.45,4.45,0,0,1,0-4.43,4.08,4.08,0,0,1,1.63-1.53,5.07,5.07,0,0,1,2.36-.55,5,5,0,0,1,2.35.55,4.14,4.14,0,0,1,1.63,1.53,4.45,4.45,0,0,1,0,4.43,4.05,4.05,0,0,1-1.63,1.52,4.88,4.88,0,0,1-2.35.55A5,5,0,0,1,1384.1,487.69Zm3.89-2.06a2.69,2.69,0,0,0,0-3.36,2.2,2.2,0,0,0-3.06,0,2.62,2.62,0,0,0,0,3.36,2.17,2.17,0,0,0,3.06,0Z" transform="translate(-1264.69 -205.16)"/><path class="cls-4" d="M1404.06,480.2a3.84,3.84,0,0,1,1.49,1.5,5,5,0,0,1,0,4.51,3.9,3.9,0,0,1-1.49,1.5,4.33,4.33,0,0,1-2.12.53,3.2,3.2,0,0,1-2.61-1.08v1H1397V476.63h2.42v4a3.2,3.2,0,0,1,2.5-1A4.23,4.23,0,0,1,1404.06,480.2Zm-1,5.43a2.65,2.65,0,0,0,0-3.36,2.19,2.19,0,0,0-3,0,2.65,2.65,0,0,0,0,3.36,2.16,2.16,0,0,0,3,0Z" transform="translate(-1264.69 -205.16)"/><path class="cls-4" d="M1413.9,480.58a3.55,3.55,0,0,1,1,2.78v4.76h-2.26v-1a2.69,2.69,0,0,1-2.54,1.16,4,4,0,0,1-1.66-.32,2.54,2.54,0,0,1-1.08-.9,2.41,2.41,0,0,1-.37-1.3,2.15,2.15,0,0,1,.88-1.83,4.47,4.47,0,0,1,2.7-.66h1.92A1.54,1.54,0,0,0,1412,482a2.13,2.13,0,0,0-1.44-.43,4.18,4.18,0,0,0-1.31.21,3.41,3.41,0,0,0-1.09.57l-.87-1.69a5.19,5.19,0,0,1,1.63-.74,7.19,7.19,0,0,1,2-.27A4.37,4.37,0,0,1,1413.9,480.58Zm-2.06,5.75a1.58,1.58,0,0,0,.68-.84v-.86h-1.66c-1,0-1.48.33-1.48,1a.86.86,0,0,0,.36.73,1.57,1.57,0,0,0,1,.28A2.12,2.12,0,0,0,1411.84,486.33Z" transform="translate(-1264.69 -205.16)"/><path class="cls-4" d="M1424.68,480.59a3.67,3.67,0,0,1,1,2.76v4.77h-2.41v-4.4a2.18,2.18,0,0,0-.44-1.48,1.6,1.6,0,0,0-1.25-.49,1.94,1.94,0,0,0-1.46.57,2.36,2.36,0,0,0-.54,1.68v4.12h-2.41v-8.33h2.3v1a3.19,3.19,0,0,1,1.2-.81,4.13,4.13,0,0,1,1.56-.29A3.44,3.44,0,0,1,1424.68,480.59Z" transform="translate(-1264.69 -205.16)"/><path class="cls-4" d="M1429.54,487.69a4.07,4.07,0,0,1-1.66-1.52,4.45,4.45,0,0,1,0-4.43,4.16,4.16,0,0,1,1.66-1.53,5.22,5.22,0,0,1,2.39-.55,4.69,4.69,0,0,1,2.3.55,3.25,3.25,0,0,1,1.44,1.58l-1.88,1a2,2,0,0,0-1.87-1.14,2.12,2.12,0,0,0-1.57.62,2.6,2.6,0,0,0,0,3.37,2.16,2.16,0,0,0,1.57.62,2,2,0,0,0,1.87-1.15l1.88,1a3.3,3.3,0,0,1-1.44,1.54,4.48,4.48,0,0,1-2.3.56A5.1,5.1,0,0,1,1429.54,487.69Z" transform="translate(-1264.69 -205.16)"/><path class="cls-4" d="M1443.39,480.58a3.55,3.55,0,0,1,1,2.78v4.76h-2.26v-1a2.71,2.71,0,0,1-2.54,1.16,4.08,4.08,0,0,1-1.67-.32,2.51,2.51,0,0,1-1.07-.9,2.32,2.32,0,0,1-.37-1.3,2.17,2.17,0,0,1,.87-1.83,4.49,4.49,0,0,1,2.7-.66H1442a1.54,1.54,0,0,0-.48-1.22,2.13,2.13,0,0,0-1.44-.43,4.22,4.22,0,0,0-1.31.21,3.52,3.52,0,0,0-1.09.57l-.86-1.69a5,5,0,0,1,1.63-.74,7.13,7.13,0,0,1,2-.27A4.35,4.35,0,0,1,1443.39,480.58Zm-2.06,5.75a1.54,1.54,0,0,0,.68-.84v-.86h-1.65c-1,0-1.49.33-1.49,1a.86.86,0,0,0,.36.73,1.6,1.6,0,0,0,1,.28A2.12,2.12,0,0,0,1441.33,486.33Zm0-9.84h2.6l-2.8,2.23h-1.89Z" transform="translate(-1264.69 -205.16)"/><path class="cls-4" d="M1450.09,480a4.43,4.43,0,0,1,1.69-.31v2.23l-.54,0a2.27,2.27,0,0,0-1.63.58,2.37,2.37,0,0,0-.58,1.75v3.93h-2.42v-8.33h2.31v1.1A2.68,2.68,0,0,1,1450.09,480Z" transform="translate(-1264.69 -205.16)"/><path class="cls-4" d="M1453.35,478.24a1.31,1.31,0,0,1,0-1.92,1.52,1.52,0,0,1,1.08-.39,1.59,1.59,0,0,1,1.08.37,1.2,1.2,0,0,1,.42.93,1.3,1.3,0,0,1-.42,1,1.47,1.47,0,0,1-1.08.4A1.52,1.52,0,0,1,1453.35,478.24Zm-.13,1.55h2.42v8.33h-2.42Z" transform="translate(-1264.69 -205.16)"/><path class="cls-4" d="M1459.48,487.69a4.05,4.05,0,0,1-1.63-1.52,4.45,4.45,0,0,1,0-4.43,4.14,4.14,0,0,1,1.63-1.53,5.11,5.11,0,0,1,2.37-.55,5,5,0,0,1,2.35.55,4.35,4.35,0,0,1,1.63,6,4.12,4.12,0,0,1-1.63,1.52,4.91,4.91,0,0,1-2.35.55A5,5,0,0,1,1459.48,487.69Zm3.89-2.06a2.65,2.65,0,0,0,0-3.36,2,2,0,0,0-1.52-.62,2.05,2.05,0,0,0-1.54.62,2.65,2.65,0,0,0,0,3.36,2.06,2.06,0,0,0,1.54.63A2,2,0,0,0,1463.37,485.63Z" transform="translate(-1264.69 -205.16)"/></g><g id="Icon"><path class="cls-5" d="M1329.38,503.62h-.44v-.45a1.78,1.78,0,0,0-1.34-1.73V489.59a1.78,1.78,0,0,0,1.34-1.73v-.45h1.79a.44.44,0,0,0,.43-.32.45.45,0,0,0-.19-.51l-14.34-8.93a.42.42,0,0,0-.48,0l-14.33,8.93a.47.47,0,0,0-.2.51.45.45,0,0,0,.43.32h1.8v.45a1.78,1.78,0,0,0,1.34,1.73v11.85a1.78,1.78,0,0,0-1.34,1.73v.45h-.45a1.79,1.79,0,0,0-1.79,1.79v1.29a.45.45,0,0,0,.44.45h28.68a.45.45,0,0,0,.45-.45v-1.29A1.79,1.79,0,0,0,1329.38,503.62Zm-1.34-.45v.45h-5.37v-.45a.89.89,0,0,1,.89-.89h3.59A.89.89,0,0,1,1328,503.17Zm-18.37-1.73V489.59a1.79,1.79,0,0,0,1.35-1.73v-.45h1.79v.45a1.78,1.78,0,0,0,1.35,1.73v11.85a1.78,1.78,0,0,0-1.35,1.73v.45H1311v-.45A1.79,1.79,0,0,0,1309.67,501.44Zm-.89-11.78v11.72h-2.7V489.66Zm6.27,0h2.69v11.72h-2.69Zm3.14-.89h-3.59a.91.91,0,0,1-.9-.91v-.45h5.38v.45A.91.91,0,0,1,1318.19,488.77Zm-4.49,14.4a.89.89,0,0,1,.9-.89h3.59a.89.89,0,0,1,.89.89v.45h-5.38Zm4.93-1.73V489.59a1.79,1.79,0,0,0,1.35-1.73v-.45h1.79v.45a1.78,1.78,0,0,0,1.34,1.73v11.85a1.78,1.78,0,0,0-1.34,1.73v.45H1320v-.45A1.8,1.8,0,0,0,1318.63,501.44Zm5.38-.06V489.66h2.69v11.72Zm4-13.52a.91.91,0,0,1-.89.91h-3.59a.91.91,0,0,1-.89-.91v-.45H1328Zm-23.75-1.34h-.67l12.77-8,12.77,8h-24.87Zm.45,1.34v-.45h5.38v.45a.92.92,0,0,1-.9.91h-3.58A.91.91,0,0,1,1304.74,487.86Zm0,15.31a.89.89,0,0,1,.9-.89h3.58a.9.9,0,0,1,.9.89v.45h-5.38Zm25.54,3.09H1302.5v-.85a.9.9,0,0,1,.9-.9h26a.9.9,0,0,1,.9.9Z" transform="translate(-1264.69 -205.16)"/><path class="cls-5" d="M1316.39,485.12a2.13,2.13,0,1,0-2.13-2.13A2.13,2.13,0,0,0,1316.39,485.12Zm0-3.36a1.24,1.24,0,1,1-1.23,1.23A1.24,1.24,0,0,1,1316.39,481.76Z" transform="translate(-1264.69 -205.16)"/></g></g><g id="NAME"><path class="cls-6" d="M1283.9,430v2.59h4.1V434h-4.1v3.25h-1.58v-8.5h6.21V430Z" transform="translate(-1264.69 -205.16)"/><path class="cls-6" d="M1289.86,429.41a.88.88,0,0,1-.28-.65.87.87,0,0,1,.28-.65,1,1,0,0,1,.69-.26,1,1,0,0,1,.7.25.8.8,0,0,1,.28.62,1,1,0,0,1-.28.68.94.94,0,0,1-.7.27A1,1,0,0,1,1289.86,429.41Zm-.07,1.33h1.52v6.48h-1.52Z" transform="translate(-1264.69 -205.16)"/><path class="cls-6" d="M1299,431.38a2.86,2.86,0,0,1,.74,2.13v3.71h-1.52V433.7a1.8,1.8,0,0,0-.4-1.28,1.48,1.48,0,0,0-1.14-.43,1.8,1.8,0,0,0-1.33.5,2,2,0,0,0-.48,1.45v3.28h-1.52v-6.48h1.44v.84a2.41,2.41,0,0,1,1-.68,3.3,3.3,0,0,1,1.29-.24A2.71,2.71,0,0,1,1299,431.38Z" transform="translate(-1264.69 -205.16)"/><path class="cls-6" d="M1306.29,431.35a2.68,2.68,0,0,1,.76,2.07v3.8h-1.43v-.79a1.78,1.78,0,0,1-.8.65,3.1,3.1,0,0,1-1.25.23,3,3,0,0,1-1.27-.25,1.94,1.94,0,0,1-.84-.69,1.76,1.76,0,0,1-.3-1,1.69,1.69,0,0,1,.65-1.4,3.22,3.22,0,0,1,2-.53h1.68v-.09a1.33,1.33,0,0,0-.41-1,1.76,1.76,0,0,0-1.2-.36,3.3,3.3,0,0,0-1.08.17,2.6,2.6,0,0,0-.89.47l-.6-1.1a3.71,3.71,0,0,1,1.23-.6,5.37,5.37,0,0,1,1.52-.21A3.16,3.16,0,0,1,1306.29,431.35Zm-1.39,4.59a1.37,1.37,0,0,0,.63-.75v-.75H1304c-.87,0-1.31.29-1.31.86a.77.77,0,0,0,.33.66,1.51,1.51,0,0,0,.91.24A1.88,1.88,0,0,0,1304.9,435.94Z" transform="translate(-1264.69 -205.16)"/><path class="cls-6" d="M1314.64,431.38a2.86,2.86,0,0,1,.74,2.13v3.71h-1.52V433.7a1.8,1.8,0,0,0-.4-1.28,1.48,1.48,0,0,0-1.14-.43,1.76,1.76,0,0,0-1.32.5,2,2,0,0,0-.49,1.45v3.28H1309v-6.48h1.45v.84a2.31,2.31,0,0,1,.94-.68,3.3,3.3,0,0,1,1.29-.24A2.71,2.71,0,0,1,1314.64,431.38Z" transform="translate(-1264.69 -205.16)"/><path class="cls-6" d="M1318.54,436.88a3,3,0,0,1-1.25-1.18,3.32,3.32,0,0,1-.45-1.72,3.26,3.26,0,0,1,.45-1.71,3.13,3.13,0,0,1,1.24-1.18,3.85,3.85,0,0,1,1.82-.43,3.47,3.47,0,0,1,1.68.39,2.56,2.56,0,0,1,1.09,1.12l-1.17.68a1.86,1.86,0,0,0-.7-.67,1.89,1.89,0,0,0-.91-.23,1.9,1.9,0,0,0-2,2,2,2,0,0,0,.55,1.48,2,2,0,0,0,1.42.55,1.89,1.89,0,0,0,.91-.23,1.86,1.86,0,0,0,.7-.67l1.17.68a2.59,2.59,0,0,1-1.1,1.12,3.36,3.36,0,0,1-1.67.4A3.72,3.72,0,0,1,1318.54,436.88Z" transform="translate(-1264.69 -205.16)"/><path class="cls-6" d="M1330.4,434.47h-5.09a1.81,1.81,0,0,0,.7,1.13,2.31,2.31,0,0,0,1.41.42,2.36,2.36,0,0,0,1.76-.7l.81.93a2.75,2.75,0,0,1-1.1.79,4,4,0,0,1-1.51.27,3.92,3.92,0,0,1-1.88-.43,3,3,0,0,1-1.26-1.18,3.31,3.31,0,0,1-.44-1.72,3.39,3.39,0,0,1,.43-1.71,3,3,0,0,1,1.19-1.18,3.55,3.55,0,0,1,1.73-.43,3.39,3.39,0,0,1,1.69.42,3,3,0,0,1,1.17,1.18,3.58,3.58,0,0,1,.42,1.76Q1330.43,434.17,1330.4,434.47Zm-4.48-2.16a1.84,1.84,0,0,0-.62,1.15H1329a1.77,1.77,0,0,0-1.83-1.58A1.79,1.79,0,0,0,1325.92,432.31Z" transform="translate(-1264.69 -205.16)"/><path class="cls-6" d="M1332,429.41a.85.85,0,0,1-.28-.65.83.83,0,0,1,.28-.65.94.94,0,0,1,.69-.26,1,1,0,0,1,.69.25.77.77,0,0,1,.28.62.94.94,0,0,1-.27.68,1,1,0,0,1-.7.27A1,1,0,0,1,1332,429.41Zm-.07,1.33h1.51v6.48h-1.51Z" transform="translate(-1264.69 -205.16)"/><path class="cls-6" d="M1339.15,430.66v1.45a2.5,2.5,0,0,0-.35,0,1.86,1.86,0,0,0-1.39.52,2.06,2.06,0,0,0-.5,1.49v3.14h-1.51v-6.48h1.44v.94A2.54,2.54,0,0,1,1339.15,430.66Z" transform="translate(-1264.69 -205.16)"/><path class="cls-6" d="M1341.52,436.88a3,3,0,0,1-1.23-1.18,3.32,3.32,0,0,1-.45-1.72,3.26,3.26,0,0,1,.45-1.71,3,3,0,0,1,1.23-1.18,3.68,3.68,0,0,1,1.77-.43,3.76,3.76,0,0,1,1.79.43,3.17,3.17,0,0,1,1.23,1.18,3.35,3.35,0,0,1,.44,1.71,3.41,3.41,0,0,1-.44,1.72,3.1,3.1,0,0,1-1.23,1.18,3.65,3.65,0,0,1-1.79.43A3.57,3.57,0,0,1,1341.52,436.88Zm3.16-1.43a2.27,2.27,0,0,0,0-2.94,1.88,1.88,0,0,0-1.39-.56,1.85,1.85,0,0,0-1.38.56,2.27,2.27,0,0,0,0,2.94,1.85,1.85,0,0,0,1.38.56A1.88,1.88,0,0,0,1344.68,435.45Z" transform="translate(-1264.69 -205.16)"/></g><g id="Trabalho"><rect id="Trabalçho" class="cls-7" x="78.34" y="191.43" width="143.32" height="17.05" rx="6.44"/></g><rect id="Barrinha" class="cls-2" x="16.49" y="237.24" width="267.02" height="1.71" rx="0.85"/><rect id="Barrinha-2" data-name="Barrinha" class="cls-2" x="16.49" y="430.01" width="267.02" height="1.71" rx="0.85"/></svg>