<svg xmlns="http://www.w3.org/2000/svg" viewBox="0 0 605.93 125"><defs><style>.cls-1{isolation:isolate;}.cls-2{fill:#f9b036;}.cls-3{fill:#ededed;}.cls-4{fill:#6cb880;}.cls-5{fill:#82de9a;}.cls-6{fill:#5a8c67;}.cls-7{fill:#e87152;}.cls-8{fill:#fdc5a7;}.cls-10,.cls-9{fill:#838f92;mix-blend-mode:multiply;}.cls-9{opacity:0.24;}.cls-10{opacity:0.4;}.cls-11{fill:#fed7d7;}</style></defs><title>transimage</title><g class="cls-1"><g id="Transferir"><g id="Deposito"><rect id="Deposito-2" data-name="Deposito" class="cls-2" width="605.93" height="125" rx="10"/></g><path class="cls-3" d="M707.91,387.1,704,381.44h-4.33v5.66H695V366.75h8.81a11.15,11.15,0,0,1,4.69.91,6.69,6.69,0,0,1,4.14,6.48,6.62,6.62,0,0,1-4.18,6.42L713,387.1Zm-1.19-15.59a5,5,0,0,0-3.23-.92h-3.83v7.1h3.83a4.84,4.84,0,0,0,3.23-.94,3.65,3.65,0,0,0,0-5.24Z" transform="translate(-528.52 -345.66)"/><path class="cls-3" d="M731.23,380.56H719.4a3.65,3.65,0,0,0,1.51,2.3,5,5,0,0,0,3,.84,6.06,6.06,0,0,0,2.17-.36,5.24,5.24,0,0,0,1.76-1.15l2.41,2.62a8.12,8.12,0,0,1-6.45,2.53,10.27,10.27,0,0,1-4.68-1,7.54,7.54,0,0,1-3.14-2.87,7.84,7.84,0,0,1-1.11-4.16,8,8,0,0,1,1.09-4.14,7.69,7.69,0,0,1,3-2.88,8.89,8.89,0,0,1,4.26-1,8.68,8.68,0,0,1,4.15,1,7.25,7.25,0,0,1,2.93,2.83,8.55,8.55,0,0,1,1.06,4.29C731.32,379.4,731.29,379.81,731.23,380.56Zm-10.61-5a3.71,3.71,0,0,0-1.28,2.39H727a3.71,3.71,0,0,0-1.28-2.37,3.81,3.81,0,0,0-2.55-.89A3.92,3.92,0,0,0,720.62,375.53Z" transform="translate(-528.52 -345.66)"/><path class="cls-3" d="M745.79,373a6.61,6.61,0,0,1,2,5.22v8.92H743.5v-1.94c-.86,1.45-2.44,2.18-4.77,2.18a7.56,7.56,0,0,1-3.13-.61,4.71,4.71,0,0,1-2-1.69,4.43,4.43,0,0,1-.69-2.44,4.06,4.06,0,0,1,1.64-3.43,8.3,8.3,0,0,1,5.07-1.25h3.61a2.88,2.88,0,0,0-.9-2.28,4,4,0,0,0-2.71-.8,7.89,7.89,0,0,0-2.45.39,6.3,6.3,0,0,0-2,1.06l-1.63-3.17a9.8,9.8,0,0,1,3.06-1.39,13.78,13.78,0,0,1,3.68-.5A8.12,8.12,0,0,1,745.79,373Zm-3.86,10.79a3,3,0,0,0,1.28-1.59v-1.6H740.1c-1.86,0-2.79.61-2.79,1.84a1.62,1.62,0,0,0,.68,1.38,3.05,3.05,0,0,0,1.87.5A3.94,3.94,0,0,0,741.93,383.75Z" transform="translate(-528.52 -345.66)"/><path class="cls-3" d="M751.84,365.53h4.54V387.1h-4.54Z" transform="translate(-528.52 -345.66)"/><path class="cls-3" d="M760.82,368.56a2.48,2.48,0,0,1,0-3.61,2.93,2.93,0,0,1,2-.73,3,3,0,0,1,2,.7,2.26,2.26,0,0,1,.78,1.75,2.47,2.47,0,0,1-.78,1.87,2.85,2.85,0,0,1-2,.74A2.92,2.92,0,0,1,760.82,368.56Zm-.23,2.9h4.54V387.1h-4.54Z" transform="translate(-528.52 -345.66)"/><path class="cls-3" d="M782.22,383.62v3.48h-14v-2.73l8-9.42h-7.76v-3.49H782v2.74l-8,9.42Z" transform="translate(-528.52 -345.66)"/><path class="cls-3" d="M797,373a6.61,6.61,0,0,1,2,5.22v8.92h-4.25v-1.94q-1.28,2.18-4.76,2.18a7.5,7.5,0,0,1-3.13-.61,4.71,4.71,0,0,1-2-1.69,4.35,4.35,0,0,1-.7-2.44,4.09,4.09,0,0,1,1.64-3.43,8.35,8.35,0,0,1,5.08-1.25h3.6a2.88,2.88,0,0,0-.9-2.28,3.92,3.92,0,0,0-2.7-.8,8,8,0,0,0-2.46.39,6.41,6.41,0,0,0-2,1.06l-1.63-3.17a10,10,0,0,1,3.07-1.39,13.73,13.73,0,0,1,3.68-.5A8.16,8.16,0,0,1,797,373Zm-3.87,10.79a3,3,0,0,0,1.28-1.59v-1.6h-3.11c-1.86,0-2.79.61-2.79,1.84a1.64,1.64,0,0,0,.68,1.38,3.09,3.09,0,0,0,1.88.5A3.93,3.93,0,0,0,793.15,383.75Z" transform="translate(-528.52 -345.66)"/><path class="cls-3" d="M809.59,371.81a8.33,8.33,0,0,1,3.19-.58v4.19l-1-.06a4.13,4.13,0,0,0-3,1.09,4.4,4.4,0,0,0-1.11,3.27v7.38h-4.53V371.46h4.33v2.07A5,5,0,0,1,809.59,371.81Z" transform="translate(-528.52 -345.66)"/><path class="cls-3" d="M839.58,371.46V387.1h-4.3v-1.86a6,6,0,0,1-2.15,1.56,6.79,6.79,0,0,1-2.71.54,6.63,6.63,0,0,1-4.88-1.78,7.06,7.06,0,0,1-1.8-5.26v-8.84h4.53v8.17q0,3.78,3.17,3.78a3.4,3.4,0,0,0,2.62-1.06,4.47,4.47,0,0,0,1-3.15v-7.74Z" transform="translate(-528.52 -345.66)"/><path class="cls-3" d="M868.5,373a7.05,7.05,0,0,1,1.73,5.19v9h-4.54v-8.25a4.27,4.27,0,0,0-.77-2.78,2.71,2.71,0,0,0-2.2-.91,3.21,3.21,0,0,0-2.52,1,4.41,4.41,0,0,0-.93,3.07v7.84h-4.54v-8.25q0-3.69-3-3.69a3.2,3.2,0,0,0-2.5,1,4.46,4.46,0,0,0-.93,3.07v7.84H843.8V371.46h4.33v1.81a5.69,5.69,0,0,1,2.14-1.52,7.34,7.34,0,0,1,2.77-.52,6.68,6.68,0,0,1,3,.66,5.26,5.26,0,0,1,2.15,1.9,6.5,6.5,0,0,1,2.43-1.89,7.6,7.6,0,0,1,3.21-.67A6.33,6.33,0,0,1,868.5,373Z" transform="translate(-528.52 -345.66)"/><path class="cls-3" d="M886.19,373a6.64,6.64,0,0,1,1.94,5.22v8.92h-4.24v-1.94q-1.27,2.18-4.77,2.18a7.48,7.48,0,0,1-3.12-.61,4.59,4.59,0,0,1-2-1.69,4.35,4.35,0,0,1-.7-2.44,4.09,4.09,0,0,1,1.64-3.43,8.34,8.34,0,0,1,5.07-1.25h3.61a2.88,2.88,0,0,0-.9-2.28,3.94,3.94,0,0,0-2.71-.8,7.89,7.89,0,0,0-2.45.39,6.3,6.3,0,0,0-2,1.06l-1.63-3.17a9.75,9.75,0,0,1,3.07-1.39,13.66,13.66,0,0,1,3.67-.5A8.17,8.17,0,0,1,886.19,373Zm-3.87,10.79a3,3,0,0,0,1.28-1.59v-1.6h-3.11c-1.86,0-2.79.61-2.79,1.84a1.62,1.62,0,0,0,.68,1.38,3.09,3.09,0,0,0,1.88.5A3.93,3.93,0,0,0,882.32,383.75Z" transform="translate(-528.52 -345.66)"/><path class="cls-3" d="M910.55,386.35a4.58,4.58,0,0,1-1.64.74,8.59,8.59,0,0,1-2,.25,6.1,6.1,0,0,1-4.32-1.43,5.43,5.43,0,0,1-1.53-4.18V375.3H898.6v-3.49H901V368h4.54v3.81h3.89v3.49h-3.89v6.37a2.1,2.1,0,0,0,.51,1.52,1.89,1.89,0,0,0,1.44.54,2.92,2.92,0,0,0,1.83-.58Z" transform="translate(-528.52 -345.66)"/><path class="cls-3" d="M919.63,371.81a8.33,8.33,0,0,1,3.19-.58v4.19l-1-.06a4.13,4.13,0,0,0-3,1.09,4.4,4.4,0,0,0-1.11,3.27v7.38h-4.53V371.46h4.33v2.07A5,5,0,0,1,919.63,371.81Z" transform="translate(-528.52 -345.66)"/><path class="cls-3" d="M937.33,373a6.64,6.64,0,0,1,1.94,5.22v8.92H935v-1.94q-1.28,2.18-4.77,2.18a7.48,7.48,0,0,1-3.12-.61,4.68,4.68,0,0,1-2-1.69,4.43,4.43,0,0,1-.69-2.44,4.06,4.06,0,0,1,1.64-3.43,8.32,8.32,0,0,1,5.07-1.25h3.61a2.88,2.88,0,0,0-.9-2.28,4,4,0,0,0-2.71-.8,7.89,7.89,0,0,0-2.45.39,6.3,6.3,0,0,0-2,1.06L925,373.12a9.75,9.75,0,0,1,3.07-1.39,13.66,13.66,0,0,1,3.67-.5A8.17,8.17,0,0,1,937.33,373Zm-3.87,10.79a3,3,0,0,0,1.28-1.59v-1.6h-3.11c-1.86,0-2.79.61-2.79,1.84a1.62,1.62,0,0,0,.68,1.38,3.05,3.05,0,0,0,1.87.5A3.94,3.94,0,0,0,933.46,383.75Z" transform="translate(-528.52 -345.66)"/><path class="cls-3" d="M957.57,373a6.87,6.87,0,0,1,1.79,5.17v9h-4.53v-8.25a4.05,4.05,0,0,0-.82-2.78,3,3,0,0,0-2.35-.91,3.61,3.61,0,0,0-2.74,1.06,4.42,4.42,0,0,0-1,3.15v7.73h-4.54V371.46h4.33v1.84a6,6,0,0,1,2.24-1.53,7.77,7.77,0,0,1,2.94-.54A6.39,6.39,0,0,1,957.57,373Z" transform="translate(-528.52 -345.66)"/><path class="cls-3" d="M964.91,386.86a9.71,9.71,0,0,1-3-1.21l1.51-3.25a10,10,0,0,0,2.53,1.09,10.66,10.66,0,0,0,2.91.42c1.92,0,2.88-.48,2.88-1.43a1,1,0,0,0-.79-1,11.55,11.55,0,0,0-2.41-.49,22.86,22.86,0,0,1-3.17-.67,4.93,4.93,0,0,1-2.17-1.34,3.8,3.8,0,0,1-.91-2.73,4.27,4.27,0,0,1,.85-2.63,5.59,5.59,0,0,1,2.5-1.79,10.64,10.64,0,0,1,3.89-.64,15.44,15.44,0,0,1,3.3.36,9.25,9.25,0,0,1,2.71,1l-1.51,3.22a9.06,9.06,0,0,0-4.5-1.16,4.58,4.58,0,0,0-2.18.41,1.19,1.19,0,0,0-.73,1.05,1,1,0,0,0,.78,1,13.92,13.92,0,0,0,2.5.56,26.44,26.44,0,0,1,3.14.68,4.73,4.73,0,0,1,2.13,1.32,3.76,3.76,0,0,1,.9,2.68,4.1,4.1,0,0,1-.87,2.58,5.53,5.53,0,0,1-2.55,1.76,11.25,11.25,0,0,1-4,.63A15.19,15.19,0,0,1,964.91,386.86Z" transform="translate(-528.52 -345.66)"/><path class="cls-3" d="M983.87,371.81h4v3.49H984v11.8h-4.54V375.3H977v-3.49h2.41v-.7a5.69,5.69,0,0,1,1.59-4.24,6,6,0,0,1,4.46-1.57,8,8,0,0,1,1.93.22,4.66,4.66,0,0,1,1.53.62l-1.19,3.29a3.12,3.12,0,0,0-1.84-.55c-1.37,0-2.06.75-2.06,2.26Z" transform="translate(-528.52 -345.66)"/><path class="cls-3" d="M1005.18,380.56H993.35a3.65,3.65,0,0,0,1.51,2.3,5,5,0,0,0,3,.84,6.06,6.06,0,0,0,2.17-.36,5.24,5.24,0,0,0,1.76-1.15l2.41,2.62a8.12,8.12,0,0,1-6.45,2.53,10.27,10.27,0,0,1-4.68-1,7.54,7.54,0,0,1-3.14-2.87,7.84,7.84,0,0,1-1.11-4.16,8,8,0,0,1,1.09-4.14,7.69,7.69,0,0,1,3-2.88,8.89,8.89,0,0,1,4.26-1,8.68,8.68,0,0,1,4.15,1,7.25,7.25,0,0,1,2.93,2.83,8.55,8.55,0,0,1,1.06,4.29C1005.27,379.4,1005.24,379.81,1005.18,380.56Zm-10.61-5a3.71,3.71,0,0,0-1.28,2.39h7.7a3.71,3.71,0,0,0-1.28-2.37,3.81,3.81,0,0,0-2.55-.89A3.92,3.92,0,0,0,994.57,375.53Z" transform="translate(-528.52 -345.66)"/><path class="cls-3" d="M1014.82,371.81a8.27,8.27,0,0,1,3.18-.58v4.19q-.75-.06-1-.06a4.14,4.14,0,0,0-3.05,1.09,4.4,4.4,0,0,0-1.1,3.27v7.38h-4.54V371.46h4.33v2.07A5.1,5.1,0,0,1,1014.82,371.81Z" transform="translate(-528.52 -345.66)"/><path class="cls-3" d="M1035.79,380.56H1024a3.69,3.69,0,0,0,1.51,2.3,5.05,5.05,0,0,0,3,.84,6,6,0,0,0,2.16-.36,5.24,5.24,0,0,0,1.76-1.15l2.42,2.62a8.15,8.15,0,0,1-6.46,2.53,10.33,10.33,0,0,1-4.68-1,7.66,7.66,0,0,1-3.14-2.87,7.84,7.84,0,0,1-1.1-4.16,8,8,0,0,1,1.09-4.14,7.6,7.6,0,0,1,3-2.88,8.89,8.89,0,0,1,4.26-1,8.72,8.72,0,0,1,4.16,1,7.23,7.23,0,0,1,2.92,2.83,8.45,8.45,0,0,1,1.06,4.29C1035.88,379.4,1035.85,379.81,1035.79,380.56Zm-5.61-11.1-2.53-2.21-2.53,2.21h-3.31l3.84-4.19h4l3.84,4.19Zm-5,6.07a3.8,3.8,0,0,0-1.28,2.39h7.71a3.76,3.76,0,0,0-1.28-2.37,3.84,3.84,0,0,0-2.56-.89A3.92,3.92,0,0,0,1025.18,375.53Z" transform="translate(-528.52 -345.66)"/><path class="cls-3" d="M1053.11,373a6.9,6.9,0,0,1,1.78,5.17v9h-4.53v-8.25a4.1,4.1,0,0,0-.81-2.78,3,3,0,0,0-2.36-.91,3.6,3.6,0,0,0-2.73,1.06,4.37,4.37,0,0,0-1,3.15v7.73h-4.54V371.46h4.34v1.84a6,6,0,0,1,2.24-1.53,7.76,7.76,0,0,1,2.93-.54A6.42,6.42,0,0,1,1053.11,373Z" transform="translate(-528.52 -345.66)"/><path class="cls-3" d="M1062.23,386.31a7.9,7.9,0,0,1,0-14.05,9.75,9.75,0,0,1,4.5-1,8.78,8.78,0,0,1,4.31,1,6.16,6.16,0,0,1,2.69,2.95l-3.52,1.89a3.84,3.84,0,0,0-3.51-2.15,4,4,0,0,0-2.94,1.17,4.9,4.9,0,0,0,0,6.33,4,4,0,0,0,2.94,1.17,3.79,3.79,0,0,0,3.51-2.16l3.52,1.92a6.26,6.26,0,0,1-2.69,2.91,8.57,8.57,0,0,1-4.31,1A9.75,9.75,0,0,1,1062.23,386.31Z" transform="translate(-528.52 -345.66)"/><path class="cls-3" d="M1076.58,368.56a2.48,2.48,0,0,1,0-3.61,2.91,2.91,0,0,1,2-.73,3,3,0,0,1,2,.7,2.27,2.27,0,0,1,.79,1.75,2.48,2.48,0,0,1-.79,1.87,2.81,2.81,0,0,1-2,.74A2.91,2.91,0,0,1,1076.58,368.56Zm-.23,2.9h4.53V387.1h-4.53Z" transform="translate(-528.52 -345.66)"/><path class="cls-3" d="M1097,373a6.61,6.61,0,0,1,2,5.22v8.92h-4.25v-1.94q-1.28,2.18-4.76,2.18a7.5,7.5,0,0,1-3.13-.61,4.71,4.71,0,0,1-2-1.69,4.43,4.43,0,0,1-.7-2.44,4.07,4.07,0,0,1,1.65-3.43,8.3,8.3,0,0,1,5.07-1.25h3.6a2.88,2.88,0,0,0-.9-2.28,3.92,3.92,0,0,0-2.7-.8,8,8,0,0,0-2.46.39,6.41,6.41,0,0,0-2,1.06l-1.63-3.17a10,10,0,0,1,3.07-1.39,13.73,13.73,0,0,1,3.68-.5A8.16,8.16,0,0,1,1097,373Zm-3.87,10.79a3,3,0,0,0,1.28-1.59v-1.6h-3.11c-1.86,0-2.79.61-2.79,1.84a1.64,1.64,0,0,0,.68,1.38,3.09,3.09,0,0,0,1.88.5A3.93,3.93,0,0,0,1093.12,383.75Z" transform="translate(-528.52 -345.66)"/><path class="cls-3" d="M1102.75,386.52a2.73,2.73,0,0,1-.82-2,2.63,2.63,0,0,1,.82-2,3,3,0,0,1,4,0,2.66,2.66,0,0,1,.81,2,2.76,2.76,0,0,1-.81,2,2.86,2.86,0,0,1-4,0Z" transform="translate(-528.52 -345.66)"/><rect class="cls-4" x="621.7" y="421.03" width="69.14" height="1.39" transform="translate(-635.13 239) rotate(-44.78)"/><polygon class="cls-5" points="83.03 80.01 102.7 99.87 151.84 51.24 132.17 31.36 121.74 41.68 114.43 48.92 109.59 53.72 109.57 53.73 105.46 57.8 92.86 70.27 83.03 80.01"/><path class="cls-6" d="M660.28,397.1a3.65,3.65,0,1,0,0,5.21A3.68,3.68,0,0,0,660.28,397.1Z" transform="translate(-528.52 -345.66)"/><path class="cls-6" d="M636.26,420.88a3.65,3.65,0,1,0,0,5.21A3.69,3.69,0,0,0,636.26,420.88Z" transform="translate(-528.52 -345.66)"/><path class="cls-6" d="M677,397l-16.4-16.57a2.5,2.5,0,0,0-.47,0L615,425.09a2.5,2.5,0,0,0,0,.47l16.4,16.56a2.27,2.27,0,0,0,.45,0L677,397.42A3.54,3.54,0,0,0,677,397Zm-6.37-2.72a3.68,3.68,0,0,0,.23,5.2l-37,36.57a3.69,3.69,0,0,0-5.2-.28l-7.37-7.45a3.7,3.7,0,0,0-.23-5.21l36.94-36.57a3.7,3.7,0,0,0,5.2.29Z" transform="translate(-528.52 -345.66)"/><path class="cls-6" d="M640,417.2a7.8,7.8,0,1,0,.06-11A7.8,7.8,0,0,0,640,417.2Zm4.86-1.95a1.84,1.84,0,0,1-.41-.78,5.07,5.07,0,0,1-.09-.5,5,5,0,0,1,0-1.42c0-.16.1-.48.21-1a6.24,6.24,0,0,0,.18-1,1.71,1.71,0,0,0-.37-1.37,1,1,0,0,0-.61-.31.89.89,0,0,0-.76.29,1,1,0,0,0-.36.66,1.36,1.36,0,0,0,.29.9l-1.39,1.05a2.1,2.1,0,0,1-.43-1,2.25,2.25,0,0,1,.12-1.11,3.74,3.74,0,0,1,.52-.89l-.63-.65.92-.92.65.65a2.88,2.88,0,0,1,1-.48,2,2,0,0,1,2.06.54,2,2,0,0,1,.59,1.16,5.55,5.55,0,0,1-.09,1.71c-.15.87-.27,1.51-.35,1.94a1.5,1.5,0,0,0,.29,1.25.86.86,0,0,0,.54.29,1.19,1.19,0,0,0,1-.35,1.16,1.16,0,0,0,.36-.7,1.71,1.71,0,0,0-.4-1.19l1.29-1.14a2.84,2.84,0,0,1,.6,1.17,2.45,2.45,0,0,1,0,1.26,3,3,0,0,1-.47.94l.65.67-.93.92-.63-.65-.38.27a2.51,2.51,0,0,1-1.32.42A2.08,2.08,0,0,1,644.83,415.25Z" transform="translate(-528.52 -345.66)"/><polygon class="cls-7" points="24.98 42.62 24.98 79.8 67.3 77.05 67.3 47 24.98 42.62"/><path class="cls-8" d="M595.81,395.87V418l25.57-2.11,5-.4,2.88-.23.91-.08h0l.87,0,3.72-.21,8.91-.47,6.17-.32c2.21-.07,1.55-.13,3.75-.13,2.77,0,6.51-.41,8.5-2.69a4.2,4.2,0,0,0-.73-6.43l-.15-.12c-1.31-.95-4.56-1.13-7.41-1.13-1.18,0-2,.06-3.12.1h-1.32L634,403.47l-1.6,0,1-1,2.14-3,0-.05h2.51l12.17-12.05-1.87-1.95-1-1a3.7,3.7,0,0,0-.78-.53.79.79,0,0,0-.16-.08l-.21-.1,0,0a2.59,2.59,0,0,0-.42-.14,3.39,3.39,0,0,0-.43-.11l-.42-.06-.33,0h-.85l-16.33.42c-1.15,0-8.36,1.9-10.27,3Z" transform="translate(-528.52 -345.66)"/><polygon class="cls-9" points="107.05 53.72 109.59 53.72 114.43 48.92 110.38 48.98 107.05 53.72"/><path class="cls-10" d="M611.54,425.67l18,18.18,30.67-31a15.14,15.14,0,0,1-6.55,1.21c-2.2,0-1.54.06-3.75.14l-6.17.32-8.91.47-3.73.2-.86,0h0l-.91.07-2.88.23-5,.41Z" transform="translate(-528.52 -345.66)"/><path class="cls-11" d="M655.44,404.56a1,1,0,0,0-.58.43,3.82,3.82,0,0,1,2.17,2c.45,1.36-.84,3.63-2.34,3.77.16.87.42,1,1.54,1,1.93,0,4.75-.31,5.47-2.28a7.4,7.4,0,0,0,.23-1c.26-2-1.36-3.2-4.11-3.7A6.85,6.85,0,0,0,655.44,404.56Z" transform="translate(-528.52 -345.66)"/></g></g></svg>